G04 #@! TF.FileFunction,Soldermask,Top*
%FSLAX46Y46*%
G04 Gerber Fmt 4.6, Leading zero omitted, Abs format (unit mm)*
G04 Created by KiCad (PCBNEW 4.0.6-e0-6349~53~ubuntu16.04.1) date Mon Mar 20 22:19:24 2017*
%MOMM*%
%LPD*%
G01*
G04 APERTURE LIST*
%ADD10C,0.100000*%
%ADD11R,2.100000X2.100000*%
%ADD12O,2.100000X2.100000*%
%ADD13R,2.152600X0.908000*%
%ADD14R,1.900000X3.600000*%
%ADD15R,2.000000X1.400000*%
%ADD16R,1.400000X2.000000*%
%ADD17R,3.600000X1.900000*%
%ADD18R,1.300000X1.600000*%
%ADD19C,2.500000*%
%ADD20R,2.500000X2.500000*%
%ADD21C,2.398980*%
%ADD22O,2.398980X2.398980*%
%ADD23R,2.398980X2.398980*%
%ADD24R,1.300000X2.100000*%
%ADD25C,2.740000*%
%ADD26R,4.591000X1.670000*%
%ADD27R,4.083000X1.670000*%
%ADD28C,3.400000*%
G04 APERTURE END LIST*
D10*
D11*
X122618500Y-36068000D03*
D12*
X122618500Y-33528000D03*
X125158500Y-36068000D03*
X125158500Y-33528000D03*
X127698500Y-36068000D03*
X127698500Y-33528000D03*
X130238500Y-36068000D03*
X130238500Y-33528000D03*
X132778500Y-36068000D03*
X132778500Y-33528000D03*
X135318500Y-36068000D03*
X135318500Y-33528000D03*
X137858500Y-36068000D03*
X137858500Y-33528000D03*
X140398500Y-36068000D03*
X140398500Y-33528000D03*
X142938500Y-36068000D03*
X142938500Y-33528000D03*
X145478500Y-36068000D03*
X145478500Y-33528000D03*
X148018500Y-36068000D03*
X148018500Y-33528000D03*
X150558500Y-36068000D03*
X150558500Y-33528000D03*
X153098500Y-36068000D03*
X153098500Y-33528000D03*
X155638500Y-36068000D03*
X155638500Y-33528000D03*
X158178500Y-36068000D03*
X158178500Y-33528000D03*
X160718500Y-36068000D03*
X160718500Y-33528000D03*
X163258500Y-36068000D03*
X163258500Y-33528000D03*
X165798500Y-36068000D03*
X165798500Y-33528000D03*
X168338500Y-36068000D03*
X168338500Y-33528000D03*
X170878500Y-36068000D03*
X170878500Y-33528000D03*
D13*
X131521200Y-44558001D03*
X131521200Y-45208000D03*
X131521200Y-45857998D03*
X131521200Y-46507999D03*
X131521200Y-47157998D03*
X131521200Y-47807999D03*
X131521200Y-48457998D03*
X131521200Y-49107999D03*
X131521200Y-49757998D03*
X131521200Y-50407999D03*
X131521200Y-51057998D03*
X131521200Y-51707999D03*
X137210800Y-51707999D03*
X137210800Y-51058000D03*
X137210800Y-50407999D03*
X137210800Y-49758001D03*
X137210800Y-49107999D03*
X137210800Y-48458001D03*
X137210800Y-47808002D03*
X137210800Y-47158001D03*
X137210800Y-46508002D03*
X137210800Y-45858001D03*
X137210800Y-45208002D03*
D14*
X125793500Y-43212000D03*
X125793500Y-47212000D03*
D15*
X123317000Y-43204000D03*
X123317000Y-46204000D03*
D16*
X122579000Y-57150000D03*
X125579000Y-57150000D03*
X128611500Y-56451500D03*
X131611500Y-56451500D03*
D17*
X128238500Y-53848000D03*
X132238500Y-53848000D03*
D18*
X167260000Y-43053000D03*
X170560000Y-43053000D03*
X167260000Y-48641000D03*
X170560000Y-48641000D03*
D19*
X148717000Y-44069000D03*
X148717000Y-54869000D03*
D20*
X159517000Y-54869000D03*
D19*
X159517000Y-44069000D03*
D21*
X135366760Y-59436000D03*
X125206760Y-59436000D03*
D22*
X141033500Y-56642000D03*
D23*
X138493500Y-56642000D03*
D24*
X167269500Y-45783500D03*
X170169500Y-45783500D03*
X122311500Y-53340000D03*
X125211500Y-53340000D03*
D25*
X116141500Y-48561000D03*
X118641500Y-46061000D03*
X116141500Y-43561000D03*
D26*
X176720500Y-47231300D03*
X176720500Y-42938700D03*
D27*
X176974500Y-45085000D03*
D26*
X176720500Y-47231300D03*
X176720500Y-42938700D03*
D28*
X117729000Y-34798000D03*
X175768000Y-34798000D03*
X117729000Y-57848500D03*
X175768000Y-57848500D03*
M02*
