M48
;DRILL file {KiCad 4.0.6-e0-6349~53~ubuntu16.04.1} date Mon Mar 20 22:19:34 2017
;FORMAT={-:-/ absolute / inch / decimal}
FMAT,2
INCH,TZ
T1C0.016
T2C0.039
T3C0.039
T4C0.043
T5C0.047
T6C0.051
%
G90
G05
M72
T1
X4.615Y-2.0975
X4.705Y-2.1325
X4.82Y-1.9325
X4.8775Y-1.9525
X4.8925Y-1.54
X4.9225Y-1.99
X5.0125Y-1.555
X5.0275Y-1.7975
X5.05Y-1.96
X5.0575Y-1.89
X5.0825Y-2.01
X5.0875Y-1.6175
X5.0975Y-1.7725
X5.0975Y-1.9075
X5.1075Y-1.8775
X5.24Y-2.0325
X5.255Y-1.955
X5.275Y-1.7775
X5.2925Y-1.895
X5.31Y-1.855
X5.3375Y-2.2175
X5.365Y-1.53
X5.405Y-1.5775
X5.47Y-1.775
X5.4775Y-1.8075
X5.4775Y-1.84
X5.4775Y-1.8725
X5.48Y-1.905
X5.4825Y-1.9575
X5.4875Y-1.6625
X5.58Y-1.5575
X5.6975Y-1.7375
X5.7225Y-1.665
X5.755Y-1.62
X5.755Y-1.69
X5.84Y-1.5825
X5.8925Y-1.595
X5.95Y-1.55
X5.975Y-1.9225
X5.995Y-2.16
X6.005Y-1.6775
X6.2275Y-1.9225
X6.405Y-1.52
X6.4625Y-1.635
X6.575Y-2.2
X6.6925Y-2.1175
X6.7075Y-1.59
X6.8375Y-1.5675
X6.9575Y-1.6905
X6.9575Y-1.8595
T2
X4.8275Y-1.32
X4.8275Y-1.42
X4.9275Y-1.32
X4.9275Y-1.42
X5.0275Y-1.32
X5.0275Y-1.42
X5.1275Y-1.32
X5.1275Y-1.42
X5.2275Y-1.32
X5.2275Y-1.42
X5.3275Y-1.32
X5.3275Y-1.42
X5.4275Y-1.32
X5.4275Y-1.42
X5.5275Y-1.32
X5.5275Y-1.42
X5.6275Y-1.32
X5.6275Y-1.42
X5.7275Y-1.32
X5.7275Y-1.42
X5.8275Y-1.32
X5.8275Y-1.42
X5.9275Y-1.32
X5.9275Y-1.42
X6.0275Y-1.32
X6.0275Y-1.42
X6.1275Y-1.32
X6.1275Y-1.42
X6.2275Y-1.32
X6.2275Y-1.42
X6.3275Y-1.32
X6.3275Y-1.42
X6.4275Y-1.32
X6.4275Y-1.42
X6.5275Y-1.32
X6.5275Y-1.42
X6.6275Y-1.32
X6.6275Y-1.42
X6.7275Y-1.32
X6.7275Y-1.42
T3
X4.9294Y-2.34
X5.3294Y-2.34
T4
X5.4525Y-2.23
X5.5525Y-2.23
T5
X5.855Y-1.735
X5.855Y-2.1602
X6.2802Y-1.735
X6.2802Y-2.1602
T6
X4.5725Y-1.715
X4.5725Y-1.9119
X4.6709Y-1.8134
T0
M30
