M48
;DRILL file {KiCad 4.0.6-e0-6349~53~ubuntu16.04.1} date Sat Mar 25 19:45:29 2017
;FORMAT={-:-/ absolute / inch / decimal}
FMAT,2
INCH,TZ
T1C0.024
T2C0.031
T3C0.039
T4C0.040
%
G90
G05
M72
T1
X4.3386Y-4.6378
X4.4173Y-4.1772
X4.4173Y-4.8386
X4.5551Y-4.2441
X4.9528Y-4.7402
X5.6457Y-4.4291
X5.7323Y-4.2323
T2
X5.2362Y-4.5425
X5.2362Y-4.8425
X5.3362Y-4.5425
X5.3362Y-4.8425
X5.4362Y-4.5425
X5.4362Y-4.8425
X5.5362Y-4.5425
X5.5362Y-4.8425
X5.6362Y-4.5425
X5.6362Y-4.8425
X5.7362Y-4.5425
X5.7362Y-4.8425
X5.8362Y-4.5425
X5.8362Y-4.8425
X5.9362Y-4.5425
X5.9362Y-4.8425
X6.0362Y-4.5425
X6.0362Y-4.8425
T3
X4.0685Y-4.4252
X4.0685Y-4.9252
X4.1685Y-4.4252
X4.1685Y-4.9252
X4.2685Y-4.4252
X4.2685Y-4.9252
X4.3685Y-4.4252
X4.3685Y-4.9252
X4.4685Y-4.4252
X4.4685Y-4.9252
X4.5685Y-4.4252
X4.5685Y-4.9252
X4.6685Y-4.4252
X4.6685Y-4.9252
X4.7685Y-4.4252
X4.7685Y-4.9252
X4.8685Y-4.4252
X4.8685Y-4.9252
X4.9685Y-4.4252
X4.9685Y-4.9252
T4
X4.2665Y-4.0248
X4.2665Y-4.1248
X4.3665Y-4.0248
X4.3665Y-4.1248
X4.4665Y-4.0248
X4.4665Y-4.1248
X4.5665Y-4.0248
X4.5665Y-4.1248
X4.6665Y-4.0248
X4.6665Y-4.1248
X4.7665Y-4.0248
X4.7665Y-4.1248
X4.8665Y-4.0248
X4.8665Y-4.1248
X4.9665Y-4.0248
X4.9665Y-4.1248
X5.0665Y-4.0248
X5.0665Y-4.1248
X5.1665Y-4.0248
X5.1665Y-4.1248
X5.2665Y-4.0248
X5.2665Y-4.1248
X5.3665Y-4.0248
X5.3665Y-4.1248
X5.4665Y-4.0248
X5.4665Y-4.1248
X5.5665Y-4.0248
X5.5665Y-4.1248
X5.6665Y-4.0248
X5.6665Y-4.1248
X5.7665Y-4.0248
X5.7665Y-4.1248
X5.8665Y-4.0248
X5.8665Y-4.1248
X5.9665Y-4.0248
X5.9665Y-4.1248
X6.0665Y-4.0248
X6.0665Y-4.1248
X6.1665Y-4.0248
X6.1665Y-4.1248
X6.4173Y-4.4472
X6.4173Y-4.5472
T0
M30
