G04 #@! TF.FileFunction,Soldermask,Bot*
%FSLAX46Y46*%
G04 Gerber Fmt 4.6, Leading zero omitted, Abs format (unit mm)*
G04 Created by KiCad (PCBNEW 4.0.6-e0-6349~53~ubuntu16.04.1) date Sat Mar 25 19:46:27 2017*
%MOMM*%
%LPD*%
G01*
G04 APERTURE LIST*
%ADD10C,0.100000*%
%ADD11C,3.900000*%
%ADD12O,2.127200X2.127200*%
%ADD13R,2.127200X2.127200*%
%ADD14O,2.000000X2.700000*%
%ADD15C,2.400000*%
%ADD16R,2.432000X2.432000*%
%ADD17O,2.432000X2.432000*%
G04 APERTURE END LIST*
D10*
D11*
X103500000Y-103500000D03*
X161500000Y-103500000D03*
D12*
X108370000Y-102230000D03*
D13*
X108370000Y-104770000D03*
D12*
X110910000Y-102230000D03*
X110910000Y-104770000D03*
X113450000Y-102230000D03*
X113450000Y-104770000D03*
X115990000Y-102230000D03*
X115990000Y-104770000D03*
X118530000Y-102230000D03*
X118530000Y-104770000D03*
X121070000Y-102230000D03*
X121070000Y-104770000D03*
X123610000Y-102230000D03*
X123610000Y-104770000D03*
X126150000Y-102230000D03*
X126150000Y-104770000D03*
X128690000Y-102230000D03*
X128690000Y-104770000D03*
X131230000Y-102230000D03*
X131230000Y-104770000D03*
X133770000Y-102230000D03*
X133770000Y-104770000D03*
X136310000Y-102230000D03*
X136310000Y-104770000D03*
X138850000Y-102230000D03*
X138850000Y-104770000D03*
X141390000Y-102230000D03*
X141390000Y-104770000D03*
X143930000Y-102230000D03*
X143930000Y-104770000D03*
X146470000Y-102230000D03*
X146470000Y-104770000D03*
X149010000Y-102230000D03*
X149010000Y-104770000D03*
X151550000Y-102230000D03*
X151550000Y-104770000D03*
X154090000Y-102230000D03*
X154090000Y-104770000D03*
X156630000Y-102230000D03*
X156630000Y-104770000D03*
D14*
X133000000Y-123000000D03*
X135540000Y-123000000D03*
X138080000Y-123000000D03*
X140620000Y-123000000D03*
X143160000Y-123000000D03*
X145700000Y-123000000D03*
X148240000Y-123000000D03*
X150780000Y-123000000D03*
X153320000Y-123000000D03*
X153320000Y-115380000D03*
X150780000Y-115380000D03*
X148240000Y-115380000D03*
X145700000Y-115380000D03*
X143160000Y-115380000D03*
X140620000Y-115380000D03*
X138080000Y-115380000D03*
X135540000Y-115380000D03*
X133000000Y-115380000D03*
D15*
X126200000Y-112400000D03*
X123660000Y-112400000D03*
X121120000Y-112400000D03*
X118580000Y-112400000D03*
X116040000Y-112400000D03*
X113500000Y-112400000D03*
X110960000Y-112400000D03*
X108420000Y-112400000D03*
X105880000Y-112400000D03*
X103340000Y-112400000D03*
X126200000Y-125100000D03*
X123660000Y-125100000D03*
X121120000Y-125100000D03*
X118580000Y-125100000D03*
X116040000Y-125100000D03*
X113500000Y-125100000D03*
X110960000Y-125100000D03*
X108420000Y-125100000D03*
X105880000Y-125100000D03*
X103340000Y-125100000D03*
D16*
X163000000Y-115500000D03*
D17*
X163000000Y-112960000D03*
M02*
