G04 #@! TF.FileFunction,Legend,Top*
%FSLAX46Y46*%
G04 Gerber Fmt 4.6, Leading zero omitted, Abs format (unit mm)*
G04 Created by KiCad (PCBNEW 4.0.6-e0-6349~53~ubuntu16.04.1) date Sat Mar 25 19:46:27 2017*
%MOMM*%
%LPD*%
G01*
G04 APERTURE LIST*
%ADD10C,0.100000*%
%ADD11C,0.300000*%
%ADD12C,0.200000*%
%ADD13C,0.250000*%
%ADD14C,0.150000*%
G04 APERTURE END LIST*
D10*
D11*
X102524287Y-128805714D02*
X102452858Y-128877143D01*
X102238572Y-128948571D01*
X102095715Y-128948571D01*
X101881430Y-128877143D01*
X101738572Y-128734286D01*
X101667144Y-128591429D01*
X101595715Y-128305714D01*
X101595715Y-128091429D01*
X101667144Y-127805714D01*
X101738572Y-127662857D01*
X101881430Y-127520000D01*
X102095715Y-127448571D01*
X102238572Y-127448571D01*
X102452858Y-127520000D01*
X102524287Y-127591429D01*
X103095715Y-128520000D02*
X103810001Y-128520000D01*
X102952858Y-128948571D02*
X103452858Y-127448571D01*
X103952858Y-128948571D01*
X104310001Y-127448571D02*
X105238572Y-127448571D01*
X104738572Y-128020000D01*
X104952858Y-128020000D01*
X105095715Y-128091429D01*
X105167144Y-128162857D01*
X105238572Y-128305714D01*
X105238572Y-128662857D01*
X105167144Y-128805714D01*
X105095715Y-128877143D01*
X104952858Y-128948571D01*
X104524286Y-128948571D01*
X104381429Y-128877143D01*
X104310001Y-128805714D01*
X105738572Y-127448571D02*
X106667143Y-127448571D01*
X106167143Y-128020000D01*
X106381429Y-128020000D01*
X106524286Y-128091429D01*
X106595715Y-128162857D01*
X106667143Y-128305714D01*
X106667143Y-128662857D01*
X106595715Y-128805714D01*
X106524286Y-128877143D01*
X106381429Y-128948571D01*
X105952857Y-128948571D01*
X105810000Y-128877143D01*
X105738572Y-128805714D01*
X107595714Y-127448571D02*
X107738571Y-127448571D01*
X107881428Y-127520000D01*
X107952857Y-127591429D01*
X108024286Y-127734286D01*
X108095714Y-128020000D01*
X108095714Y-128377143D01*
X108024286Y-128662857D01*
X107952857Y-128805714D01*
X107881428Y-128877143D01*
X107738571Y-128948571D01*
X107595714Y-128948571D01*
X107452857Y-128877143D01*
X107381428Y-128805714D01*
X107310000Y-128662857D01*
X107238571Y-128377143D01*
X107238571Y-128020000D01*
X107310000Y-127734286D01*
X107381428Y-127591429D01*
X107452857Y-127520000D01*
X107595714Y-127448571D01*
X109381428Y-127448571D02*
X109095714Y-127448571D01*
X108952857Y-127520000D01*
X108881428Y-127591429D01*
X108738571Y-127805714D01*
X108667142Y-128091429D01*
X108667142Y-128662857D01*
X108738571Y-128805714D01*
X108809999Y-128877143D01*
X108952857Y-128948571D01*
X109238571Y-128948571D01*
X109381428Y-128877143D01*
X109452857Y-128805714D01*
X109524285Y-128662857D01*
X109524285Y-128305714D01*
X109452857Y-128162857D01*
X109381428Y-128091429D01*
X109238571Y-128020000D01*
X108952857Y-128020000D01*
X108809999Y-128091429D01*
X108738571Y-128162857D01*
X108667142Y-128305714D01*
X110167142Y-128162857D02*
X110667142Y-128162857D01*
X110881428Y-128948571D02*
X110167142Y-128948571D01*
X110167142Y-127448571D01*
X110881428Y-127448571D01*
X112595713Y-128520000D02*
X113309999Y-128520000D01*
X112452856Y-128948571D02*
X112952856Y-127448571D01*
X113452856Y-128948571D01*
X113952856Y-128948571D02*
X113952856Y-127448571D01*
X114309999Y-127448571D01*
X114524284Y-127520000D01*
X114667142Y-127662857D01*
X114738570Y-127805714D01*
X114809999Y-128091429D01*
X114809999Y-128305714D01*
X114738570Y-128591429D01*
X114667142Y-128734286D01*
X114524284Y-128877143D01*
X114309999Y-128948571D01*
X113952856Y-128948571D01*
X116309999Y-128805714D02*
X116238570Y-128877143D01*
X116024284Y-128948571D01*
X115881427Y-128948571D01*
X115667142Y-128877143D01*
X115524284Y-128734286D01*
X115452856Y-128591429D01*
X115381427Y-128305714D01*
X115381427Y-128091429D01*
X115452856Y-127805714D01*
X115524284Y-127662857D01*
X115667142Y-127520000D01*
X115881427Y-127448571D01*
X116024284Y-127448571D01*
X116238570Y-127520000D01*
X116309999Y-127591429D01*
X118095713Y-127948571D02*
X118095713Y-129448571D01*
X118095713Y-128020000D02*
X118238570Y-127948571D01*
X118524284Y-127948571D01*
X118667141Y-128020000D01*
X118738570Y-128091429D01*
X118809999Y-128234286D01*
X118809999Y-128662857D01*
X118738570Y-128805714D01*
X118667141Y-128877143D01*
X118524284Y-128948571D01*
X118238570Y-128948571D01*
X118095713Y-128877143D01*
X119452856Y-128948571D02*
X119452856Y-127448571D01*
X119452856Y-128162857D02*
X120309999Y-128162857D01*
X120309999Y-128948571D02*
X120309999Y-127448571D01*
X120952856Y-128520000D02*
X121667142Y-128520000D01*
X120809999Y-128948571D02*
X121309999Y-127448571D01*
X121809999Y-128948571D01*
X122095713Y-127448571D02*
X122952856Y-127448571D01*
X122524285Y-128948571D02*
X122524285Y-127448571D01*
X124595713Y-128377143D02*
X125738570Y-128377143D01*
X128238570Y-127948571D02*
X128238570Y-129162857D01*
X128167141Y-129305714D01*
X128095713Y-129377143D01*
X127952856Y-129448571D01*
X127738570Y-129448571D01*
X127595713Y-129377143D01*
X128238570Y-128877143D02*
X128095713Y-128948571D01*
X127809999Y-128948571D01*
X127667141Y-128877143D01*
X127595713Y-128805714D01*
X127524284Y-128662857D01*
X127524284Y-128234286D01*
X127595713Y-128091429D01*
X127667141Y-128020000D01*
X127809999Y-127948571D01*
X128095713Y-127948571D01*
X128238570Y-128020000D01*
X128952856Y-128948571D02*
X128952856Y-127948571D01*
X128952856Y-127448571D02*
X128881427Y-127520000D01*
X128952856Y-127591429D01*
X129024284Y-127520000D01*
X128952856Y-127448571D01*
X128952856Y-127591429D01*
X129452856Y-127948571D02*
X130024285Y-127948571D01*
X129667142Y-127448571D02*
X129667142Y-128734286D01*
X129738570Y-128877143D01*
X129881428Y-128948571D01*
X130024285Y-128948571D01*
X130524285Y-128948571D02*
X130524285Y-127448571D01*
X131167142Y-128948571D02*
X131167142Y-128162857D01*
X131095713Y-128020000D01*
X130952856Y-127948571D01*
X130738571Y-127948571D01*
X130595713Y-128020000D01*
X130524285Y-128091429D01*
X132524285Y-127948571D02*
X132524285Y-128948571D01*
X131881428Y-127948571D02*
X131881428Y-128734286D01*
X131952856Y-128877143D01*
X132095714Y-128948571D01*
X132309999Y-128948571D01*
X132452856Y-128877143D01*
X132524285Y-128805714D01*
X133238571Y-128948571D02*
X133238571Y-127448571D01*
X133238571Y-128020000D02*
X133381428Y-127948571D01*
X133667142Y-127948571D01*
X133809999Y-128020000D01*
X133881428Y-128091429D01*
X133952857Y-128234286D01*
X133952857Y-128662857D01*
X133881428Y-128805714D01*
X133809999Y-128877143D01*
X133667142Y-128948571D01*
X133381428Y-128948571D01*
X133238571Y-128877143D01*
X134595714Y-128805714D02*
X134667142Y-128877143D01*
X134595714Y-128948571D01*
X134524285Y-128877143D01*
X134595714Y-128805714D01*
X134595714Y-128948571D01*
X135952857Y-128877143D02*
X135810000Y-128948571D01*
X135524286Y-128948571D01*
X135381428Y-128877143D01*
X135310000Y-128805714D01*
X135238571Y-128662857D01*
X135238571Y-128234286D01*
X135310000Y-128091429D01*
X135381428Y-128020000D01*
X135524286Y-127948571D01*
X135810000Y-127948571D01*
X135952857Y-128020000D01*
X136810000Y-128948571D02*
X136667142Y-128877143D01*
X136595714Y-128805714D01*
X136524285Y-128662857D01*
X136524285Y-128234286D01*
X136595714Y-128091429D01*
X136667142Y-128020000D01*
X136810000Y-127948571D01*
X137024285Y-127948571D01*
X137167142Y-128020000D01*
X137238571Y-128091429D01*
X137310000Y-128234286D01*
X137310000Y-128662857D01*
X137238571Y-128805714D01*
X137167142Y-128877143D01*
X137024285Y-128948571D01*
X136810000Y-128948571D01*
X137952857Y-128948571D02*
X137952857Y-127948571D01*
X137952857Y-128091429D02*
X138024285Y-128020000D01*
X138167143Y-127948571D01*
X138381428Y-127948571D01*
X138524285Y-128020000D01*
X138595714Y-128162857D01*
X138595714Y-128948571D01*
X138595714Y-128162857D02*
X138667143Y-128020000D01*
X138810000Y-127948571D01*
X139024285Y-127948571D01*
X139167143Y-128020000D01*
X139238571Y-128162857D01*
X139238571Y-128948571D01*
X141024285Y-127377143D02*
X139738571Y-129305714D01*
X141524286Y-128948571D02*
X141524286Y-127448571D01*
X141667143Y-128377143D02*
X142095714Y-128948571D01*
X142095714Y-127948571D02*
X141524286Y-128520000D01*
X143310000Y-128877143D02*
X143167143Y-128948571D01*
X142881429Y-128948571D01*
X142738572Y-128877143D01*
X142667143Y-128734286D01*
X142667143Y-128162857D01*
X142738572Y-128020000D01*
X142881429Y-127948571D01*
X143167143Y-127948571D01*
X143310000Y-128020000D01*
X143381429Y-128162857D01*
X143381429Y-128305714D01*
X142667143Y-128448571D01*
X144238572Y-128948571D02*
X144095714Y-128877143D01*
X144024286Y-128734286D01*
X144024286Y-127448571D01*
X145452857Y-127948571D02*
X145452857Y-128948571D01*
X144810000Y-127948571D02*
X144810000Y-128734286D01*
X144881428Y-128877143D01*
X145024286Y-128948571D01*
X145238571Y-128948571D01*
X145381428Y-128877143D01*
X145452857Y-128805714D01*
X146952857Y-128948571D02*
X146095714Y-128948571D01*
X146524286Y-128948571D02*
X146524286Y-127448571D01*
X146381429Y-127662857D01*
X146238571Y-127805714D01*
X146095714Y-127877143D01*
X147524285Y-127591429D02*
X147595714Y-127520000D01*
X147738571Y-127448571D01*
X148095714Y-127448571D01*
X148238571Y-127520000D01*
X148310000Y-127591429D01*
X148381428Y-127734286D01*
X148381428Y-127877143D01*
X148310000Y-128091429D01*
X147452857Y-128948571D01*
X148381428Y-128948571D01*
X149667142Y-127948571D02*
X149667142Y-128948571D01*
X149309999Y-127377143D02*
X148952856Y-128448571D01*
X149881428Y-128448571D01*
X151524284Y-127377143D02*
X150238570Y-129305714D01*
X152024285Y-128948571D02*
X152024285Y-127448571D01*
X152024285Y-128020000D02*
X152167142Y-127948571D01*
X152452856Y-127948571D01*
X152595713Y-128020000D01*
X152667142Y-128091429D01*
X152738571Y-128234286D01*
X152738571Y-128662857D01*
X152667142Y-128805714D01*
X152595713Y-128877143D01*
X152452856Y-128948571D01*
X152167142Y-128948571D01*
X152024285Y-128877143D01*
X153595714Y-128948571D02*
X153452856Y-128877143D01*
X153381428Y-128805714D01*
X153309999Y-128662857D01*
X153309999Y-128234286D01*
X153381428Y-128091429D01*
X153452856Y-128020000D01*
X153595714Y-127948571D01*
X153809999Y-127948571D01*
X153952856Y-128020000D01*
X154024285Y-128091429D01*
X154095714Y-128234286D01*
X154095714Y-128662857D01*
X154024285Y-128805714D01*
X153952856Y-128877143D01*
X153809999Y-128948571D01*
X153595714Y-128948571D01*
X154738571Y-128948571D02*
X154738571Y-127948571D01*
X154738571Y-128091429D02*
X154809999Y-128020000D01*
X154952857Y-127948571D01*
X155167142Y-127948571D01*
X155309999Y-128020000D01*
X155381428Y-128162857D01*
X155381428Y-128948571D01*
X155381428Y-128162857D02*
X155452857Y-128020000D01*
X155595714Y-127948571D01*
X155809999Y-127948571D01*
X155952857Y-128020000D01*
X156024285Y-128162857D01*
X156024285Y-128948571D01*
X157381428Y-128948571D02*
X157381428Y-128162857D01*
X157309999Y-128020000D01*
X157167142Y-127948571D01*
X156881428Y-127948571D01*
X156738571Y-128020000D01*
X157381428Y-128877143D02*
X157238571Y-128948571D01*
X156881428Y-128948571D01*
X156738571Y-128877143D01*
X156667142Y-128734286D01*
X156667142Y-128591429D01*
X156738571Y-128448571D01*
X156881428Y-128377143D01*
X157238571Y-128377143D01*
X157381428Y-128305714D01*
X158095714Y-127948571D02*
X158095714Y-128948571D01*
X158095714Y-128091429D02*
X158167142Y-128020000D01*
X158310000Y-127948571D01*
X158524285Y-127948571D01*
X158667142Y-128020000D01*
X158738571Y-128162857D01*
X158738571Y-128948571D01*
X159310000Y-127948571D02*
X160095714Y-127948571D01*
X159310000Y-128948571D01*
X160095714Y-128948571D01*
X154714285Y-113832143D02*
X154928571Y-113903571D01*
X155285714Y-113903571D01*
X155428571Y-113832143D01*
X155500000Y-113760714D01*
X155571428Y-113617857D01*
X155571428Y-113475000D01*
X155500000Y-113332143D01*
X155428571Y-113260714D01*
X155285714Y-113189286D01*
X155000000Y-113117857D01*
X154857142Y-113046429D01*
X154785714Y-112975000D01*
X154714285Y-112832143D01*
X154714285Y-112689286D01*
X154785714Y-112546429D01*
X154857142Y-112475000D01*
X155000000Y-112403571D01*
X155357142Y-112403571D01*
X155571428Y-112475000D01*
X156214285Y-113903571D02*
X156214285Y-112403571D01*
X157714285Y-112475000D02*
X157571428Y-112403571D01*
X157357142Y-112403571D01*
X157142857Y-112475000D01*
X156999999Y-112617857D01*
X156928571Y-112760714D01*
X156857142Y-113046429D01*
X156857142Y-113260714D01*
X156928571Y-113546429D01*
X156999999Y-113689286D01*
X157142857Y-113832143D01*
X157357142Y-113903571D01*
X157499999Y-113903571D01*
X157714285Y-113832143D01*
X157785714Y-113760714D01*
X157785714Y-113260714D01*
X157499999Y-113260714D01*
X158071428Y-114046429D02*
X159214285Y-114046429D01*
X159571428Y-113903571D02*
X159571428Y-112403571D01*
X160285714Y-113903571D02*
X160285714Y-112403571D01*
X161142857Y-113903571D01*
X161142857Y-112403571D01*
X158071428Y-115025000D02*
X157928571Y-114953571D01*
X157714285Y-114953571D01*
X157500000Y-115025000D01*
X157357142Y-115167857D01*
X157285714Y-115310714D01*
X157214285Y-115596429D01*
X157214285Y-115810714D01*
X157285714Y-116096429D01*
X157357142Y-116239286D01*
X157500000Y-116382143D01*
X157714285Y-116453571D01*
X157857142Y-116453571D01*
X158071428Y-116382143D01*
X158142857Y-116310714D01*
X158142857Y-115810714D01*
X157857142Y-115810714D01*
X158785714Y-116453571D02*
X158785714Y-114953571D01*
X159642857Y-116453571D01*
X159642857Y-114953571D01*
X160357143Y-116453571D02*
X160357143Y-114953571D01*
X160714286Y-114953571D01*
X160928571Y-115025000D01*
X161071429Y-115167857D01*
X161142857Y-115310714D01*
X161214286Y-115596429D01*
X161214286Y-115810714D01*
X161142857Y-116096429D01*
X161071429Y-116239286D01*
X160928571Y-116382143D01*
X160714286Y-116453571D01*
X160357143Y-116453571D01*
D12*
X165000000Y-100000000D02*
X100000000Y-100000000D01*
X165000000Y-130000000D02*
X165000000Y-100000000D01*
X100000000Y-130000000D02*
X165000000Y-130000000D01*
X100000000Y-100000000D02*
X100000000Y-130000000D01*
D13*
X126771429Y-119988095D02*
X125271429Y-120321428D01*
X126771429Y-120654762D01*
X125414286Y-121559524D02*
X125342857Y-121511905D01*
X125271429Y-121369048D01*
X125271429Y-121273810D01*
X125342857Y-121130952D01*
X125485714Y-121035714D01*
X125628571Y-120988095D01*
X125914286Y-120940476D01*
X126128571Y-120940476D01*
X126414286Y-120988095D01*
X126557143Y-121035714D01*
X126700000Y-121130952D01*
X126771429Y-121273810D01*
X126771429Y-121369048D01*
X126700000Y-121511905D01*
X126628571Y-121559524D01*
X125414286Y-122559524D02*
X125342857Y-122511905D01*
X125271429Y-122369048D01*
X125271429Y-122273810D01*
X125342857Y-122130952D01*
X125485714Y-122035714D01*
X125628571Y-121988095D01*
X125914286Y-121940476D01*
X126128571Y-121940476D01*
X126414286Y-121988095D01*
X126557143Y-122035714D01*
X126700000Y-122130952D01*
X126771429Y-122273810D01*
X126771429Y-122369048D01*
X126700000Y-122511905D01*
X126628571Y-122559524D01*
X126057143Y-123321429D02*
X125985714Y-123464286D01*
X125914286Y-123511905D01*
X125771429Y-123559524D01*
X125557143Y-123559524D01*
X125414286Y-123511905D01*
X125342857Y-123464286D01*
X125271429Y-123369048D01*
X125271429Y-122988095D01*
X126771429Y-122988095D01*
X126771429Y-123321429D01*
X126700000Y-123416667D01*
X126628571Y-123464286D01*
X126485714Y-123511905D01*
X126342857Y-123511905D01*
X126200000Y-123464286D01*
X126128571Y-123416667D01*
X126057143Y-123321429D01*
X126057143Y-122988095D01*
X123557143Y-122369048D02*
X123485714Y-122511905D01*
X123414286Y-122559524D01*
X123271429Y-122607143D01*
X123057143Y-122607143D01*
X122914286Y-122559524D01*
X122842857Y-122511905D01*
X122771429Y-122416667D01*
X122771429Y-122035714D01*
X124271429Y-122035714D01*
X124271429Y-122369048D01*
X124200000Y-122464286D01*
X124128571Y-122511905D01*
X123985714Y-122559524D01*
X123842857Y-122559524D01*
X123700000Y-122511905D01*
X123628571Y-122464286D01*
X123557143Y-122369048D01*
X123557143Y-122035714D01*
X122771429Y-123559524D02*
X122771429Y-122988095D01*
X122771429Y-123273809D02*
X124271429Y-123273809D01*
X124057143Y-123178571D01*
X123914286Y-123083333D01*
X123842857Y-122988095D01*
X121057143Y-122369048D02*
X120985714Y-122511905D01*
X120914286Y-122559524D01*
X120771429Y-122607143D01*
X120557143Y-122607143D01*
X120414286Y-122559524D01*
X120342857Y-122511905D01*
X120271429Y-122416667D01*
X120271429Y-122035714D01*
X121771429Y-122035714D01*
X121771429Y-122369048D01*
X121700000Y-122464286D01*
X121628571Y-122511905D01*
X121485714Y-122559524D01*
X121342857Y-122559524D01*
X121200000Y-122511905D01*
X121128571Y-122464286D01*
X121057143Y-122369048D01*
X121057143Y-122035714D01*
X121628571Y-122988095D02*
X121700000Y-123035714D01*
X121771429Y-123130952D01*
X121771429Y-123369048D01*
X121700000Y-123464286D01*
X121628571Y-123511905D01*
X121485714Y-123559524D01*
X121342857Y-123559524D01*
X121128571Y-123511905D01*
X120271429Y-122940476D01*
X120271429Y-123559524D01*
X118557143Y-122369048D02*
X118485714Y-122511905D01*
X118414286Y-122559524D01*
X118271429Y-122607143D01*
X118057143Y-122607143D01*
X117914286Y-122559524D01*
X117842857Y-122511905D01*
X117771429Y-122416667D01*
X117771429Y-122035714D01*
X119271429Y-122035714D01*
X119271429Y-122369048D01*
X119200000Y-122464286D01*
X119128571Y-122511905D01*
X118985714Y-122559524D01*
X118842857Y-122559524D01*
X118700000Y-122511905D01*
X118628571Y-122464286D01*
X118557143Y-122369048D01*
X118557143Y-122035714D01*
X119271429Y-122940476D02*
X119271429Y-123559524D01*
X118700000Y-123226190D01*
X118700000Y-123369048D01*
X118628571Y-123464286D01*
X118557143Y-123511905D01*
X118414286Y-123559524D01*
X118057143Y-123559524D01*
X117914286Y-123511905D01*
X117842857Y-123464286D01*
X117771429Y-123369048D01*
X117771429Y-123083333D01*
X117842857Y-122988095D01*
X117914286Y-122940476D01*
X116057143Y-122369048D02*
X115985714Y-122511905D01*
X115914286Y-122559524D01*
X115771429Y-122607143D01*
X115557143Y-122607143D01*
X115414286Y-122559524D01*
X115342857Y-122511905D01*
X115271429Y-122416667D01*
X115271429Y-122035714D01*
X116771429Y-122035714D01*
X116771429Y-122369048D01*
X116700000Y-122464286D01*
X116628571Y-122511905D01*
X116485714Y-122559524D01*
X116342857Y-122559524D01*
X116200000Y-122511905D01*
X116128571Y-122464286D01*
X116057143Y-122369048D01*
X116057143Y-122035714D01*
X116271429Y-123464286D02*
X115271429Y-123464286D01*
X116842857Y-123226190D02*
X115771429Y-122988095D01*
X115771429Y-123607143D01*
X113557143Y-122369048D02*
X113485714Y-122511905D01*
X113414286Y-122559524D01*
X113271429Y-122607143D01*
X113057143Y-122607143D01*
X112914286Y-122559524D01*
X112842857Y-122511905D01*
X112771429Y-122416667D01*
X112771429Y-122035714D01*
X114271429Y-122035714D01*
X114271429Y-122369048D01*
X114200000Y-122464286D01*
X114128571Y-122511905D01*
X113985714Y-122559524D01*
X113842857Y-122559524D01*
X113700000Y-122511905D01*
X113628571Y-122464286D01*
X113557143Y-122369048D01*
X113557143Y-122035714D01*
X114271429Y-123511905D02*
X114271429Y-123035714D01*
X113557143Y-122988095D01*
X113628571Y-123035714D01*
X113700000Y-123130952D01*
X113700000Y-123369048D01*
X113628571Y-123464286D01*
X113557143Y-123511905D01*
X113414286Y-123559524D01*
X113057143Y-123559524D01*
X112914286Y-123511905D01*
X112842857Y-123464286D01*
X112771429Y-123369048D01*
X112771429Y-123130952D01*
X112842857Y-123035714D01*
X112914286Y-122988095D01*
X111057143Y-122369048D02*
X110985714Y-122511905D01*
X110914286Y-122559524D01*
X110771429Y-122607143D01*
X110557143Y-122607143D01*
X110414286Y-122559524D01*
X110342857Y-122511905D01*
X110271429Y-122416667D01*
X110271429Y-122035714D01*
X111771429Y-122035714D01*
X111771429Y-122369048D01*
X111700000Y-122464286D01*
X111628571Y-122511905D01*
X111485714Y-122559524D01*
X111342857Y-122559524D01*
X111200000Y-122511905D01*
X111128571Y-122464286D01*
X111057143Y-122369048D01*
X111057143Y-122035714D01*
X111771429Y-123464286D02*
X111771429Y-123273809D01*
X111700000Y-123178571D01*
X111628571Y-123130952D01*
X111414286Y-123035714D01*
X111128571Y-122988095D01*
X110557143Y-122988095D01*
X110414286Y-123035714D01*
X110342857Y-123083333D01*
X110271429Y-123178571D01*
X110271429Y-123369048D01*
X110342857Y-123464286D01*
X110414286Y-123511905D01*
X110557143Y-123559524D01*
X110914286Y-123559524D01*
X111057143Y-123511905D01*
X111128571Y-123464286D01*
X111200000Y-123369048D01*
X111200000Y-123178571D01*
X111128571Y-123083333D01*
X111057143Y-123035714D01*
X110914286Y-122988095D01*
X108557143Y-122369048D02*
X108485714Y-122511905D01*
X108414286Y-122559524D01*
X108271429Y-122607143D01*
X108057143Y-122607143D01*
X107914286Y-122559524D01*
X107842857Y-122511905D01*
X107771429Y-122416667D01*
X107771429Y-122035714D01*
X109271429Y-122035714D01*
X109271429Y-122369048D01*
X109200000Y-122464286D01*
X109128571Y-122511905D01*
X108985714Y-122559524D01*
X108842857Y-122559524D01*
X108700000Y-122511905D01*
X108628571Y-122464286D01*
X108557143Y-122369048D01*
X108557143Y-122035714D01*
X109271429Y-122940476D02*
X109271429Y-123607143D01*
X107771429Y-123178571D01*
X106057143Y-122369048D02*
X105985714Y-122511905D01*
X105914286Y-122559524D01*
X105771429Y-122607143D01*
X105557143Y-122607143D01*
X105414286Y-122559524D01*
X105342857Y-122511905D01*
X105271429Y-122416667D01*
X105271429Y-122035714D01*
X106771429Y-122035714D01*
X106771429Y-122369048D01*
X106700000Y-122464286D01*
X106628571Y-122511905D01*
X106485714Y-122559524D01*
X106342857Y-122559524D01*
X106200000Y-122511905D01*
X106128571Y-122464286D01*
X106057143Y-122369048D01*
X106057143Y-122035714D01*
X106128571Y-123178571D02*
X106200000Y-123083333D01*
X106271429Y-123035714D01*
X106414286Y-122988095D01*
X106485714Y-122988095D01*
X106628571Y-123035714D01*
X106700000Y-123083333D01*
X106771429Y-123178571D01*
X106771429Y-123369048D01*
X106700000Y-123464286D01*
X106628571Y-123511905D01*
X106485714Y-123559524D01*
X106414286Y-123559524D01*
X106271429Y-123511905D01*
X106200000Y-123464286D01*
X106128571Y-123369048D01*
X106128571Y-123178571D01*
X106057143Y-123083333D01*
X105985714Y-123035714D01*
X105842857Y-122988095D01*
X105557143Y-122988095D01*
X105414286Y-123035714D01*
X105342857Y-123083333D01*
X105271429Y-123178571D01*
X105271429Y-123369048D01*
X105342857Y-123464286D01*
X105414286Y-123511905D01*
X105557143Y-123559524D01*
X105842857Y-123559524D01*
X105985714Y-123511905D01*
X106057143Y-123464286D01*
X106128571Y-123369048D01*
X104200000Y-121464286D02*
X104271429Y-121369048D01*
X104271429Y-121226191D01*
X104200000Y-121083333D01*
X104057143Y-120988095D01*
X103914286Y-120940476D01*
X103628571Y-120892857D01*
X103414286Y-120892857D01*
X103128571Y-120940476D01*
X102985714Y-120988095D01*
X102842857Y-121083333D01*
X102771429Y-121226191D01*
X102771429Y-121321429D01*
X102842857Y-121464286D01*
X102914286Y-121511905D01*
X103414286Y-121511905D01*
X103414286Y-121321429D01*
X102771429Y-121940476D02*
X104271429Y-121940476D01*
X102771429Y-122511905D01*
X104271429Y-122511905D01*
X102771429Y-122988095D02*
X104271429Y-122988095D01*
X104271429Y-123226190D01*
X104200000Y-123369048D01*
X104057143Y-123464286D01*
X103914286Y-123511905D01*
X103628571Y-123559524D01*
X103414286Y-123559524D01*
X103128571Y-123511905D01*
X102985714Y-123464286D01*
X102842857Y-123369048D01*
X102771429Y-123226190D01*
X102771429Y-122988095D01*
X126771429Y-113945238D02*
X125271429Y-114278571D01*
X126771429Y-114611905D01*
X125414286Y-115516667D02*
X125342857Y-115469048D01*
X125271429Y-115326191D01*
X125271429Y-115230953D01*
X125342857Y-115088095D01*
X125485714Y-114992857D01*
X125628571Y-114945238D01*
X125914286Y-114897619D01*
X126128571Y-114897619D01*
X126414286Y-114945238D01*
X126557143Y-114992857D01*
X126700000Y-115088095D01*
X126771429Y-115230953D01*
X126771429Y-115326191D01*
X126700000Y-115469048D01*
X126628571Y-115516667D01*
X125414286Y-116516667D02*
X125342857Y-116469048D01*
X125271429Y-116326191D01*
X125271429Y-116230953D01*
X125342857Y-116088095D01*
X125485714Y-115992857D01*
X125628571Y-115945238D01*
X125914286Y-115897619D01*
X126128571Y-115897619D01*
X126414286Y-115945238D01*
X126557143Y-115992857D01*
X126700000Y-116088095D01*
X126771429Y-116230953D01*
X126771429Y-116326191D01*
X126700000Y-116469048D01*
X126628571Y-116516667D01*
X125700000Y-116897619D02*
X125700000Y-117373810D01*
X125271429Y-116802381D02*
X126771429Y-117135714D01*
X125271429Y-117469048D01*
X123200000Y-114040476D02*
X123200000Y-114516667D01*
X122771429Y-113945238D02*
X124271429Y-114278571D01*
X122771429Y-114611905D01*
X122771429Y-115469048D02*
X122771429Y-114897619D01*
X122771429Y-115183333D02*
X124271429Y-115183333D01*
X124057143Y-115088095D01*
X123914286Y-114992857D01*
X123842857Y-114897619D01*
X120700000Y-114040476D02*
X120700000Y-114516667D01*
X120271429Y-113945238D02*
X121771429Y-114278571D01*
X120271429Y-114611905D01*
X121628571Y-114897619D02*
X121700000Y-114945238D01*
X121771429Y-115040476D01*
X121771429Y-115278572D01*
X121700000Y-115373810D01*
X121628571Y-115421429D01*
X121485714Y-115469048D01*
X121342857Y-115469048D01*
X121128571Y-115421429D01*
X120271429Y-114850000D01*
X120271429Y-115469048D01*
X118200000Y-114040476D02*
X118200000Y-114516667D01*
X117771429Y-113945238D02*
X119271429Y-114278571D01*
X117771429Y-114611905D01*
X119271429Y-114850000D02*
X119271429Y-115469048D01*
X118700000Y-115135714D01*
X118700000Y-115278572D01*
X118628571Y-115373810D01*
X118557143Y-115421429D01*
X118414286Y-115469048D01*
X118057143Y-115469048D01*
X117914286Y-115421429D01*
X117842857Y-115373810D01*
X117771429Y-115278572D01*
X117771429Y-114992857D01*
X117842857Y-114897619D01*
X117914286Y-114850000D01*
X115700000Y-114040476D02*
X115700000Y-114516667D01*
X115271429Y-113945238D02*
X116771429Y-114278571D01*
X115271429Y-114611905D01*
X116271429Y-115373810D02*
X115271429Y-115373810D01*
X116842857Y-115135714D02*
X115771429Y-114897619D01*
X115771429Y-115516667D01*
X113200000Y-114040476D02*
X113200000Y-114516667D01*
X112771429Y-113945238D02*
X114271429Y-114278571D01*
X112771429Y-114611905D01*
X114271429Y-115421429D02*
X114271429Y-114945238D01*
X113557143Y-114897619D01*
X113628571Y-114945238D01*
X113700000Y-115040476D01*
X113700000Y-115278572D01*
X113628571Y-115373810D01*
X113557143Y-115421429D01*
X113414286Y-115469048D01*
X113057143Y-115469048D01*
X112914286Y-115421429D01*
X112842857Y-115373810D01*
X112771429Y-115278572D01*
X112771429Y-115040476D01*
X112842857Y-114945238D01*
X112914286Y-114897619D01*
X110700000Y-114040476D02*
X110700000Y-114516667D01*
X110271429Y-113945238D02*
X111771429Y-114278571D01*
X110271429Y-114611905D01*
X111771429Y-115373810D02*
X111771429Y-115183333D01*
X111700000Y-115088095D01*
X111628571Y-115040476D01*
X111414286Y-114945238D01*
X111128571Y-114897619D01*
X110557143Y-114897619D01*
X110414286Y-114945238D01*
X110342857Y-114992857D01*
X110271429Y-115088095D01*
X110271429Y-115278572D01*
X110342857Y-115373810D01*
X110414286Y-115421429D01*
X110557143Y-115469048D01*
X110914286Y-115469048D01*
X111057143Y-115421429D01*
X111128571Y-115373810D01*
X111200000Y-115278572D01*
X111200000Y-115088095D01*
X111128571Y-114992857D01*
X111057143Y-114945238D01*
X110914286Y-114897619D01*
X108200000Y-114040476D02*
X108200000Y-114516667D01*
X107771429Y-113945238D02*
X109271429Y-114278571D01*
X107771429Y-114611905D01*
X109271429Y-114850000D02*
X109271429Y-115516667D01*
X107771429Y-115088095D01*
X105700000Y-114040476D02*
X105700000Y-114516667D01*
X105271429Y-113945238D02*
X106771429Y-114278571D01*
X105271429Y-114611905D01*
X106128571Y-115088095D02*
X106200000Y-114992857D01*
X106271429Y-114945238D01*
X106414286Y-114897619D01*
X106485714Y-114897619D01*
X106628571Y-114945238D01*
X106700000Y-114992857D01*
X106771429Y-115088095D01*
X106771429Y-115278572D01*
X106700000Y-115373810D01*
X106628571Y-115421429D01*
X106485714Y-115469048D01*
X106414286Y-115469048D01*
X106271429Y-115421429D01*
X106200000Y-115373810D01*
X106128571Y-115278572D01*
X106128571Y-115088095D01*
X106057143Y-114992857D01*
X105985714Y-114945238D01*
X105842857Y-114897619D01*
X105557143Y-114897619D01*
X105414286Y-114945238D01*
X105342857Y-114992857D01*
X105271429Y-115088095D01*
X105271429Y-115278572D01*
X105342857Y-115373810D01*
X105414286Y-115421429D01*
X105557143Y-115469048D01*
X105842857Y-115469048D01*
X105985714Y-115421429D01*
X106057143Y-115373810D01*
X106128571Y-115278572D01*
X104271429Y-114278571D02*
X104271429Y-114469048D01*
X104200000Y-114564286D01*
X104057143Y-114659524D01*
X103771429Y-114707143D01*
X103271429Y-114707143D01*
X102985714Y-114659524D01*
X102842857Y-114564286D01*
X102771429Y-114469048D01*
X102771429Y-114278571D01*
X102842857Y-114183333D01*
X102985714Y-114088095D01*
X103271429Y-114040476D01*
X103771429Y-114040476D01*
X104057143Y-114088095D01*
X104200000Y-114183333D01*
X104271429Y-114278571D01*
X103557143Y-115135714D02*
X103557143Y-115469048D01*
X102771429Y-115611905D02*
X102771429Y-115135714D01*
X104271429Y-115135714D01*
X104271429Y-115611905D01*
D14*
X137500000Y-112600000D02*
X137500000Y-111900000D01*
X138700000Y-111900000D02*
X138700000Y-112600000D01*
X147400000Y-111850000D02*
X147400000Y-111150000D01*
X148600000Y-111150000D02*
X148600000Y-111850000D01*
X130705000Y-122865000D02*
X131975000Y-122865000D01*
X130705000Y-115515000D02*
X131975000Y-115515000D01*
X155615000Y-115515000D02*
X154345000Y-115515000D01*
X155615000Y-122865000D02*
X154345000Y-122865000D01*
X130705000Y-122865000D02*
X130705000Y-115515000D01*
X155615000Y-122865000D02*
X155615000Y-115515000D01*
X131975000Y-122865000D02*
X131975000Y-124150000D01*
D12*
X129000000Y-111000000D02*
X101060000Y-111000000D01*
X101060000Y-111000000D02*
X101060000Y-126494000D01*
X129000000Y-126494000D02*
X101060000Y-126494000D01*
X129000000Y-111000000D02*
X129000000Y-126494000D01*
D14*
X152350000Y-126100000D02*
X151650000Y-126100000D01*
X151650000Y-124900000D02*
X152350000Y-124900000D01*
X144475000Y-110000000D02*
X144475000Y-112000000D01*
X146525000Y-112000000D02*
X146525000Y-110000000D01*
X137933334Y-110007143D02*
X137885715Y-110054762D01*
X137742858Y-110102381D01*
X137647620Y-110102381D01*
X137504762Y-110054762D01*
X137409524Y-109959524D01*
X137361905Y-109864286D01*
X137314286Y-109673810D01*
X137314286Y-109530952D01*
X137361905Y-109340476D01*
X137409524Y-109245238D01*
X137504762Y-109150000D01*
X137647620Y-109102381D01*
X137742858Y-109102381D01*
X137885715Y-109150000D01*
X137933334Y-109197619D01*
X138790477Y-109435714D02*
X138790477Y-110102381D01*
X138552381Y-109054762D02*
X138314286Y-109769048D01*
X138933334Y-109769048D01*
X139552381Y-113464286D02*
X139552381Y-113369047D01*
X139600000Y-113273809D01*
X139647619Y-113226190D01*
X139742857Y-113178571D01*
X139933333Y-113130952D01*
X140171429Y-113130952D01*
X140361905Y-113178571D01*
X140457143Y-113226190D01*
X140504762Y-113273809D01*
X140552381Y-113369047D01*
X140552381Y-113464286D01*
X140504762Y-113559524D01*
X140457143Y-113607143D01*
X140361905Y-113654762D01*
X140171429Y-113702381D01*
X139933333Y-113702381D01*
X139742857Y-113654762D01*
X139647619Y-113607143D01*
X139600000Y-113559524D01*
X139552381Y-113464286D01*
X140457143Y-112702381D02*
X140504762Y-112654762D01*
X140552381Y-112702381D01*
X140504762Y-112750000D01*
X140457143Y-112702381D01*
X140552381Y-112702381D01*
X140552381Y-111702381D02*
X140552381Y-112273810D01*
X140552381Y-111988096D02*
X139552381Y-111988096D01*
X139695238Y-112083334D01*
X139790476Y-112178572D01*
X139838095Y-112273810D01*
X140552381Y-110511905D02*
X139885714Y-110511905D01*
X139980952Y-110511905D02*
X139933333Y-110464286D01*
X139885714Y-110369048D01*
X139885714Y-110226190D01*
X139933333Y-110130952D01*
X140028571Y-110083333D01*
X140552381Y-110083333D01*
X140028571Y-110083333D02*
X139933333Y-110035714D01*
X139885714Y-109940476D01*
X139885714Y-109797619D01*
X139933333Y-109702381D01*
X140028571Y-109654762D01*
X140552381Y-109654762D01*
X140552381Y-109178572D02*
X139552381Y-109178572D01*
X140171429Y-109083334D02*
X140552381Y-108797619D01*
X139885714Y-108797619D02*
X140266667Y-109178572D01*
X147833334Y-109457143D02*
X147785715Y-109504762D01*
X147642858Y-109552381D01*
X147547620Y-109552381D01*
X147404762Y-109504762D01*
X147309524Y-109409524D01*
X147261905Y-109314286D01*
X147214286Y-109123810D01*
X147214286Y-108980952D01*
X147261905Y-108790476D01*
X147309524Y-108695238D01*
X147404762Y-108600000D01*
X147547620Y-108552381D01*
X147642858Y-108552381D01*
X147785715Y-108600000D01*
X147833334Y-108647619D01*
X148214286Y-108647619D02*
X148261905Y-108600000D01*
X148357143Y-108552381D01*
X148595239Y-108552381D01*
X148690477Y-108600000D01*
X148738096Y-108647619D01*
X148785715Y-108742857D01*
X148785715Y-108838095D01*
X148738096Y-108980952D01*
X148166667Y-109552381D01*
X148785715Y-109552381D01*
X149452381Y-112714286D02*
X149452381Y-112619047D01*
X149500000Y-112523809D01*
X149547619Y-112476190D01*
X149642857Y-112428571D01*
X149833333Y-112380952D01*
X150071429Y-112380952D01*
X150261905Y-112428571D01*
X150357143Y-112476190D01*
X150404762Y-112523809D01*
X150452381Y-112619047D01*
X150452381Y-112714286D01*
X150404762Y-112809524D01*
X150357143Y-112857143D01*
X150261905Y-112904762D01*
X150071429Y-112952381D01*
X149833333Y-112952381D01*
X149642857Y-112904762D01*
X149547619Y-112857143D01*
X149500000Y-112809524D01*
X149452381Y-112714286D01*
X150357143Y-111952381D02*
X150404762Y-111904762D01*
X150452381Y-111952381D01*
X150404762Y-112000000D01*
X150357143Y-111952381D01*
X150452381Y-111952381D01*
X150452381Y-110952381D02*
X150452381Y-111523810D01*
X150452381Y-111238096D02*
X149452381Y-111238096D01*
X149595238Y-111333334D01*
X149690476Y-111428572D01*
X149738095Y-111523810D01*
X150452381Y-109761905D02*
X149785714Y-109761905D01*
X149880952Y-109761905D02*
X149833333Y-109714286D01*
X149785714Y-109619048D01*
X149785714Y-109476190D01*
X149833333Y-109380952D01*
X149928571Y-109333333D01*
X150452381Y-109333333D01*
X149928571Y-109333333D02*
X149833333Y-109285714D01*
X149785714Y-109190476D01*
X149785714Y-109047619D01*
X149833333Y-108952381D01*
X149928571Y-108904762D01*
X150452381Y-108904762D01*
X150452381Y-108428572D02*
X149452381Y-108428572D01*
X150071429Y-108333334D02*
X150452381Y-108047619D01*
X149785714Y-108047619D02*
X150166667Y-108428572D01*
X141176191Y-125757143D02*
X141128572Y-125804762D01*
X140985715Y-125852381D01*
X140890477Y-125852381D01*
X140747619Y-125804762D01*
X140652381Y-125709524D01*
X140604762Y-125614286D01*
X140557143Y-125423810D01*
X140557143Y-125280952D01*
X140604762Y-125090476D01*
X140652381Y-124995238D01*
X140747619Y-124900000D01*
X140890477Y-124852381D01*
X140985715Y-124852381D01*
X141128572Y-124900000D01*
X141176191Y-124947619D01*
X141557143Y-125566667D02*
X142033334Y-125566667D01*
X141461905Y-125852381D02*
X141795238Y-124852381D01*
X142128572Y-125852381D01*
X142366667Y-124852381D02*
X142985715Y-124852381D01*
X142652381Y-125233333D01*
X142795239Y-125233333D01*
X142890477Y-125280952D01*
X142938096Y-125328571D01*
X142985715Y-125423810D01*
X142985715Y-125661905D01*
X142938096Y-125757143D01*
X142890477Y-125804762D01*
X142795239Y-125852381D01*
X142509524Y-125852381D01*
X142414286Y-125804762D01*
X142366667Y-125757143D01*
X143319048Y-124852381D02*
X143938096Y-124852381D01*
X143604762Y-125233333D01*
X143747620Y-125233333D01*
X143842858Y-125280952D01*
X143890477Y-125328571D01*
X143938096Y-125423810D01*
X143938096Y-125661905D01*
X143890477Y-125757143D01*
X143842858Y-125804762D01*
X143747620Y-125852381D01*
X143461905Y-125852381D01*
X143366667Y-125804762D01*
X143319048Y-125757143D01*
X144557143Y-124852381D02*
X144652382Y-124852381D01*
X144747620Y-124900000D01*
X144795239Y-124947619D01*
X144842858Y-125042857D01*
X144890477Y-125233333D01*
X144890477Y-125471429D01*
X144842858Y-125661905D01*
X144795239Y-125757143D01*
X144747620Y-125804762D01*
X144652382Y-125852381D01*
X144557143Y-125852381D01*
X144461905Y-125804762D01*
X144414286Y-125757143D01*
X144366667Y-125661905D01*
X144319048Y-125471429D01*
X144319048Y-125233333D01*
X144366667Y-125042857D01*
X144414286Y-124947619D01*
X144461905Y-124900000D01*
X144557143Y-124852381D01*
X145747620Y-124852381D02*
X145557143Y-124852381D01*
X145461905Y-124900000D01*
X145414286Y-124947619D01*
X145319048Y-125090476D01*
X145271429Y-125280952D01*
X145271429Y-125661905D01*
X145319048Y-125757143D01*
X145366667Y-125804762D01*
X145461905Y-125852381D01*
X145652382Y-125852381D01*
X145747620Y-125804762D01*
X145795239Y-125757143D01*
X145842858Y-125661905D01*
X145842858Y-125423810D01*
X145795239Y-125328571D01*
X145747620Y-125280952D01*
X145652382Y-125233333D01*
X145461905Y-125233333D01*
X145366667Y-125280952D01*
X145319048Y-125328571D01*
X145271429Y-125423810D01*
X110173999Y-109165429D02*
X111044856Y-109165429D01*
X110609427Y-110689429D02*
X110609427Y-109165429D01*
X111407713Y-109165429D02*
X112423713Y-110689429D01*
X112423713Y-109165429D02*
X111407713Y-110689429D01*
X113512285Y-109891143D02*
X113729999Y-109963714D01*
X113802571Y-110036286D01*
X113875142Y-110181429D01*
X113875142Y-110399143D01*
X113802571Y-110544286D01*
X113729999Y-110616857D01*
X113584857Y-110689429D01*
X113004285Y-110689429D01*
X113004285Y-109165429D01*
X113512285Y-109165429D01*
X113657428Y-109238000D01*
X113729999Y-109310571D01*
X113802571Y-109455714D01*
X113802571Y-109600857D01*
X113729999Y-109746000D01*
X113657428Y-109818571D01*
X113512285Y-109891143D01*
X113004285Y-109891143D01*
X114818571Y-109165429D02*
X114963714Y-109165429D01*
X115108857Y-109238000D01*
X115181428Y-109310571D01*
X115253999Y-109455714D01*
X115326571Y-109746000D01*
X115326571Y-110108857D01*
X115253999Y-110399143D01*
X115181428Y-110544286D01*
X115108857Y-110616857D01*
X114963714Y-110689429D01*
X114818571Y-110689429D01*
X114673428Y-110616857D01*
X114600857Y-110544286D01*
X114528285Y-110399143D01*
X114455714Y-110108857D01*
X114455714Y-109746000D01*
X114528285Y-109455714D01*
X114600857Y-109310571D01*
X114673428Y-109238000D01*
X114818571Y-109165429D01*
X116778000Y-110689429D02*
X115907143Y-110689429D01*
X116342571Y-110689429D02*
X116342571Y-109165429D01*
X116197428Y-109383143D01*
X116052286Y-109528286D01*
X115907143Y-109600857D01*
X117721429Y-109165429D02*
X117866572Y-109165429D01*
X118011715Y-109238000D01*
X118084286Y-109310571D01*
X118156857Y-109455714D01*
X118229429Y-109746000D01*
X118229429Y-110108857D01*
X118156857Y-110399143D01*
X118084286Y-110544286D01*
X118011715Y-110616857D01*
X117866572Y-110689429D01*
X117721429Y-110689429D01*
X117576286Y-110616857D01*
X117503715Y-110544286D01*
X117431143Y-110399143D01*
X117358572Y-110108857D01*
X117358572Y-109746000D01*
X117431143Y-109455714D01*
X117503715Y-109310571D01*
X117576286Y-109238000D01*
X117721429Y-109165429D01*
X119100286Y-109818571D02*
X118955144Y-109746000D01*
X118882572Y-109673429D01*
X118810001Y-109528286D01*
X118810001Y-109455714D01*
X118882572Y-109310571D01*
X118955144Y-109238000D01*
X119100286Y-109165429D01*
X119390572Y-109165429D01*
X119535715Y-109238000D01*
X119608286Y-109310571D01*
X119680858Y-109455714D01*
X119680858Y-109528286D01*
X119608286Y-109673429D01*
X119535715Y-109746000D01*
X119390572Y-109818571D01*
X119100286Y-109818571D01*
X118955144Y-109891143D01*
X118882572Y-109963714D01*
X118810001Y-110108857D01*
X118810001Y-110399143D01*
X118882572Y-110544286D01*
X118955144Y-110616857D01*
X119100286Y-110689429D01*
X119390572Y-110689429D01*
X119535715Y-110616857D01*
X119608286Y-110544286D01*
X119680858Y-110399143D01*
X119680858Y-110108857D01*
X119608286Y-109963714D01*
X119535715Y-109891143D01*
X119390572Y-109818571D01*
X148833334Y-125857143D02*
X148785715Y-125904762D01*
X148642858Y-125952381D01*
X148547620Y-125952381D01*
X148404762Y-125904762D01*
X148309524Y-125809524D01*
X148261905Y-125714286D01*
X148214286Y-125523810D01*
X148214286Y-125380952D01*
X148261905Y-125190476D01*
X148309524Y-125095238D01*
X148404762Y-125000000D01*
X148547620Y-124952381D01*
X148642858Y-124952381D01*
X148785715Y-125000000D01*
X148833334Y-125047619D01*
X149785715Y-125952381D02*
X149214286Y-125952381D01*
X149500000Y-125952381D02*
X149500000Y-124952381D01*
X149404762Y-125095238D01*
X149309524Y-125190476D01*
X149214286Y-125238095D01*
X154785714Y-124952381D02*
X154880953Y-124952381D01*
X154976191Y-125000000D01*
X155023810Y-125047619D01*
X155071429Y-125142857D01*
X155119048Y-125333333D01*
X155119048Y-125571429D01*
X155071429Y-125761905D01*
X155023810Y-125857143D01*
X154976191Y-125904762D01*
X154880953Y-125952381D01*
X154785714Y-125952381D01*
X154690476Y-125904762D01*
X154642857Y-125857143D01*
X154595238Y-125761905D01*
X154547619Y-125571429D01*
X154547619Y-125333333D01*
X154595238Y-125142857D01*
X154642857Y-125047619D01*
X154690476Y-125000000D01*
X154785714Y-124952381D01*
X155547619Y-125857143D02*
X155595238Y-125904762D01*
X155547619Y-125952381D01*
X155500000Y-125904762D01*
X155547619Y-125857143D01*
X155547619Y-125952381D01*
X156547619Y-125952381D02*
X155976190Y-125952381D01*
X156261904Y-125952381D02*
X156261904Y-124952381D01*
X156166666Y-125095238D01*
X156071428Y-125190476D01*
X155976190Y-125238095D01*
X157738095Y-125952381D02*
X157738095Y-125285714D01*
X157738095Y-125380952D02*
X157785714Y-125333333D01*
X157880952Y-125285714D01*
X158023810Y-125285714D01*
X158119048Y-125333333D01*
X158166667Y-125428571D01*
X158166667Y-125952381D01*
X158166667Y-125428571D02*
X158214286Y-125333333D01*
X158309524Y-125285714D01*
X158452381Y-125285714D01*
X158547619Y-125333333D01*
X158595238Y-125428571D01*
X158595238Y-125952381D01*
X159071428Y-125952381D02*
X159071428Y-124952381D01*
X159166666Y-125571429D02*
X159452381Y-125952381D01*
X159452381Y-125285714D02*
X159071428Y-125666667D01*
X145333334Y-108357143D02*
X145285715Y-108404762D01*
X145142858Y-108452381D01*
X145047620Y-108452381D01*
X144904762Y-108404762D01*
X144809524Y-108309524D01*
X144761905Y-108214286D01*
X144714286Y-108023810D01*
X144714286Y-107880952D01*
X144761905Y-107690476D01*
X144809524Y-107595238D01*
X144904762Y-107500000D01*
X145047620Y-107452381D01*
X145142858Y-107452381D01*
X145285715Y-107500000D01*
X145333334Y-107547619D01*
X145666667Y-107452381D02*
X146285715Y-107452381D01*
X145952381Y-107833333D01*
X146095239Y-107833333D01*
X146190477Y-107880952D01*
X146238096Y-107928571D01*
X146285715Y-108023810D01*
X146285715Y-108261905D01*
X146238096Y-108357143D01*
X146190477Y-108404762D01*
X146095239Y-108452381D01*
X145809524Y-108452381D01*
X145714286Y-108404762D01*
X145666667Y-108357143D01*
X143952381Y-112642857D02*
X143952381Y-113214286D01*
X143952381Y-112928572D02*
X142952381Y-112928572D01*
X143095238Y-113023810D01*
X143190476Y-113119048D01*
X143238095Y-113214286D01*
X142952381Y-112023810D02*
X142952381Y-111928571D01*
X143000000Y-111833333D01*
X143047619Y-111785714D01*
X143142857Y-111738095D01*
X143333333Y-111690476D01*
X143571429Y-111690476D01*
X143761905Y-111738095D01*
X143857143Y-111785714D01*
X143904762Y-111833333D01*
X143952381Y-111928571D01*
X143952381Y-112023810D01*
X143904762Y-112119048D01*
X143857143Y-112166667D01*
X143761905Y-112214286D01*
X143571429Y-112261905D01*
X143333333Y-112261905D01*
X143142857Y-112214286D01*
X143047619Y-112166667D01*
X143000000Y-112119048D01*
X142952381Y-112023810D01*
X143952381Y-110500000D02*
X143285714Y-110500000D01*
X143380952Y-110500000D02*
X143333333Y-110452381D01*
X143285714Y-110357143D01*
X143285714Y-110214285D01*
X143333333Y-110119047D01*
X143428571Y-110071428D01*
X143952381Y-110071428D01*
X143428571Y-110071428D02*
X143333333Y-110023809D01*
X143285714Y-109928571D01*
X143285714Y-109785714D01*
X143333333Y-109690476D01*
X143428571Y-109642857D01*
X143952381Y-109642857D01*
X143952381Y-109166667D02*
X142952381Y-109166667D01*
X143571429Y-109071429D02*
X143952381Y-108785714D01*
X143285714Y-108785714D02*
X143666667Y-109166667D01*
M02*
