G04 #@! TF.FileFunction,Other,User*
%FSLAX46Y46*%
G04 Gerber Fmt 4.6, Leading zero omitted, Abs format (unit mm)*
G04 Created by KiCad (PCBNEW 4.0.6-e0-6349~53~ubuntu16.04.1) date Sat Mar 25 19:46:27 2017*
%MOMM*%
%LPD*%
G01*
G04 APERTURE LIST*
%ADD10C,0.100000*%
%ADD11C,0.050000*%
G04 APERTURE END LIST*
D10*
D11*
X137350000Y-113700000D02*
X137350000Y-110800000D01*
X138850000Y-113700000D02*
X138850000Y-110800000D01*
X137350000Y-113700000D02*
X138850000Y-113700000D01*
X137350000Y-110800000D02*
X138850000Y-110800000D01*
X147250000Y-112950000D02*
X147250000Y-110050000D01*
X148750000Y-112950000D02*
X148750000Y-110050000D01*
X147250000Y-112950000D02*
X148750000Y-112950000D01*
X147250000Y-110050000D02*
X148750000Y-110050000D01*
X107250000Y-103500000D02*
G75*
G03X107250000Y-103500000I-3750000J0D01*
G01*
X165250000Y-103500000D02*
G75*
G03X165250000Y-103500000I-3750000J0D01*
G01*
X130550000Y-124400000D02*
X155800000Y-124400000D01*
X130550000Y-114000000D02*
X155800000Y-114000000D01*
X130550000Y-124400000D02*
X130550000Y-114000000D01*
X155800000Y-124400000D02*
X155800000Y-114000000D01*
X153450000Y-126250000D02*
X150550000Y-126250000D01*
X153450000Y-124750000D02*
X150550000Y-124750000D01*
X153450000Y-126250000D02*
X153450000Y-124750000D01*
X150550000Y-126250000D02*
X150550000Y-124750000D01*
X144350000Y-113300000D02*
X144350000Y-108700000D01*
X146650000Y-113300000D02*
X146650000Y-108700000D01*
X144350000Y-113300000D02*
X146650000Y-113300000D01*
X144350000Y-108700000D02*
X146650000Y-108700000D01*
M02*
