G04 #@! TF.FileFunction,Copper,L1,Top,Signal*
%FSLAX46Y46*%
G04 Gerber Fmt 4.6, Leading zero omitted, Abs format (unit mm)*
G04 Created by KiCad (PCBNEW 4.0.6-e0-6349~53~ubuntu16.04.1) date Sat Mar 25 19:46:27 2017*
%MOMM*%
%LPD*%
G01*
G04 APERTURE LIST*
%ADD10C,0.100000*%
%ADD11R,0.750000X0.800000*%
%ADD12C,3.500000*%
%ADD13O,1.727200X1.727200*%
%ADD14R,1.727200X1.727200*%
%ADD15O,1.600000X2.300000*%
%ADD16C,2.000000*%
%ADD17R,0.800000X0.750000*%
%ADD18R,1.600000X1.000000*%
%ADD19R,2.032000X2.032000*%
%ADD20O,2.032000X2.032000*%
%ADD21C,1.000000*%
%ADD22C,0.600000*%
%ADD23C,1.800000*%
%ADD24C,1.000000*%
%ADD25C,0.250000*%
%ADD26C,0.350000*%
%ADD27C,0.500000*%
G04 APERTURE END LIST*
D10*
D11*
X138100000Y-113000000D03*
X138100000Y-111500000D03*
X148000000Y-112250000D03*
X148000000Y-110750000D03*
D12*
X103500000Y-103500000D03*
X161500000Y-103500000D03*
D13*
X108370000Y-102230000D03*
D14*
X108370000Y-104770000D03*
D13*
X110910000Y-102230000D03*
X110910000Y-104770000D03*
X113450000Y-102230000D03*
X113450000Y-104770000D03*
X115990000Y-102230000D03*
X115990000Y-104770000D03*
X118530000Y-102230000D03*
X118530000Y-104770000D03*
X121070000Y-102230000D03*
X121070000Y-104770000D03*
X123610000Y-102230000D03*
X123610000Y-104770000D03*
X126150000Y-102230000D03*
X126150000Y-104770000D03*
X128690000Y-102230000D03*
X128690000Y-104770000D03*
X131230000Y-102230000D03*
X131230000Y-104770000D03*
X133770000Y-102230000D03*
X133770000Y-104770000D03*
X136310000Y-102230000D03*
X136310000Y-104770000D03*
X138850000Y-102230000D03*
X138850000Y-104770000D03*
X141390000Y-102230000D03*
X141390000Y-104770000D03*
X143930000Y-102230000D03*
X143930000Y-104770000D03*
X146470000Y-102230000D03*
X146470000Y-104770000D03*
X149010000Y-102230000D03*
X149010000Y-104770000D03*
X151550000Y-102230000D03*
X151550000Y-104770000D03*
X154090000Y-102230000D03*
X154090000Y-104770000D03*
X156630000Y-102230000D03*
X156630000Y-104770000D03*
D15*
X133000000Y-123000000D03*
X135540000Y-123000000D03*
X138080000Y-123000000D03*
X140620000Y-123000000D03*
X143160000Y-123000000D03*
X145700000Y-123000000D03*
X148240000Y-123000000D03*
X150780000Y-123000000D03*
X153320000Y-123000000D03*
X153320000Y-115380000D03*
X150780000Y-115380000D03*
X148240000Y-115380000D03*
X145700000Y-115380000D03*
X143160000Y-115380000D03*
X140620000Y-115380000D03*
X138080000Y-115380000D03*
X135540000Y-115380000D03*
X133000000Y-115380000D03*
D16*
X126200000Y-112400000D03*
X123660000Y-112400000D03*
X121120000Y-112400000D03*
X118580000Y-112400000D03*
X116040000Y-112400000D03*
X113500000Y-112400000D03*
X110960000Y-112400000D03*
X108420000Y-112400000D03*
X105880000Y-112400000D03*
X103340000Y-112400000D03*
X126200000Y-125100000D03*
X123660000Y-125100000D03*
X121120000Y-125100000D03*
X118580000Y-125100000D03*
X116040000Y-125100000D03*
X113500000Y-125100000D03*
X110960000Y-125100000D03*
X108420000Y-125100000D03*
X105880000Y-125100000D03*
X103340000Y-125100000D03*
D17*
X152750000Y-125500000D03*
X151250000Y-125500000D03*
D18*
X145500000Y-112500000D03*
X145500000Y-109500000D03*
D19*
X163000000Y-115500000D03*
D20*
X163000000Y-112960000D03*
D21*
X145600000Y-107500000D03*
X143400000Y-112500000D03*
X110200000Y-117800000D03*
X112200000Y-106100000D03*
X112200000Y-122900000D03*
X115700000Y-107800000D03*
X125800000Y-120400000D03*
D22*
X138100000Y-111500000D02*
X138100000Y-109850000D01*
D23*
X138100000Y-109050000D02*
X138100000Y-109850000D01*
X138100000Y-109050000D02*
X139725000Y-107425000D01*
X145550000Y-107500000D02*
X145600000Y-107500000D01*
X153320000Y-115380000D02*
X153440000Y-115500000D01*
X153440000Y-115500000D02*
X163000000Y-115500000D01*
D24*
X145500000Y-109500000D02*
X145550000Y-109450000D01*
X145550000Y-109450000D02*
X145550000Y-107500000D01*
X145700000Y-123000000D02*
X145700000Y-122050000D01*
X145700000Y-122050000D02*
X146850000Y-120900000D01*
X150780000Y-121830000D02*
X150780000Y-123000000D01*
X149850000Y-120900000D02*
X150780000Y-121830000D01*
X146850000Y-120900000D02*
X149850000Y-120900000D01*
X138080000Y-123000000D02*
X138080000Y-123680000D01*
X138080000Y-123680000D02*
X139500000Y-125100000D01*
X139500000Y-125100000D02*
X144300000Y-125100000D01*
X144300000Y-125100000D02*
X145700000Y-123700000D01*
X145700000Y-123700000D02*
X145700000Y-123000000D01*
X139150000Y-106850000D02*
X138850000Y-106550000D01*
D23*
X139800000Y-107500000D02*
X139725000Y-107425000D01*
X139725000Y-107425000D02*
X139150000Y-106850000D01*
X156630000Y-104770000D02*
X156630000Y-105970000D01*
X155100000Y-107500000D02*
X156630000Y-105970000D01*
X149050000Y-107500000D02*
X155100000Y-107500000D01*
X149050000Y-107500000D02*
X145550000Y-107500000D01*
X145550000Y-107500000D02*
X139800000Y-107500000D01*
D24*
X138850000Y-106550000D02*
X138850000Y-104770000D01*
D22*
X145500000Y-109500000D02*
X146750000Y-109500000D01*
X146750000Y-109500000D02*
X148000000Y-110750000D01*
X150780000Y-123000000D02*
X150780000Y-125030000D01*
X150780000Y-125030000D02*
X151250000Y-125500000D01*
D25*
X119800000Y-103500000D02*
X122340000Y-103500000D01*
D24*
X119800000Y-103500000D02*
X120000000Y-103500000D01*
X118530000Y-104770000D02*
X119800000Y-103500000D01*
X122340000Y-103500000D02*
X122150000Y-103500000D01*
X122340000Y-103500000D02*
X123610000Y-102230000D01*
D25*
X114720000Y-103500000D02*
X117260000Y-103500000D01*
X117260000Y-103500000D02*
X117050000Y-103500000D01*
D24*
X117260000Y-103500000D02*
X117050000Y-103500000D01*
D25*
X140120000Y-103500000D02*
X142450000Y-103500000D01*
D24*
X142660000Y-103500000D02*
X142450000Y-103500000D01*
X142660000Y-103500000D02*
X143930000Y-102230000D01*
D25*
X140120000Y-103500000D02*
X140300000Y-103500000D01*
X147740000Y-103500000D02*
X145200000Y-103500000D01*
X145200000Y-103500000D02*
X145400000Y-103500000D01*
D24*
X145200000Y-103500000D02*
X145400000Y-103500000D01*
D25*
X155360000Y-103500000D02*
X150400000Y-103500000D01*
D24*
X150280000Y-103500000D02*
X149010000Y-102230000D01*
X150280000Y-103500000D02*
X150400000Y-103500000D01*
X156630000Y-104770000D02*
X155360000Y-103500000D01*
X155360000Y-103500000D02*
X155150000Y-103500000D01*
X149010000Y-102230000D02*
X147740000Y-103500000D01*
X147740000Y-103500000D02*
X147550000Y-103500000D01*
X143930000Y-102230000D02*
X145200000Y-103500000D01*
X138850000Y-104770000D02*
X140120000Y-103500000D01*
X140120000Y-103500000D02*
X140300000Y-103500000D01*
X118530000Y-104770000D02*
X117260000Y-103500000D01*
X113450000Y-102230000D02*
X114720000Y-103500000D01*
X114720000Y-103500000D02*
X114900000Y-103500000D01*
X145500000Y-112500000D02*
X143400000Y-112500000D01*
X105350000Y-117800000D02*
X110200000Y-117800000D01*
X108250000Y-110050000D02*
X112200000Y-106100000D01*
X101250000Y-113700000D02*
X102500000Y-114950000D01*
X101250000Y-111500000D02*
X101250000Y-113700000D01*
X102700000Y-110050000D02*
X101250000Y-111500000D01*
X108250000Y-110050000D02*
X102700000Y-110050000D01*
X102500000Y-114950000D02*
X105350000Y-117800000D01*
X143160000Y-123000000D02*
X143160000Y-121490000D01*
X143160000Y-121490000D02*
X148240000Y-116410000D01*
X148240000Y-116410000D02*
X148240000Y-115380000D01*
D25*
X109650000Y-103350000D02*
X109650000Y-105350000D01*
X110400000Y-106100000D02*
X112200000Y-106100000D01*
X109650000Y-105350000D02*
X110400000Y-106100000D01*
D22*
X148000000Y-112250000D02*
X148000000Y-113500000D01*
X145500000Y-112500000D02*
X147000000Y-112500000D01*
X148240000Y-113740000D02*
X148240000Y-115380000D01*
X147000000Y-112500000D02*
X148000000Y-113500000D01*
X148000000Y-113500000D02*
X148240000Y-113740000D01*
D24*
X109650000Y-102230000D02*
X109650000Y-103350000D01*
X109650000Y-103350000D02*
X109650000Y-103250000D01*
D23*
X108370000Y-102230000D02*
X109650000Y-102230000D01*
X109650000Y-102230000D02*
X110910000Y-102230000D01*
D24*
X103340000Y-112400000D02*
X103340000Y-112690000D01*
X103340000Y-112690000D02*
X106600000Y-115950000D01*
X106600000Y-115950000D02*
X119150000Y-115950000D01*
X122650000Y-115950000D02*
X126200000Y-112400000D01*
X119150000Y-115950000D02*
X122650000Y-115950000D01*
X112200000Y-122900000D02*
X119150000Y-115950000D01*
D26*
X126260000Y-107200000D02*
X116300000Y-107200000D01*
X116300000Y-107200000D02*
X115700000Y-107800000D01*
X128690000Y-104770000D02*
X126260000Y-107200000D01*
D22*
X153320000Y-123000000D02*
X153320000Y-124930000D01*
X153320000Y-124930000D02*
X152750000Y-125500000D01*
D23*
X150780000Y-115380000D02*
X150780000Y-114570000D01*
X150780000Y-114570000D02*
X152390000Y-112960000D01*
X152390000Y-112960000D02*
X163000000Y-112960000D01*
D22*
X145700000Y-115380000D02*
X145700000Y-115400000D01*
X128710000Y-120050000D02*
X123660000Y-125100000D01*
X141050000Y-120050000D02*
X128710000Y-120050000D01*
X145700000Y-115400000D02*
X141050000Y-120050000D01*
X143160000Y-115380000D02*
X143160000Y-115440000D01*
X124580000Y-119100000D02*
X118580000Y-125100000D01*
X139500000Y-119100000D02*
X124580000Y-119100000D01*
X143160000Y-115440000D02*
X139500000Y-119100000D01*
X140620000Y-115380000D02*
X140620000Y-115230000D01*
X122990000Y-118150000D02*
X116040000Y-125100000D01*
X137700000Y-118150000D02*
X122990000Y-118150000D01*
X140620000Y-115230000D02*
X137700000Y-118150000D01*
X113500000Y-125100000D02*
X121400000Y-117200000D01*
X133720000Y-117200000D02*
X135540000Y-115380000D01*
X121400000Y-117200000D02*
X133720000Y-117200000D01*
X125800000Y-120420000D02*
X125800000Y-120400000D01*
X121120000Y-125100000D02*
X125800000Y-120420000D01*
X110960000Y-125100000D02*
X112860000Y-127000000D01*
X112860000Y-127000000D02*
X129000000Y-127000000D01*
X129000000Y-127000000D02*
X133000000Y-123000000D01*
D24*
X108420000Y-125100000D02*
X111470000Y-128150000D01*
X143850000Y-128150000D02*
X148240000Y-123760000D01*
X111470000Y-128150000D02*
X143850000Y-128150000D01*
X148240000Y-123760000D02*
X148240000Y-123000000D01*
D22*
X108420000Y-112400000D02*
X115990000Y-104830000D01*
X115990000Y-104830000D02*
X115990000Y-104770000D01*
D26*
X123660000Y-112400000D02*
X125460000Y-110600000D01*
D24*
X137600000Y-103480000D02*
X138850000Y-102230000D01*
X137600000Y-103480000D02*
X137600000Y-103700000D01*
D25*
X137600000Y-105800000D02*
X137600000Y-103700000D01*
D26*
X132800000Y-110600000D02*
X137600000Y-105800000D01*
X125460000Y-110600000D02*
X132800000Y-110600000D01*
X118580000Y-112400000D02*
X121730000Y-109250000D01*
D25*
X135050000Y-105850000D02*
X135050000Y-103490000D01*
D26*
X131650000Y-109250000D02*
X135050000Y-105850000D01*
X121730000Y-109250000D02*
X131650000Y-109250000D01*
D25*
X135050000Y-103490000D02*
X135050000Y-103700000D01*
D24*
X136310000Y-102230000D02*
X135050000Y-103490000D01*
X135050000Y-103490000D02*
X135050000Y-103700000D01*
D26*
X116040000Y-112400000D02*
X119890000Y-108550000D01*
X129990000Y-108550000D02*
X133770000Y-104770000D01*
X119890000Y-108550000D02*
X129990000Y-108550000D01*
X113500000Y-112400000D02*
X118050000Y-107850000D01*
X128150000Y-107850000D02*
X131230000Y-104770000D01*
X118050000Y-107850000D02*
X128150000Y-107850000D01*
X121120000Y-112400000D02*
X123620000Y-109900000D01*
X136310000Y-105640000D02*
X136310000Y-104770000D01*
X132050000Y-109900000D02*
X136310000Y-105640000D01*
X123620000Y-109900000D02*
X132050000Y-109900000D01*
X116810000Y-106550000D02*
X115450000Y-106550000D01*
X116810000Y-106550000D02*
X124250000Y-106550000D01*
X124250000Y-106550000D02*
X124900000Y-105900000D01*
D25*
X132300000Y-103500000D02*
X129500000Y-103500000D01*
D24*
X132500000Y-103500000D02*
X132300000Y-103500000D01*
X133770000Y-102230000D02*
X132500000Y-103500000D01*
D25*
X124900000Y-104100000D02*
X124900000Y-105900000D01*
X125500000Y-103500000D02*
X124900000Y-104100000D01*
X129500000Y-103500000D02*
X125500000Y-103500000D01*
D26*
X110960000Y-111040000D02*
X110960000Y-112400000D01*
X115450000Y-106550000D02*
X110960000Y-111040000D01*
D22*
X138080000Y-115380000D02*
X138080000Y-113020000D01*
X138080000Y-113020000D02*
X138100000Y-113000000D01*
D27*
G36*
X100366117Y-114583883D02*
X101616117Y-115833884D01*
X101616120Y-115833886D01*
X104466117Y-118683884D01*
X104728319Y-118859081D01*
X104871646Y-118954849D01*
X105350000Y-119050000D01*
X110198909Y-119050000D01*
X110447550Y-119050217D01*
X110907143Y-118860316D01*
X111259081Y-118508993D01*
X111449783Y-118049731D01*
X111450217Y-117552450D01*
X111304587Y-117200000D01*
X116132233Y-117200000D01*
X111317174Y-122015060D01*
X111140919Y-122191007D01*
X110950217Y-122650269D01*
X110949783Y-123147550D01*
X111033460Y-123350063D01*
X110613431Y-123349696D01*
X109969999Y-123615557D01*
X109689943Y-123895125D01*
X109412590Y-123617287D01*
X108769624Y-123350304D01*
X108073431Y-123349696D01*
X107429999Y-123615557D01*
X107149943Y-123895125D01*
X106872590Y-123617287D01*
X106229624Y-123350304D01*
X105533431Y-123349696D01*
X104889999Y-123615557D01*
X104523535Y-123981382D01*
X104476275Y-123969382D01*
X103345657Y-125100000D01*
X104476275Y-126230618D01*
X104523866Y-126218534D01*
X104887410Y-126582713D01*
X105530376Y-126849696D01*
X106226569Y-126850304D01*
X106870001Y-126584443D01*
X107150057Y-126304875D01*
X107427410Y-126582713D01*
X108070376Y-126849696D01*
X108402220Y-126849986D01*
X110586116Y-129033883D01*
X110991646Y-129304849D01*
X111470000Y-129400000D01*
X143850000Y-129400000D01*
X144328354Y-129304849D01*
X144733883Y-129033883D01*
X148074266Y-125693500D01*
X150092000Y-125693500D01*
X150092000Y-126025775D01*
X150207398Y-126304372D01*
X150420627Y-126517601D01*
X150699224Y-126633000D01*
X151056500Y-126633000D01*
X151246000Y-126443500D01*
X151246000Y-125504000D01*
X150281500Y-125504000D01*
X150092000Y-125693500D01*
X148074266Y-125693500D01*
X149123884Y-124643883D01*
X149146701Y-124609735D01*
X149336016Y-124483239D01*
X149517734Y-124211277D01*
X149681156Y-124454501D01*
X150172141Y-124780746D01*
X150092000Y-124974225D01*
X150092000Y-125306500D01*
X150281500Y-125496000D01*
X151246000Y-125496000D01*
X151246000Y-125476000D01*
X151254000Y-125476000D01*
X151254000Y-125496000D01*
X151274000Y-125496000D01*
X151274000Y-125504000D01*
X151254000Y-125504000D01*
X151254000Y-126443500D01*
X151443500Y-126633000D01*
X151800776Y-126633000D01*
X152006286Y-126547875D01*
X152052492Y-126579446D01*
X152350000Y-126639693D01*
X153150000Y-126639693D01*
X153427933Y-126587396D01*
X153683198Y-126423138D01*
X153854446Y-126172508D01*
X153914693Y-125875000D01*
X153914693Y-125820231D01*
X154062462Y-125672462D01*
X154125343Y-125578354D01*
X154290074Y-125331818D01*
X154370000Y-124930000D01*
X154370000Y-124513986D01*
X154416016Y-124483239D01*
X154752013Y-123980382D01*
X154870000Y-123387223D01*
X154870000Y-122612777D01*
X154752013Y-122019618D01*
X154416016Y-121516761D01*
X153913159Y-121180764D01*
X153320000Y-121062777D01*
X152726841Y-121180764D01*
X152223984Y-121516761D01*
X152042266Y-121788723D01*
X151878844Y-121545499D01*
X151372525Y-121209065D01*
X151027675Y-121111812D01*
X150784000Y-121281506D01*
X150784000Y-122996000D01*
X150804000Y-122996000D01*
X150804000Y-123004000D01*
X150784000Y-123004000D01*
X150784000Y-123024000D01*
X150776000Y-123024000D01*
X150776000Y-123004000D01*
X150756000Y-123004000D01*
X150756000Y-122996000D01*
X150776000Y-122996000D01*
X150776000Y-121281506D01*
X150532325Y-121111812D01*
X150187475Y-121209065D01*
X149681156Y-121545499D01*
X149517734Y-121788723D01*
X149336016Y-121516761D01*
X148833159Y-121180764D01*
X148240000Y-121062777D01*
X147646841Y-121180764D01*
X147143984Y-121516761D01*
X146962266Y-121788723D01*
X146798844Y-121545499D01*
X146292525Y-121209065D01*
X145947675Y-121111812D01*
X145704000Y-121281506D01*
X145704000Y-122996000D01*
X145724000Y-122996000D01*
X145724000Y-123004000D01*
X145704000Y-123004000D01*
X145704000Y-123024000D01*
X145696000Y-123024000D01*
X145696000Y-123004000D01*
X145676000Y-123004000D01*
X145676000Y-122996000D01*
X145696000Y-122996000D01*
X145696000Y-121281506D01*
X145452325Y-121111812D01*
X145248462Y-121169305D01*
X149123884Y-117293883D01*
X149394849Y-116888354D01*
X149412785Y-116798182D01*
X149426901Y-116727220D01*
X149510000Y-116602853D01*
X149683984Y-116863239D01*
X150186841Y-117199236D01*
X150780000Y-117317223D01*
X151373159Y-117199236D01*
X151876016Y-116863239D01*
X152057734Y-116591277D01*
X152221156Y-116834501D01*
X152727475Y-117170935D01*
X153072325Y-117268188D01*
X153316000Y-117098494D01*
X153316000Y-115384000D01*
X153324000Y-115384000D01*
X153324000Y-117098494D01*
X153567675Y-117268188D01*
X153912525Y-117170935D01*
X154418844Y-116834501D01*
X154757874Y-116329916D01*
X154878000Y-115734000D01*
X154878000Y-115693500D01*
X161226000Y-115693500D01*
X161226000Y-116666775D01*
X161341398Y-116945372D01*
X161554627Y-117158601D01*
X161833224Y-117274000D01*
X162806500Y-117274000D01*
X162996000Y-117084500D01*
X162996000Y-115504000D01*
X161415500Y-115504000D01*
X161226000Y-115693500D01*
X154878000Y-115693500D01*
X154878000Y-115384000D01*
X153324000Y-115384000D01*
X153316000Y-115384000D01*
X153296000Y-115384000D01*
X153296000Y-115376000D01*
X153316000Y-115376000D01*
X153316000Y-115356000D01*
X153324000Y-115356000D01*
X153324000Y-115376000D01*
X154878000Y-115376000D01*
X154878000Y-115026000D01*
X154794142Y-114610000D01*
X161226000Y-114610000D01*
X161226000Y-115306500D01*
X161415500Y-115496000D01*
X162996000Y-115496000D01*
X162996000Y-115476000D01*
X163004000Y-115476000D01*
X163004000Y-115496000D01*
X163024000Y-115496000D01*
X163024000Y-115504000D01*
X163004000Y-115504000D01*
X163004000Y-117084500D01*
X163193500Y-117274000D01*
X164166776Y-117274000D01*
X164445373Y-117158601D01*
X164658602Y-116945372D01*
X164750000Y-116724716D01*
X164750000Y-129750000D01*
X100250000Y-129750000D01*
X100250000Y-126236275D01*
X102209382Y-126236275D01*
X102289669Y-126552463D01*
X102925454Y-126843845D01*
X103624350Y-126869743D01*
X104279956Y-126626213D01*
X104390331Y-126552463D01*
X104470618Y-126236275D01*
X103340000Y-125105657D01*
X102209382Y-126236275D01*
X100250000Y-126236275D01*
X100250000Y-125384350D01*
X101570257Y-125384350D01*
X101813787Y-126039956D01*
X101887537Y-126150331D01*
X102203725Y-126230618D01*
X103334343Y-125100000D01*
X102203725Y-123969382D01*
X101887537Y-124049669D01*
X101596155Y-124685454D01*
X101570257Y-125384350D01*
X100250000Y-125384350D01*
X100250000Y-123963725D01*
X102209382Y-123963725D01*
X103340000Y-125094343D01*
X104470618Y-123963725D01*
X104390331Y-123647537D01*
X103754546Y-123356155D01*
X103055650Y-123330257D01*
X102400044Y-123573787D01*
X102289669Y-123647537D01*
X102209382Y-123963725D01*
X100250000Y-123963725D01*
X100250000Y-114410102D01*
X100366117Y-114583883D01*
X100366117Y-114583883D01*
G37*
X100366117Y-114583883D02*
X101616117Y-115833884D01*
X101616120Y-115833886D01*
X104466117Y-118683884D01*
X104728319Y-118859081D01*
X104871646Y-118954849D01*
X105350000Y-119050000D01*
X110198909Y-119050000D01*
X110447550Y-119050217D01*
X110907143Y-118860316D01*
X111259081Y-118508993D01*
X111449783Y-118049731D01*
X111450217Y-117552450D01*
X111304587Y-117200000D01*
X116132233Y-117200000D01*
X111317174Y-122015060D01*
X111140919Y-122191007D01*
X110950217Y-122650269D01*
X110949783Y-123147550D01*
X111033460Y-123350063D01*
X110613431Y-123349696D01*
X109969999Y-123615557D01*
X109689943Y-123895125D01*
X109412590Y-123617287D01*
X108769624Y-123350304D01*
X108073431Y-123349696D01*
X107429999Y-123615557D01*
X107149943Y-123895125D01*
X106872590Y-123617287D01*
X106229624Y-123350304D01*
X105533431Y-123349696D01*
X104889999Y-123615557D01*
X104523535Y-123981382D01*
X104476275Y-123969382D01*
X103345657Y-125100000D01*
X104476275Y-126230618D01*
X104523866Y-126218534D01*
X104887410Y-126582713D01*
X105530376Y-126849696D01*
X106226569Y-126850304D01*
X106870001Y-126584443D01*
X107150057Y-126304875D01*
X107427410Y-126582713D01*
X108070376Y-126849696D01*
X108402220Y-126849986D01*
X110586116Y-129033883D01*
X110991646Y-129304849D01*
X111470000Y-129400000D01*
X143850000Y-129400000D01*
X144328354Y-129304849D01*
X144733883Y-129033883D01*
X148074266Y-125693500D01*
X150092000Y-125693500D01*
X150092000Y-126025775D01*
X150207398Y-126304372D01*
X150420627Y-126517601D01*
X150699224Y-126633000D01*
X151056500Y-126633000D01*
X151246000Y-126443500D01*
X151246000Y-125504000D01*
X150281500Y-125504000D01*
X150092000Y-125693500D01*
X148074266Y-125693500D01*
X149123884Y-124643883D01*
X149146701Y-124609735D01*
X149336016Y-124483239D01*
X149517734Y-124211277D01*
X149681156Y-124454501D01*
X150172141Y-124780746D01*
X150092000Y-124974225D01*
X150092000Y-125306500D01*
X150281500Y-125496000D01*
X151246000Y-125496000D01*
X151246000Y-125476000D01*
X151254000Y-125476000D01*
X151254000Y-125496000D01*
X151274000Y-125496000D01*
X151274000Y-125504000D01*
X151254000Y-125504000D01*
X151254000Y-126443500D01*
X151443500Y-126633000D01*
X151800776Y-126633000D01*
X152006286Y-126547875D01*
X152052492Y-126579446D01*
X152350000Y-126639693D01*
X153150000Y-126639693D01*
X153427933Y-126587396D01*
X153683198Y-126423138D01*
X153854446Y-126172508D01*
X153914693Y-125875000D01*
X153914693Y-125820231D01*
X154062462Y-125672462D01*
X154125343Y-125578354D01*
X154290074Y-125331818D01*
X154370000Y-124930000D01*
X154370000Y-124513986D01*
X154416016Y-124483239D01*
X154752013Y-123980382D01*
X154870000Y-123387223D01*
X154870000Y-122612777D01*
X154752013Y-122019618D01*
X154416016Y-121516761D01*
X153913159Y-121180764D01*
X153320000Y-121062777D01*
X152726841Y-121180764D01*
X152223984Y-121516761D01*
X152042266Y-121788723D01*
X151878844Y-121545499D01*
X151372525Y-121209065D01*
X151027675Y-121111812D01*
X150784000Y-121281506D01*
X150784000Y-122996000D01*
X150804000Y-122996000D01*
X150804000Y-123004000D01*
X150784000Y-123004000D01*
X150784000Y-123024000D01*
X150776000Y-123024000D01*
X150776000Y-123004000D01*
X150756000Y-123004000D01*
X150756000Y-122996000D01*
X150776000Y-122996000D01*
X150776000Y-121281506D01*
X150532325Y-121111812D01*
X150187475Y-121209065D01*
X149681156Y-121545499D01*
X149517734Y-121788723D01*
X149336016Y-121516761D01*
X148833159Y-121180764D01*
X148240000Y-121062777D01*
X147646841Y-121180764D01*
X147143984Y-121516761D01*
X146962266Y-121788723D01*
X146798844Y-121545499D01*
X146292525Y-121209065D01*
X145947675Y-121111812D01*
X145704000Y-121281506D01*
X145704000Y-122996000D01*
X145724000Y-122996000D01*
X145724000Y-123004000D01*
X145704000Y-123004000D01*
X145704000Y-123024000D01*
X145696000Y-123024000D01*
X145696000Y-123004000D01*
X145676000Y-123004000D01*
X145676000Y-122996000D01*
X145696000Y-122996000D01*
X145696000Y-121281506D01*
X145452325Y-121111812D01*
X145248462Y-121169305D01*
X149123884Y-117293883D01*
X149394849Y-116888354D01*
X149412785Y-116798182D01*
X149426901Y-116727220D01*
X149510000Y-116602853D01*
X149683984Y-116863239D01*
X150186841Y-117199236D01*
X150780000Y-117317223D01*
X151373159Y-117199236D01*
X151876016Y-116863239D01*
X152057734Y-116591277D01*
X152221156Y-116834501D01*
X152727475Y-117170935D01*
X153072325Y-117268188D01*
X153316000Y-117098494D01*
X153316000Y-115384000D01*
X153324000Y-115384000D01*
X153324000Y-117098494D01*
X153567675Y-117268188D01*
X153912525Y-117170935D01*
X154418844Y-116834501D01*
X154757874Y-116329916D01*
X154878000Y-115734000D01*
X154878000Y-115693500D01*
X161226000Y-115693500D01*
X161226000Y-116666775D01*
X161341398Y-116945372D01*
X161554627Y-117158601D01*
X161833224Y-117274000D01*
X162806500Y-117274000D01*
X162996000Y-117084500D01*
X162996000Y-115504000D01*
X161415500Y-115504000D01*
X161226000Y-115693500D01*
X154878000Y-115693500D01*
X154878000Y-115384000D01*
X153324000Y-115384000D01*
X153316000Y-115384000D01*
X153296000Y-115384000D01*
X153296000Y-115376000D01*
X153316000Y-115376000D01*
X153316000Y-115356000D01*
X153324000Y-115356000D01*
X153324000Y-115376000D01*
X154878000Y-115376000D01*
X154878000Y-115026000D01*
X154794142Y-114610000D01*
X161226000Y-114610000D01*
X161226000Y-115306500D01*
X161415500Y-115496000D01*
X162996000Y-115496000D01*
X162996000Y-115476000D01*
X163004000Y-115476000D01*
X163004000Y-115496000D01*
X163024000Y-115496000D01*
X163024000Y-115504000D01*
X163004000Y-115504000D01*
X163004000Y-117084500D01*
X163193500Y-117274000D01*
X164166776Y-117274000D01*
X164445373Y-117158601D01*
X164658602Y-116945372D01*
X164750000Y-116724716D01*
X164750000Y-129750000D01*
X100250000Y-129750000D01*
X100250000Y-126236275D01*
X102209382Y-126236275D01*
X102289669Y-126552463D01*
X102925454Y-126843845D01*
X103624350Y-126869743D01*
X104279956Y-126626213D01*
X104390331Y-126552463D01*
X104470618Y-126236275D01*
X103340000Y-125105657D01*
X102209382Y-126236275D01*
X100250000Y-126236275D01*
X100250000Y-125384350D01*
X101570257Y-125384350D01*
X101813787Y-126039956D01*
X101887537Y-126150331D01*
X102203725Y-126230618D01*
X103334343Y-125100000D01*
X102203725Y-123969382D01*
X101887537Y-124049669D01*
X101596155Y-124685454D01*
X101570257Y-125384350D01*
X100250000Y-125384350D01*
X100250000Y-123963725D01*
X102209382Y-123963725D01*
X103340000Y-125094343D01*
X104470618Y-123963725D01*
X104390331Y-123647537D01*
X103754546Y-123356155D01*
X103055650Y-123330257D01*
X102400044Y-123573787D01*
X102289669Y-123647537D01*
X102209382Y-123963725D01*
X100250000Y-123963725D01*
X100250000Y-114410102D01*
X100366117Y-114583883D01*
G36*
X138084000Y-122996000D02*
X138104000Y-122996000D01*
X138104000Y-123004000D01*
X138084000Y-123004000D01*
X138084000Y-124718494D01*
X138327675Y-124888188D01*
X138672525Y-124790935D01*
X139178844Y-124454501D01*
X139342266Y-124211277D01*
X139523984Y-124483239D01*
X140026841Y-124819236D01*
X140620000Y-124937223D01*
X141213159Y-124819236D01*
X141716016Y-124483239D01*
X141890000Y-124222853D01*
X142063984Y-124483239D01*
X142566841Y-124819236D01*
X143160000Y-124937223D01*
X143753159Y-124819236D01*
X144256016Y-124483239D01*
X144437734Y-124211277D01*
X144601156Y-124454501D01*
X145107475Y-124790935D01*
X145367865Y-124864369D01*
X143332234Y-126900000D01*
X130584924Y-126900000D01*
X132622742Y-124862182D01*
X133000000Y-124937223D01*
X133593159Y-124819236D01*
X134096016Y-124483239D01*
X134270000Y-124222853D01*
X134443984Y-124483239D01*
X134946841Y-124819236D01*
X135540000Y-124937223D01*
X136133159Y-124819236D01*
X136636016Y-124483239D01*
X136817734Y-124211277D01*
X136981156Y-124454501D01*
X137487475Y-124790935D01*
X137832325Y-124888188D01*
X138076000Y-124718494D01*
X138076000Y-123004000D01*
X138056000Y-123004000D01*
X138056000Y-122996000D01*
X138076000Y-122996000D01*
X138076000Y-122976000D01*
X138084000Y-122976000D01*
X138084000Y-122996000D01*
X138084000Y-122996000D01*
G37*
X138084000Y-122996000D02*
X138104000Y-122996000D01*
X138104000Y-123004000D01*
X138084000Y-123004000D01*
X138084000Y-124718494D01*
X138327675Y-124888188D01*
X138672525Y-124790935D01*
X139178844Y-124454501D01*
X139342266Y-124211277D01*
X139523984Y-124483239D01*
X140026841Y-124819236D01*
X140620000Y-124937223D01*
X141213159Y-124819236D01*
X141716016Y-124483239D01*
X141890000Y-124222853D01*
X142063984Y-124483239D01*
X142566841Y-124819236D01*
X143160000Y-124937223D01*
X143753159Y-124819236D01*
X144256016Y-124483239D01*
X144437734Y-124211277D01*
X144601156Y-124454501D01*
X145107475Y-124790935D01*
X145367865Y-124864369D01*
X143332234Y-126900000D01*
X130584924Y-126900000D01*
X132622742Y-124862182D01*
X133000000Y-124937223D01*
X133593159Y-124819236D01*
X134096016Y-124483239D01*
X134270000Y-124222853D01*
X134443984Y-124483239D01*
X134946841Y-124819236D01*
X135540000Y-124937223D01*
X136133159Y-124819236D01*
X136636016Y-124483239D01*
X136817734Y-124211277D01*
X136981156Y-124454501D01*
X137487475Y-124790935D01*
X137832325Y-124888188D01*
X138076000Y-124718494D01*
X138076000Y-123004000D01*
X138056000Y-123004000D01*
X138056000Y-122996000D01*
X138076000Y-122996000D01*
X138076000Y-122976000D01*
X138084000Y-122976000D01*
X138084000Y-122996000D01*
G36*
X164750000Y-112705627D02*
X164666169Y-112284181D01*
X164283349Y-111711249D01*
X163710417Y-111328429D01*
X163034598Y-111194000D01*
X162965402Y-111194000D01*
X162382232Y-111310000D01*
X152390000Y-111310000D01*
X151758572Y-111435599D01*
X151488408Y-111616117D01*
X151223274Y-111793274D01*
X149613274Y-113403274D01*
X149299735Y-113872519D01*
X149290000Y-113866014D01*
X149290000Y-113740000D01*
X149210074Y-113338182D01*
X149050000Y-113098615D01*
X149050000Y-112990604D01*
X149079446Y-112947508D01*
X149139693Y-112650000D01*
X149139693Y-111850000D01*
X149087396Y-111572067D01*
X149046775Y-111508940D01*
X149133000Y-111300776D01*
X149133000Y-110943500D01*
X148943500Y-110754000D01*
X148004000Y-110754000D01*
X148004000Y-110774000D01*
X147996000Y-110774000D01*
X147996000Y-110754000D01*
X147056500Y-110754000D01*
X146867000Y-110943500D01*
X146867000Y-111300776D01*
X146928811Y-111450000D01*
X146823547Y-111450000D01*
X146597508Y-111295554D01*
X146300000Y-111235307D01*
X144700000Y-111235307D01*
X144621914Y-111250000D01*
X143401090Y-111250000D01*
X143152450Y-111249783D01*
X142692857Y-111439684D01*
X142340919Y-111791007D01*
X142150217Y-112250269D01*
X142149783Y-112747550D01*
X142339684Y-113207143D01*
X142671838Y-113539879D01*
X142566841Y-113560764D01*
X142063984Y-113896761D01*
X141890000Y-114157147D01*
X141716016Y-113896761D01*
X141213159Y-113560764D01*
X140620000Y-113442777D01*
X140026841Y-113560764D01*
X139523984Y-113896761D01*
X139350000Y-114157147D01*
X139176016Y-113896761D01*
X139130000Y-113866014D01*
X139130000Y-113769875D01*
X139179446Y-113697508D01*
X139239693Y-113400000D01*
X139239693Y-112600000D01*
X139187396Y-112322067D01*
X139146775Y-112258940D01*
X139233000Y-112050776D01*
X139233000Y-111693500D01*
X139043500Y-111504000D01*
X138104000Y-111504000D01*
X138104000Y-111524000D01*
X138096000Y-111524000D01*
X138096000Y-111504000D01*
X137156500Y-111504000D01*
X136967000Y-111693500D01*
X136967000Y-112050776D01*
X137052125Y-112256286D01*
X137020554Y-112302492D01*
X136960307Y-112600000D01*
X136960307Y-113400000D01*
X137012604Y-113677933D01*
X137030000Y-113704967D01*
X137030000Y-113866014D01*
X136983984Y-113896761D01*
X136810000Y-114157147D01*
X136636016Y-113896761D01*
X136133159Y-113560764D01*
X135540000Y-113442777D01*
X134946841Y-113560764D01*
X134443984Y-113896761D01*
X134270000Y-114157147D01*
X134096016Y-113896761D01*
X133593159Y-113560764D01*
X133000000Y-113442777D01*
X132406841Y-113560764D01*
X131903984Y-113896761D01*
X131567987Y-114399618D01*
X131450000Y-114992777D01*
X131450000Y-115767223D01*
X131526139Y-116150000D01*
X124217766Y-116150000D01*
X126217750Y-114150017D01*
X126546569Y-114150304D01*
X127190001Y-113884443D01*
X127682713Y-113392590D01*
X127949696Y-112749624D01*
X127950304Y-112053431D01*
X127731961Y-111525000D01*
X132800000Y-111525000D01*
X133153983Y-111454589D01*
X133454074Y-111254074D01*
X133758924Y-110949224D01*
X136967000Y-110949224D01*
X136967000Y-111306500D01*
X137156500Y-111496000D01*
X138096000Y-111496000D01*
X138096000Y-110531500D01*
X138104000Y-110531500D01*
X138104000Y-111496000D01*
X139043500Y-111496000D01*
X139233000Y-111306500D01*
X139233000Y-110949224D01*
X139117601Y-110670627D01*
X138904372Y-110457398D01*
X138625775Y-110342000D01*
X138293500Y-110342000D01*
X138104000Y-110531500D01*
X138096000Y-110531500D01*
X137906500Y-110342000D01*
X137574225Y-110342000D01*
X137295628Y-110457398D01*
X137082399Y-110670627D01*
X136967000Y-110949224D01*
X133758924Y-110949224D01*
X135014648Y-109693500D01*
X143942000Y-109693500D01*
X143942000Y-110150776D01*
X144057399Y-110429373D01*
X144270628Y-110642602D01*
X144549225Y-110758000D01*
X145306500Y-110758000D01*
X145496000Y-110568500D01*
X145496000Y-109504000D01*
X145504000Y-109504000D01*
X145504000Y-110568500D01*
X145693500Y-110758000D01*
X146450775Y-110758000D01*
X146729372Y-110642602D01*
X146867000Y-110504974D01*
X146867000Y-110556500D01*
X147056500Y-110746000D01*
X147996000Y-110746000D01*
X147996000Y-109781500D01*
X148004000Y-109781500D01*
X148004000Y-110746000D01*
X148943500Y-110746000D01*
X149133000Y-110556500D01*
X149133000Y-110199224D01*
X149017601Y-109920627D01*
X148804372Y-109707398D01*
X148525775Y-109592000D01*
X148193500Y-109592000D01*
X148004000Y-109781500D01*
X147996000Y-109781500D01*
X147806500Y-109592000D01*
X147474225Y-109592000D01*
X147195628Y-109707398D01*
X147058000Y-109845026D01*
X147058000Y-109693500D01*
X146868500Y-109504000D01*
X145504000Y-109504000D01*
X145496000Y-109504000D01*
X144131500Y-109504000D01*
X143942000Y-109693500D01*
X135014648Y-109693500D01*
X135858924Y-108849224D01*
X143942000Y-108849224D01*
X143942000Y-109306500D01*
X144131500Y-109496000D01*
X145496000Y-109496000D01*
X145496000Y-108431500D01*
X145504000Y-108431500D01*
X145504000Y-109496000D01*
X146868500Y-109496000D01*
X147058000Y-109306500D01*
X147058000Y-108849224D01*
X146942601Y-108570627D01*
X146729372Y-108357398D01*
X146450775Y-108242000D01*
X145693500Y-108242000D01*
X145504000Y-108431500D01*
X145496000Y-108431500D01*
X145306500Y-108242000D01*
X144549225Y-108242000D01*
X144270628Y-108357398D01*
X144057399Y-108570627D01*
X143942000Y-108849224D01*
X135858924Y-108849224D01*
X138254074Y-106454074D01*
X138360331Y-106295050D01*
X138475336Y-106347724D01*
X138592376Y-106371005D01*
X138846000Y-106202094D01*
X138846000Y-104774000D01*
X138826000Y-104774000D01*
X138826000Y-104766000D01*
X138846000Y-104766000D01*
X138846000Y-104746000D01*
X138854000Y-104746000D01*
X138854000Y-104766000D01*
X138874000Y-104766000D01*
X138874000Y-104774000D01*
X138854000Y-104774000D01*
X138854000Y-106202094D01*
X139107624Y-106371005D01*
X139224664Y-106347724D01*
X139799913Y-106084249D01*
X140116180Y-105743803D01*
X140249012Y-105942600D01*
X140772502Y-106292384D01*
X141390000Y-106415212D01*
X142007498Y-106292384D01*
X142530988Y-105942600D01*
X142660000Y-105749519D01*
X142789012Y-105942600D01*
X143312502Y-106292384D01*
X143930000Y-106415212D01*
X144547498Y-106292384D01*
X145070988Y-105942600D01*
X145200000Y-105749519D01*
X145329012Y-105942600D01*
X145852502Y-106292384D01*
X146470000Y-106415212D01*
X147087498Y-106292384D01*
X147610988Y-105942600D01*
X147740000Y-105749519D01*
X147869012Y-105942600D01*
X148392502Y-106292384D01*
X149010000Y-106415212D01*
X149627498Y-106292384D01*
X150150988Y-105942600D01*
X150280000Y-105749519D01*
X150409012Y-105942600D01*
X150932502Y-106292384D01*
X151550000Y-106415212D01*
X152167498Y-106292384D01*
X152690988Y-105942600D01*
X152820000Y-105749519D01*
X152949012Y-105942600D01*
X153472502Y-106292384D01*
X154090000Y-106415212D01*
X154707498Y-106292384D01*
X155230988Y-105942600D01*
X155363820Y-105743803D01*
X155680087Y-106084249D01*
X156255336Y-106347724D01*
X156372376Y-106371005D01*
X156626000Y-106202094D01*
X156626000Y-104774000D01*
X156634000Y-104774000D01*
X156634000Y-106202094D01*
X156887624Y-106371005D01*
X157004664Y-106347724D01*
X157579913Y-106084249D01*
X158010547Y-105620692D01*
X158231005Y-105027624D01*
X158062095Y-104774000D01*
X156634000Y-104774000D01*
X156626000Y-104774000D01*
X156606000Y-104774000D01*
X156606000Y-104766000D01*
X156626000Y-104766000D01*
X156626000Y-104746000D01*
X156634000Y-104746000D01*
X156634000Y-104766000D01*
X158062095Y-104766000D01*
X158231005Y-104512376D01*
X158038721Y-103995099D01*
X158999567Y-103995099D01*
X159379367Y-104914286D01*
X160082015Y-105618161D01*
X161000538Y-105999565D01*
X161995099Y-106000433D01*
X162914286Y-105620633D01*
X163618161Y-104917985D01*
X163999565Y-103999462D01*
X164000433Y-103004901D01*
X163620633Y-102085714D01*
X162917985Y-101381839D01*
X161999462Y-101000435D01*
X161004901Y-100999567D01*
X160085714Y-101379367D01*
X159381839Y-102082015D01*
X159000435Y-103000538D01*
X158999567Y-103995099D01*
X158038721Y-103995099D01*
X158010547Y-103919308D01*
X157622627Y-103501731D01*
X157770988Y-103402600D01*
X158120772Y-102879110D01*
X158243600Y-102261612D01*
X158243600Y-102198388D01*
X158120772Y-101580890D01*
X157770988Y-101057400D01*
X157247498Y-100707616D01*
X156630000Y-100584788D01*
X156012502Y-100707616D01*
X155489012Y-101057400D01*
X155360000Y-101250481D01*
X155230988Y-101057400D01*
X154707498Y-100707616D01*
X154090000Y-100584788D01*
X153472502Y-100707616D01*
X152949012Y-101057400D01*
X152820000Y-101250481D01*
X152690988Y-101057400D01*
X152167498Y-100707616D01*
X151550000Y-100584788D01*
X150932502Y-100707616D01*
X150409012Y-101057400D01*
X150276180Y-101256197D01*
X149959913Y-100915751D01*
X149384664Y-100652276D01*
X149267624Y-100628995D01*
X149014000Y-100797906D01*
X149014000Y-102226000D01*
X149034000Y-102226000D01*
X149034000Y-102234000D01*
X149014000Y-102234000D01*
X149014000Y-102254000D01*
X149006000Y-102254000D01*
X149006000Y-102234000D01*
X148986000Y-102234000D01*
X148986000Y-102226000D01*
X149006000Y-102226000D01*
X149006000Y-100797906D01*
X148752376Y-100628995D01*
X148635336Y-100652276D01*
X148060087Y-100915751D01*
X147743820Y-101256197D01*
X147610988Y-101057400D01*
X147087498Y-100707616D01*
X146470000Y-100584788D01*
X145852502Y-100707616D01*
X145329012Y-101057400D01*
X145196180Y-101256197D01*
X144879913Y-100915751D01*
X144304664Y-100652276D01*
X144187624Y-100628995D01*
X143934000Y-100797906D01*
X143934000Y-102226000D01*
X143954000Y-102226000D01*
X143954000Y-102234000D01*
X143934000Y-102234000D01*
X143934000Y-102254000D01*
X143926000Y-102254000D01*
X143926000Y-102234000D01*
X143906000Y-102234000D01*
X143906000Y-102226000D01*
X143926000Y-102226000D01*
X143926000Y-100797906D01*
X143672376Y-100628995D01*
X143555336Y-100652276D01*
X142980087Y-100915751D01*
X142663820Y-101256197D01*
X142530988Y-101057400D01*
X142007498Y-100707616D01*
X141390000Y-100584788D01*
X140772502Y-100707616D01*
X140249012Y-101057400D01*
X140120000Y-101250481D01*
X139990988Y-101057400D01*
X139467498Y-100707616D01*
X138850000Y-100584788D01*
X138232502Y-100707616D01*
X137709012Y-101057400D01*
X137580000Y-101250481D01*
X137450988Y-101057400D01*
X136927498Y-100707616D01*
X136310000Y-100584788D01*
X135692502Y-100707616D01*
X135169012Y-101057400D01*
X135040000Y-101250481D01*
X134910988Y-101057400D01*
X134387498Y-100707616D01*
X133770000Y-100584788D01*
X133152502Y-100707616D01*
X132629012Y-101057400D01*
X132496180Y-101256197D01*
X132179913Y-100915751D01*
X131604664Y-100652276D01*
X131487624Y-100628995D01*
X131234000Y-100797906D01*
X131234000Y-102226000D01*
X131254000Y-102226000D01*
X131254000Y-102234000D01*
X131234000Y-102234000D01*
X131234000Y-102254000D01*
X131226000Y-102254000D01*
X131226000Y-102234000D01*
X131206000Y-102234000D01*
X131206000Y-102226000D01*
X131226000Y-102226000D01*
X131226000Y-100797906D01*
X130972376Y-100628995D01*
X130855336Y-100652276D01*
X130280087Y-100915751D01*
X129963820Y-101256197D01*
X129830988Y-101057400D01*
X129307498Y-100707616D01*
X128690000Y-100584788D01*
X128072502Y-100707616D01*
X127549012Y-101057400D01*
X127420000Y-101250481D01*
X127290988Y-101057400D01*
X126767498Y-100707616D01*
X126150000Y-100584788D01*
X125532502Y-100707616D01*
X125009012Y-101057400D01*
X124876180Y-101256197D01*
X124559913Y-100915751D01*
X123984664Y-100652276D01*
X123867624Y-100628995D01*
X123614000Y-100797906D01*
X123614000Y-102226000D01*
X123634000Y-102226000D01*
X123634000Y-102234000D01*
X123614000Y-102234000D01*
X123614000Y-102254000D01*
X123606000Y-102254000D01*
X123606000Y-102234000D01*
X123586000Y-102234000D01*
X123586000Y-102226000D01*
X123606000Y-102226000D01*
X123606000Y-100797906D01*
X123352376Y-100628995D01*
X123235336Y-100652276D01*
X122660087Y-100915751D01*
X122343820Y-101256197D01*
X122210988Y-101057400D01*
X121687498Y-100707616D01*
X121070000Y-100584788D01*
X120452502Y-100707616D01*
X119929012Y-101057400D01*
X119800000Y-101250481D01*
X119670988Y-101057400D01*
X119147498Y-100707616D01*
X118530000Y-100584788D01*
X117912502Y-100707616D01*
X117389012Y-101057400D01*
X117260000Y-101250481D01*
X117130988Y-101057400D01*
X116607498Y-100707616D01*
X115990000Y-100584788D01*
X115372502Y-100707616D01*
X114849012Y-101057400D01*
X114716180Y-101256197D01*
X114399913Y-100915751D01*
X113824664Y-100652276D01*
X113707624Y-100628995D01*
X113454000Y-100797906D01*
X113454000Y-102226000D01*
X113474000Y-102226000D01*
X113474000Y-102234000D01*
X113454000Y-102234000D01*
X113454000Y-102254000D01*
X113446000Y-102254000D01*
X113446000Y-102234000D01*
X113426000Y-102234000D01*
X113426000Y-102226000D01*
X113446000Y-102226000D01*
X113446000Y-100797906D01*
X113192376Y-100628995D01*
X113075336Y-100652276D01*
X112500087Y-100915751D01*
X112196508Y-101242540D01*
X112076726Y-101063274D01*
X111541428Y-100705599D01*
X110910000Y-100580000D01*
X108370000Y-100580000D01*
X107738572Y-100705599D01*
X107203274Y-101063274D01*
X106845599Y-101598572D01*
X106720000Y-102230000D01*
X106845599Y-102861428D01*
X107116123Y-103266295D01*
X106973202Y-103358262D01*
X106801954Y-103608892D01*
X106741707Y-103906400D01*
X106741707Y-105633600D01*
X106794004Y-105911533D01*
X106958262Y-106166798D01*
X107208892Y-106338046D01*
X107506400Y-106398293D01*
X109233600Y-106398293D01*
X109424867Y-106362303D01*
X109781281Y-106718718D01*
X109800604Y-106731629D01*
X107732234Y-108800000D01*
X102700000Y-108800000D01*
X102221646Y-108895151D01*
X101816117Y-109166116D01*
X100366117Y-110616117D01*
X100250000Y-110789898D01*
X100250000Y-103995099D01*
X100999567Y-103995099D01*
X101379367Y-104914286D01*
X102082015Y-105618161D01*
X103000538Y-105999565D01*
X103995099Y-106000433D01*
X104914286Y-105620633D01*
X105618161Y-104917985D01*
X105999565Y-103999462D01*
X106000433Y-103004901D01*
X105620633Y-102085714D01*
X104917985Y-101381839D01*
X103999462Y-101000435D01*
X103004901Y-100999567D01*
X102085714Y-101379367D01*
X101381839Y-102082015D01*
X101000435Y-103000538D01*
X100999567Y-103995099D01*
X100250000Y-103995099D01*
X100250000Y-100250000D01*
X164750000Y-100250000D01*
X164750000Y-112705627D01*
X164750000Y-112705627D01*
G37*
X164750000Y-112705627D02*
X164666169Y-112284181D01*
X164283349Y-111711249D01*
X163710417Y-111328429D01*
X163034598Y-111194000D01*
X162965402Y-111194000D01*
X162382232Y-111310000D01*
X152390000Y-111310000D01*
X151758572Y-111435599D01*
X151488408Y-111616117D01*
X151223274Y-111793274D01*
X149613274Y-113403274D01*
X149299735Y-113872519D01*
X149290000Y-113866014D01*
X149290000Y-113740000D01*
X149210074Y-113338182D01*
X149050000Y-113098615D01*
X149050000Y-112990604D01*
X149079446Y-112947508D01*
X149139693Y-112650000D01*
X149139693Y-111850000D01*
X149087396Y-111572067D01*
X149046775Y-111508940D01*
X149133000Y-111300776D01*
X149133000Y-110943500D01*
X148943500Y-110754000D01*
X148004000Y-110754000D01*
X148004000Y-110774000D01*
X147996000Y-110774000D01*
X147996000Y-110754000D01*
X147056500Y-110754000D01*
X146867000Y-110943500D01*
X146867000Y-111300776D01*
X146928811Y-111450000D01*
X146823547Y-111450000D01*
X146597508Y-111295554D01*
X146300000Y-111235307D01*
X144700000Y-111235307D01*
X144621914Y-111250000D01*
X143401090Y-111250000D01*
X143152450Y-111249783D01*
X142692857Y-111439684D01*
X142340919Y-111791007D01*
X142150217Y-112250269D01*
X142149783Y-112747550D01*
X142339684Y-113207143D01*
X142671838Y-113539879D01*
X142566841Y-113560764D01*
X142063984Y-113896761D01*
X141890000Y-114157147D01*
X141716016Y-113896761D01*
X141213159Y-113560764D01*
X140620000Y-113442777D01*
X140026841Y-113560764D01*
X139523984Y-113896761D01*
X139350000Y-114157147D01*
X139176016Y-113896761D01*
X139130000Y-113866014D01*
X139130000Y-113769875D01*
X139179446Y-113697508D01*
X139239693Y-113400000D01*
X139239693Y-112600000D01*
X139187396Y-112322067D01*
X139146775Y-112258940D01*
X139233000Y-112050776D01*
X139233000Y-111693500D01*
X139043500Y-111504000D01*
X138104000Y-111504000D01*
X138104000Y-111524000D01*
X138096000Y-111524000D01*
X138096000Y-111504000D01*
X137156500Y-111504000D01*
X136967000Y-111693500D01*
X136967000Y-112050776D01*
X137052125Y-112256286D01*
X137020554Y-112302492D01*
X136960307Y-112600000D01*
X136960307Y-113400000D01*
X137012604Y-113677933D01*
X137030000Y-113704967D01*
X137030000Y-113866014D01*
X136983984Y-113896761D01*
X136810000Y-114157147D01*
X136636016Y-113896761D01*
X136133159Y-113560764D01*
X135540000Y-113442777D01*
X134946841Y-113560764D01*
X134443984Y-113896761D01*
X134270000Y-114157147D01*
X134096016Y-113896761D01*
X133593159Y-113560764D01*
X133000000Y-113442777D01*
X132406841Y-113560764D01*
X131903984Y-113896761D01*
X131567987Y-114399618D01*
X131450000Y-114992777D01*
X131450000Y-115767223D01*
X131526139Y-116150000D01*
X124217766Y-116150000D01*
X126217750Y-114150017D01*
X126546569Y-114150304D01*
X127190001Y-113884443D01*
X127682713Y-113392590D01*
X127949696Y-112749624D01*
X127950304Y-112053431D01*
X127731961Y-111525000D01*
X132800000Y-111525000D01*
X133153983Y-111454589D01*
X133454074Y-111254074D01*
X133758924Y-110949224D01*
X136967000Y-110949224D01*
X136967000Y-111306500D01*
X137156500Y-111496000D01*
X138096000Y-111496000D01*
X138096000Y-110531500D01*
X138104000Y-110531500D01*
X138104000Y-111496000D01*
X139043500Y-111496000D01*
X139233000Y-111306500D01*
X139233000Y-110949224D01*
X139117601Y-110670627D01*
X138904372Y-110457398D01*
X138625775Y-110342000D01*
X138293500Y-110342000D01*
X138104000Y-110531500D01*
X138096000Y-110531500D01*
X137906500Y-110342000D01*
X137574225Y-110342000D01*
X137295628Y-110457398D01*
X137082399Y-110670627D01*
X136967000Y-110949224D01*
X133758924Y-110949224D01*
X135014648Y-109693500D01*
X143942000Y-109693500D01*
X143942000Y-110150776D01*
X144057399Y-110429373D01*
X144270628Y-110642602D01*
X144549225Y-110758000D01*
X145306500Y-110758000D01*
X145496000Y-110568500D01*
X145496000Y-109504000D01*
X145504000Y-109504000D01*
X145504000Y-110568500D01*
X145693500Y-110758000D01*
X146450775Y-110758000D01*
X146729372Y-110642602D01*
X146867000Y-110504974D01*
X146867000Y-110556500D01*
X147056500Y-110746000D01*
X147996000Y-110746000D01*
X147996000Y-109781500D01*
X148004000Y-109781500D01*
X148004000Y-110746000D01*
X148943500Y-110746000D01*
X149133000Y-110556500D01*
X149133000Y-110199224D01*
X149017601Y-109920627D01*
X148804372Y-109707398D01*
X148525775Y-109592000D01*
X148193500Y-109592000D01*
X148004000Y-109781500D01*
X147996000Y-109781500D01*
X147806500Y-109592000D01*
X147474225Y-109592000D01*
X147195628Y-109707398D01*
X147058000Y-109845026D01*
X147058000Y-109693500D01*
X146868500Y-109504000D01*
X145504000Y-109504000D01*
X145496000Y-109504000D01*
X144131500Y-109504000D01*
X143942000Y-109693500D01*
X135014648Y-109693500D01*
X135858924Y-108849224D01*
X143942000Y-108849224D01*
X143942000Y-109306500D01*
X144131500Y-109496000D01*
X145496000Y-109496000D01*
X145496000Y-108431500D01*
X145504000Y-108431500D01*
X145504000Y-109496000D01*
X146868500Y-109496000D01*
X147058000Y-109306500D01*
X147058000Y-108849224D01*
X146942601Y-108570627D01*
X146729372Y-108357398D01*
X146450775Y-108242000D01*
X145693500Y-108242000D01*
X145504000Y-108431500D01*
X145496000Y-108431500D01*
X145306500Y-108242000D01*
X144549225Y-108242000D01*
X144270628Y-108357398D01*
X144057399Y-108570627D01*
X143942000Y-108849224D01*
X135858924Y-108849224D01*
X138254074Y-106454074D01*
X138360331Y-106295050D01*
X138475336Y-106347724D01*
X138592376Y-106371005D01*
X138846000Y-106202094D01*
X138846000Y-104774000D01*
X138826000Y-104774000D01*
X138826000Y-104766000D01*
X138846000Y-104766000D01*
X138846000Y-104746000D01*
X138854000Y-104746000D01*
X138854000Y-104766000D01*
X138874000Y-104766000D01*
X138874000Y-104774000D01*
X138854000Y-104774000D01*
X138854000Y-106202094D01*
X139107624Y-106371005D01*
X139224664Y-106347724D01*
X139799913Y-106084249D01*
X140116180Y-105743803D01*
X140249012Y-105942600D01*
X140772502Y-106292384D01*
X141390000Y-106415212D01*
X142007498Y-106292384D01*
X142530988Y-105942600D01*
X142660000Y-105749519D01*
X142789012Y-105942600D01*
X143312502Y-106292384D01*
X143930000Y-106415212D01*
X144547498Y-106292384D01*
X145070988Y-105942600D01*
X145200000Y-105749519D01*
X145329012Y-105942600D01*
X145852502Y-106292384D01*
X146470000Y-106415212D01*
X147087498Y-106292384D01*
X147610988Y-105942600D01*
X147740000Y-105749519D01*
X147869012Y-105942600D01*
X148392502Y-106292384D01*
X149010000Y-106415212D01*
X149627498Y-106292384D01*
X150150988Y-105942600D01*
X150280000Y-105749519D01*
X150409012Y-105942600D01*
X150932502Y-106292384D01*
X151550000Y-106415212D01*
X152167498Y-106292384D01*
X152690988Y-105942600D01*
X152820000Y-105749519D01*
X152949012Y-105942600D01*
X153472502Y-106292384D01*
X154090000Y-106415212D01*
X154707498Y-106292384D01*
X155230988Y-105942600D01*
X155363820Y-105743803D01*
X155680087Y-106084249D01*
X156255336Y-106347724D01*
X156372376Y-106371005D01*
X156626000Y-106202094D01*
X156626000Y-104774000D01*
X156634000Y-104774000D01*
X156634000Y-106202094D01*
X156887624Y-106371005D01*
X157004664Y-106347724D01*
X157579913Y-106084249D01*
X158010547Y-105620692D01*
X158231005Y-105027624D01*
X158062095Y-104774000D01*
X156634000Y-104774000D01*
X156626000Y-104774000D01*
X156606000Y-104774000D01*
X156606000Y-104766000D01*
X156626000Y-104766000D01*
X156626000Y-104746000D01*
X156634000Y-104746000D01*
X156634000Y-104766000D01*
X158062095Y-104766000D01*
X158231005Y-104512376D01*
X158038721Y-103995099D01*
X158999567Y-103995099D01*
X159379367Y-104914286D01*
X160082015Y-105618161D01*
X161000538Y-105999565D01*
X161995099Y-106000433D01*
X162914286Y-105620633D01*
X163618161Y-104917985D01*
X163999565Y-103999462D01*
X164000433Y-103004901D01*
X163620633Y-102085714D01*
X162917985Y-101381839D01*
X161999462Y-101000435D01*
X161004901Y-100999567D01*
X160085714Y-101379367D01*
X159381839Y-102082015D01*
X159000435Y-103000538D01*
X158999567Y-103995099D01*
X158038721Y-103995099D01*
X158010547Y-103919308D01*
X157622627Y-103501731D01*
X157770988Y-103402600D01*
X158120772Y-102879110D01*
X158243600Y-102261612D01*
X158243600Y-102198388D01*
X158120772Y-101580890D01*
X157770988Y-101057400D01*
X157247498Y-100707616D01*
X156630000Y-100584788D01*
X156012502Y-100707616D01*
X155489012Y-101057400D01*
X155360000Y-101250481D01*
X155230988Y-101057400D01*
X154707498Y-100707616D01*
X154090000Y-100584788D01*
X153472502Y-100707616D01*
X152949012Y-101057400D01*
X152820000Y-101250481D01*
X152690988Y-101057400D01*
X152167498Y-100707616D01*
X151550000Y-100584788D01*
X150932502Y-100707616D01*
X150409012Y-101057400D01*
X150276180Y-101256197D01*
X149959913Y-100915751D01*
X149384664Y-100652276D01*
X149267624Y-100628995D01*
X149014000Y-100797906D01*
X149014000Y-102226000D01*
X149034000Y-102226000D01*
X149034000Y-102234000D01*
X149014000Y-102234000D01*
X149014000Y-102254000D01*
X149006000Y-102254000D01*
X149006000Y-102234000D01*
X148986000Y-102234000D01*
X148986000Y-102226000D01*
X149006000Y-102226000D01*
X149006000Y-100797906D01*
X148752376Y-100628995D01*
X148635336Y-100652276D01*
X148060087Y-100915751D01*
X147743820Y-101256197D01*
X147610988Y-101057400D01*
X147087498Y-100707616D01*
X146470000Y-100584788D01*
X145852502Y-100707616D01*
X145329012Y-101057400D01*
X145196180Y-101256197D01*
X144879913Y-100915751D01*
X144304664Y-100652276D01*
X144187624Y-100628995D01*
X143934000Y-100797906D01*
X143934000Y-102226000D01*
X143954000Y-102226000D01*
X143954000Y-102234000D01*
X143934000Y-102234000D01*
X143934000Y-102254000D01*
X143926000Y-102254000D01*
X143926000Y-102234000D01*
X143906000Y-102234000D01*
X143906000Y-102226000D01*
X143926000Y-102226000D01*
X143926000Y-100797906D01*
X143672376Y-100628995D01*
X143555336Y-100652276D01*
X142980087Y-100915751D01*
X142663820Y-101256197D01*
X142530988Y-101057400D01*
X142007498Y-100707616D01*
X141390000Y-100584788D01*
X140772502Y-100707616D01*
X140249012Y-101057400D01*
X140120000Y-101250481D01*
X139990988Y-101057400D01*
X139467498Y-100707616D01*
X138850000Y-100584788D01*
X138232502Y-100707616D01*
X137709012Y-101057400D01*
X137580000Y-101250481D01*
X137450988Y-101057400D01*
X136927498Y-100707616D01*
X136310000Y-100584788D01*
X135692502Y-100707616D01*
X135169012Y-101057400D01*
X135040000Y-101250481D01*
X134910988Y-101057400D01*
X134387498Y-100707616D01*
X133770000Y-100584788D01*
X133152502Y-100707616D01*
X132629012Y-101057400D01*
X132496180Y-101256197D01*
X132179913Y-100915751D01*
X131604664Y-100652276D01*
X131487624Y-100628995D01*
X131234000Y-100797906D01*
X131234000Y-102226000D01*
X131254000Y-102226000D01*
X131254000Y-102234000D01*
X131234000Y-102234000D01*
X131234000Y-102254000D01*
X131226000Y-102254000D01*
X131226000Y-102234000D01*
X131206000Y-102234000D01*
X131206000Y-102226000D01*
X131226000Y-102226000D01*
X131226000Y-100797906D01*
X130972376Y-100628995D01*
X130855336Y-100652276D01*
X130280087Y-100915751D01*
X129963820Y-101256197D01*
X129830988Y-101057400D01*
X129307498Y-100707616D01*
X128690000Y-100584788D01*
X128072502Y-100707616D01*
X127549012Y-101057400D01*
X127420000Y-101250481D01*
X127290988Y-101057400D01*
X126767498Y-100707616D01*
X126150000Y-100584788D01*
X125532502Y-100707616D01*
X125009012Y-101057400D01*
X124876180Y-101256197D01*
X124559913Y-100915751D01*
X123984664Y-100652276D01*
X123867624Y-100628995D01*
X123614000Y-100797906D01*
X123614000Y-102226000D01*
X123634000Y-102226000D01*
X123634000Y-102234000D01*
X123614000Y-102234000D01*
X123614000Y-102254000D01*
X123606000Y-102254000D01*
X123606000Y-102234000D01*
X123586000Y-102234000D01*
X123586000Y-102226000D01*
X123606000Y-102226000D01*
X123606000Y-100797906D01*
X123352376Y-100628995D01*
X123235336Y-100652276D01*
X122660087Y-100915751D01*
X122343820Y-101256197D01*
X122210988Y-101057400D01*
X121687498Y-100707616D01*
X121070000Y-100584788D01*
X120452502Y-100707616D01*
X119929012Y-101057400D01*
X119800000Y-101250481D01*
X119670988Y-101057400D01*
X119147498Y-100707616D01*
X118530000Y-100584788D01*
X117912502Y-100707616D01*
X117389012Y-101057400D01*
X117260000Y-101250481D01*
X117130988Y-101057400D01*
X116607498Y-100707616D01*
X115990000Y-100584788D01*
X115372502Y-100707616D01*
X114849012Y-101057400D01*
X114716180Y-101256197D01*
X114399913Y-100915751D01*
X113824664Y-100652276D01*
X113707624Y-100628995D01*
X113454000Y-100797906D01*
X113454000Y-102226000D01*
X113474000Y-102226000D01*
X113474000Y-102234000D01*
X113454000Y-102234000D01*
X113454000Y-102254000D01*
X113446000Y-102254000D01*
X113446000Y-102234000D01*
X113426000Y-102234000D01*
X113426000Y-102226000D01*
X113446000Y-102226000D01*
X113446000Y-100797906D01*
X113192376Y-100628995D01*
X113075336Y-100652276D01*
X112500087Y-100915751D01*
X112196508Y-101242540D01*
X112076726Y-101063274D01*
X111541428Y-100705599D01*
X110910000Y-100580000D01*
X108370000Y-100580000D01*
X107738572Y-100705599D01*
X107203274Y-101063274D01*
X106845599Y-101598572D01*
X106720000Y-102230000D01*
X106845599Y-102861428D01*
X107116123Y-103266295D01*
X106973202Y-103358262D01*
X106801954Y-103608892D01*
X106741707Y-103906400D01*
X106741707Y-105633600D01*
X106794004Y-105911533D01*
X106958262Y-106166798D01*
X107208892Y-106338046D01*
X107506400Y-106398293D01*
X109233600Y-106398293D01*
X109424867Y-106362303D01*
X109781281Y-106718718D01*
X109800604Y-106731629D01*
X107732234Y-108800000D01*
X102700000Y-108800000D01*
X102221646Y-108895151D01*
X101816117Y-109166116D01*
X100366117Y-110616117D01*
X100250000Y-110789898D01*
X100250000Y-103995099D01*
X100999567Y-103995099D01*
X101379367Y-104914286D01*
X102082015Y-105618161D01*
X103000538Y-105999565D01*
X103995099Y-106000433D01*
X104914286Y-105620633D01*
X105618161Y-104917985D01*
X105999565Y-103999462D01*
X106000433Y-103004901D01*
X105620633Y-102085714D01*
X104917985Y-101381839D01*
X103999462Y-101000435D01*
X103004901Y-100999567D01*
X102085714Y-101379367D01*
X101381839Y-102082015D01*
X101000435Y-103000538D01*
X100999567Y-103995099D01*
X100250000Y-103995099D01*
X100250000Y-100250000D01*
X164750000Y-100250000D01*
X164750000Y-112705627D01*
G36*
X105899799Y-112385858D02*
X105885657Y-112400000D01*
X107016275Y-113530618D01*
X107063866Y-113518534D01*
X107427410Y-113882713D01*
X108070376Y-114149696D01*
X108766569Y-114150304D01*
X109410001Y-113884443D01*
X109690057Y-113604875D01*
X109967410Y-113882713D01*
X110610376Y-114149696D01*
X111306569Y-114150304D01*
X111950001Y-113884443D01*
X112230057Y-113604875D01*
X112507410Y-113882713D01*
X113150376Y-114149696D01*
X113846569Y-114150304D01*
X114490001Y-113884443D01*
X114770057Y-113604875D01*
X115047410Y-113882713D01*
X115690376Y-114149696D01*
X116386569Y-114150304D01*
X117030001Y-113884443D01*
X117310057Y-113604875D01*
X117587410Y-113882713D01*
X118230376Y-114149696D01*
X118926569Y-114150304D01*
X119570001Y-113884443D01*
X119850057Y-113604875D01*
X120127410Y-113882713D01*
X120770376Y-114149696D01*
X121466569Y-114150304D01*
X122110001Y-113884443D01*
X122390057Y-113604875D01*
X122667410Y-113882713D01*
X122866748Y-113965486D01*
X122132234Y-114700000D01*
X107117767Y-114700000D01*
X106472897Y-114055131D01*
X106819956Y-113926213D01*
X106930331Y-113852463D01*
X107010618Y-113536275D01*
X105880000Y-112405657D01*
X105865858Y-112419799D01*
X105860201Y-112414142D01*
X105874343Y-112400000D01*
X105860201Y-112385858D01*
X105865858Y-112380201D01*
X105880000Y-112394343D01*
X105894142Y-112380201D01*
X105899799Y-112385858D01*
X105899799Y-112385858D01*
G37*
X105899799Y-112385858D02*
X105885657Y-112400000D01*
X107016275Y-113530618D01*
X107063866Y-113518534D01*
X107427410Y-113882713D01*
X108070376Y-114149696D01*
X108766569Y-114150304D01*
X109410001Y-113884443D01*
X109690057Y-113604875D01*
X109967410Y-113882713D01*
X110610376Y-114149696D01*
X111306569Y-114150304D01*
X111950001Y-113884443D01*
X112230057Y-113604875D01*
X112507410Y-113882713D01*
X113150376Y-114149696D01*
X113846569Y-114150304D01*
X114490001Y-113884443D01*
X114770057Y-113604875D01*
X115047410Y-113882713D01*
X115690376Y-114149696D01*
X116386569Y-114150304D01*
X117030001Y-113884443D01*
X117310057Y-113604875D01*
X117587410Y-113882713D01*
X118230376Y-114149696D01*
X118926569Y-114150304D01*
X119570001Y-113884443D01*
X119850057Y-113604875D01*
X120127410Y-113882713D01*
X120770376Y-114149696D01*
X121466569Y-114150304D01*
X122110001Y-113884443D01*
X122390057Y-113604875D01*
X122667410Y-113882713D01*
X122866748Y-113965486D01*
X122132234Y-114700000D01*
X107117767Y-114700000D01*
X106472897Y-114055131D01*
X106819956Y-113926213D01*
X106930331Y-113852463D01*
X107010618Y-113536275D01*
X105880000Y-112405657D01*
X105865858Y-112419799D01*
X105860201Y-112414142D01*
X105874343Y-112400000D01*
X105860201Y-112385858D01*
X105865858Y-112380201D01*
X105880000Y-112394343D01*
X105894142Y-112380201D01*
X105899799Y-112385858D01*
G36*
X118534000Y-104766000D02*
X118554000Y-104766000D01*
X118554000Y-104774000D01*
X118534000Y-104774000D01*
X118534000Y-104794000D01*
X118526000Y-104794000D01*
X118526000Y-104774000D01*
X118506000Y-104774000D01*
X118506000Y-104766000D01*
X118526000Y-104766000D01*
X118526000Y-104746000D01*
X118534000Y-104746000D01*
X118534000Y-104766000D01*
X118534000Y-104766000D01*
G37*
X118534000Y-104766000D02*
X118554000Y-104766000D01*
X118554000Y-104774000D01*
X118534000Y-104774000D01*
X118534000Y-104794000D01*
X118526000Y-104794000D01*
X118526000Y-104774000D01*
X118506000Y-104774000D01*
X118506000Y-104766000D01*
X118526000Y-104766000D01*
X118526000Y-104746000D01*
X118534000Y-104746000D01*
X118534000Y-104766000D01*
G36*
X119929012Y-103402600D02*
X120074782Y-103500000D01*
X119929012Y-103597400D01*
X119796180Y-103796197D01*
X119522627Y-103501731D01*
X119670988Y-103402600D01*
X119800000Y-103209519D01*
X119929012Y-103402600D01*
X119929012Y-103402600D01*
G37*
X119929012Y-103402600D02*
X120074782Y-103500000D01*
X119929012Y-103597400D01*
X119796180Y-103796197D01*
X119522627Y-103501731D01*
X119670988Y-103402600D01*
X119800000Y-103209519D01*
X119929012Y-103402600D01*
G36*
X117389012Y-103402600D02*
X117537373Y-103501731D01*
X117263820Y-103796197D01*
X117130988Y-103597400D01*
X116985218Y-103500000D01*
X117130988Y-103402600D01*
X117260000Y-103209519D01*
X117389012Y-103402600D01*
X117389012Y-103402600D01*
G37*
X117389012Y-103402600D02*
X117537373Y-103501731D01*
X117263820Y-103796197D01*
X117130988Y-103597400D01*
X116985218Y-103500000D01*
X117130988Y-103402600D01*
X117260000Y-103209519D01*
X117389012Y-103402600D01*
G36*
X140249012Y-103402600D02*
X140394782Y-103500000D01*
X140249012Y-103597400D01*
X140116180Y-103796197D01*
X139842627Y-103501731D01*
X139990988Y-103402600D01*
X140120000Y-103209519D01*
X140249012Y-103402600D01*
X140249012Y-103402600D01*
G37*
X140249012Y-103402600D02*
X140394782Y-103500000D01*
X140249012Y-103597400D01*
X140116180Y-103796197D01*
X139842627Y-103501731D01*
X139990988Y-103402600D01*
X140120000Y-103209519D01*
X140249012Y-103402600D01*
G36*
X155489012Y-103402600D02*
X155637373Y-103501731D01*
X155363820Y-103796197D01*
X155230988Y-103597400D01*
X155085218Y-103500000D01*
X155230988Y-103402600D01*
X155360000Y-103209519D01*
X155489012Y-103402600D01*
X155489012Y-103402600D01*
G37*
X155489012Y-103402600D02*
X155637373Y-103501731D01*
X155363820Y-103796197D01*
X155230988Y-103597400D01*
X155085218Y-103500000D01*
X155230988Y-103402600D01*
X155360000Y-103209519D01*
X155489012Y-103402600D01*
G36*
X145329012Y-103402600D02*
X145474782Y-103500000D01*
X145329012Y-103597400D01*
X145200000Y-103790481D01*
X145070988Y-103597400D01*
X144922627Y-103498269D01*
X145196180Y-103203803D01*
X145329012Y-103402600D01*
X145329012Y-103402600D01*
G37*
X145329012Y-103402600D02*
X145474782Y-103500000D01*
X145329012Y-103597400D01*
X145200000Y-103790481D01*
X145070988Y-103597400D01*
X144922627Y-103498269D01*
X145196180Y-103203803D01*
X145329012Y-103402600D01*
G36*
X114849012Y-103402600D02*
X114994782Y-103500000D01*
X114849012Y-103597400D01*
X114720000Y-103790481D01*
X114590988Y-103597400D01*
X114442627Y-103498269D01*
X114716180Y-103203803D01*
X114849012Y-103402600D01*
X114849012Y-103402600D01*
G37*
X114849012Y-103402600D02*
X114994782Y-103500000D01*
X114849012Y-103597400D01*
X114720000Y-103790481D01*
X114590988Y-103597400D01*
X114442627Y-103498269D01*
X114716180Y-103203803D01*
X114849012Y-103402600D01*
G36*
X142937373Y-103498269D02*
X142789012Y-103597400D01*
X142660000Y-103790481D01*
X142530988Y-103597400D01*
X142385218Y-103500000D01*
X142530988Y-103402600D01*
X142663820Y-103203803D01*
X142937373Y-103498269D01*
X142937373Y-103498269D01*
G37*
X142937373Y-103498269D02*
X142789012Y-103597400D01*
X142660000Y-103790481D01*
X142530988Y-103597400D01*
X142385218Y-103500000D01*
X142530988Y-103402600D01*
X142663820Y-103203803D01*
X142937373Y-103498269D01*
G36*
X148017373Y-103498269D02*
X147869012Y-103597400D01*
X147740000Y-103790481D01*
X147610988Y-103597400D01*
X147465218Y-103500000D01*
X147610988Y-103402600D01*
X147743820Y-103203803D01*
X148017373Y-103498269D01*
X148017373Y-103498269D01*
G37*
X148017373Y-103498269D02*
X147869012Y-103597400D01*
X147740000Y-103790481D01*
X147610988Y-103597400D01*
X147465218Y-103500000D01*
X147610988Y-103402600D01*
X147743820Y-103203803D01*
X148017373Y-103498269D01*
G36*
X150409012Y-103402600D02*
X150554782Y-103500000D01*
X150409012Y-103597400D01*
X150280000Y-103790481D01*
X150150988Y-103597400D01*
X150002627Y-103498269D01*
X150276180Y-103203803D01*
X150409012Y-103402600D01*
X150409012Y-103402600D01*
G37*
X150409012Y-103402600D02*
X150554782Y-103500000D01*
X150409012Y-103597400D01*
X150280000Y-103790481D01*
X150150988Y-103597400D01*
X150002627Y-103498269D01*
X150276180Y-103203803D01*
X150409012Y-103402600D01*
G36*
X122617373Y-103498269D02*
X122469012Y-103597400D01*
X122340000Y-103790481D01*
X122210988Y-103597400D01*
X122065218Y-103500000D01*
X122210988Y-103402600D01*
X122343820Y-103203803D01*
X122617373Y-103498269D01*
X122617373Y-103498269D01*
G37*
X122617373Y-103498269D02*
X122469012Y-103597400D01*
X122340000Y-103790481D01*
X122210988Y-103597400D01*
X122065218Y-103500000D01*
X122210988Y-103402600D01*
X122343820Y-103203803D01*
X122617373Y-103498269D01*
M02*
