G04 #@! TF.FileFunction,Copper,L2,Bot,Signal*
%FSLAX46Y46*%
G04 Gerber Fmt 4.6, Leading zero omitted, Abs format (unit mm)*
G04 Created by KiCad (PCBNEW 4.0.6-e0-6349~53~ubuntu16.04.1) date Sat Mar 25 19:46:27 2017*
%MOMM*%
%LPD*%
G01*
G04 APERTURE LIST*
%ADD10C,0.100000*%
%ADD11C,3.500000*%
%ADD12O,1.727200X1.727200*%
%ADD13R,1.727200X1.727200*%
%ADD14O,1.600000X2.300000*%
%ADD15C,2.000000*%
%ADD16R,2.032000X2.032000*%
%ADD17O,2.032000X2.032000*%
%ADD18C,1.000000*%
%ADD19C,1.800000*%
%ADD20C,1.000000*%
%ADD21C,0.250000*%
%ADD22C,0.600000*%
%ADD23C,0.500000*%
G04 APERTURE END LIST*
D10*
D11*
X103500000Y-103500000D03*
X161500000Y-103500000D03*
D12*
X108370000Y-102230000D03*
D13*
X108370000Y-104770000D03*
D12*
X110910000Y-102230000D03*
X110910000Y-104770000D03*
X113450000Y-102230000D03*
X113450000Y-104770000D03*
X115990000Y-102230000D03*
X115990000Y-104770000D03*
X118530000Y-102230000D03*
X118530000Y-104770000D03*
X121070000Y-102230000D03*
X121070000Y-104770000D03*
X123610000Y-102230000D03*
X123610000Y-104770000D03*
X126150000Y-102230000D03*
X126150000Y-104770000D03*
X128690000Y-102230000D03*
X128690000Y-104770000D03*
X131230000Y-102230000D03*
X131230000Y-104770000D03*
X133770000Y-102230000D03*
X133770000Y-104770000D03*
X136310000Y-102230000D03*
X136310000Y-104770000D03*
X138850000Y-102230000D03*
X138850000Y-104770000D03*
X141390000Y-102230000D03*
X141390000Y-104770000D03*
X143930000Y-102230000D03*
X143930000Y-104770000D03*
X146470000Y-102230000D03*
X146470000Y-104770000D03*
X149010000Y-102230000D03*
X149010000Y-104770000D03*
X151550000Y-102230000D03*
X151550000Y-104770000D03*
X154090000Y-102230000D03*
X154090000Y-104770000D03*
X156630000Y-102230000D03*
X156630000Y-104770000D03*
D14*
X133000000Y-123000000D03*
X135540000Y-123000000D03*
X138080000Y-123000000D03*
X140620000Y-123000000D03*
X143160000Y-123000000D03*
X145700000Y-123000000D03*
X148240000Y-123000000D03*
X150780000Y-123000000D03*
X153320000Y-123000000D03*
X153320000Y-115380000D03*
X150780000Y-115380000D03*
X148240000Y-115380000D03*
X145700000Y-115380000D03*
X143160000Y-115380000D03*
X140620000Y-115380000D03*
X138080000Y-115380000D03*
X135540000Y-115380000D03*
X133000000Y-115380000D03*
D15*
X126200000Y-112400000D03*
X123660000Y-112400000D03*
X121120000Y-112400000D03*
X118580000Y-112400000D03*
X116040000Y-112400000D03*
X113500000Y-112400000D03*
X110960000Y-112400000D03*
X108420000Y-112400000D03*
X105880000Y-112400000D03*
X103340000Y-112400000D03*
X126200000Y-125100000D03*
X123660000Y-125100000D03*
X121120000Y-125100000D03*
X118580000Y-125100000D03*
X116040000Y-125100000D03*
X113500000Y-125100000D03*
X110960000Y-125100000D03*
X108420000Y-125100000D03*
X105880000Y-125100000D03*
X103340000Y-125100000D03*
D16*
X163000000Y-115500000D03*
D17*
X163000000Y-112960000D03*
D18*
X145600000Y-107500000D03*
X143400000Y-112500000D03*
X110200000Y-117800000D03*
X112200000Y-106100000D03*
X112200000Y-122900000D03*
X115700000Y-107800000D03*
X125800000Y-120400000D03*
D19*
X105880000Y-112400000D02*
X105880000Y-121070000D01*
X103340000Y-123610000D02*
X103340000Y-125100000D01*
X105880000Y-121070000D02*
X103340000Y-123610000D01*
D20*
X105880000Y-112400000D02*
X105880000Y-111620000D01*
X105880000Y-111620000D02*
X107800000Y-109700000D01*
X107800000Y-109700000D02*
X118700000Y-109700000D01*
X118700000Y-109700000D02*
X120900000Y-107500000D01*
D19*
X145600000Y-107500000D02*
X120900000Y-107500000D01*
X120900000Y-107500000D02*
X120550000Y-107500000D01*
X120550000Y-107500000D02*
X118530000Y-105480000D01*
X118530000Y-105480000D02*
X118530000Y-104770000D01*
X118530000Y-104770000D02*
X118530000Y-105480000D01*
D21*
X132500000Y-103500000D02*
X137580000Y-103500000D01*
X137580000Y-103500000D02*
X137350000Y-103500000D01*
D20*
X137580000Y-103500000D02*
X137350000Y-103500000D01*
D21*
X124880000Y-103500000D02*
X128500000Y-103500000D01*
X128500000Y-103500000D02*
X129960000Y-103500000D01*
X129960000Y-103500000D02*
X129750000Y-103500000D01*
D20*
X129960000Y-103500000D02*
X129750000Y-103500000D01*
X138850000Y-104770000D02*
X137580000Y-103500000D01*
X131230000Y-102230000D02*
X132500000Y-103500000D01*
X132500000Y-103500000D02*
X132750000Y-103500000D01*
X131230000Y-102230000D02*
X129960000Y-103500000D01*
X123610000Y-102230000D02*
X124880000Y-103500000D01*
X124880000Y-103500000D02*
X125050000Y-103500000D01*
D19*
X110200000Y-117800000D02*
X126900000Y-117800000D01*
X132200000Y-112500000D02*
X143400000Y-112500000D01*
X126900000Y-117800000D02*
X132200000Y-112500000D01*
D20*
X143160000Y-123000000D02*
X143160000Y-123440000D01*
X143160000Y-123440000D02*
X141500000Y-125100000D01*
X141500000Y-125100000D02*
X126200000Y-125100000D01*
D21*
X112200000Y-103520000D02*
X112150000Y-103470000D01*
X112200000Y-103520000D02*
X112200000Y-106100000D01*
D20*
X110910000Y-102230000D02*
X112150000Y-103470000D01*
X112150000Y-103470000D02*
X112150000Y-103700000D01*
X153320000Y-123000000D02*
X153320000Y-122670000D01*
X153320000Y-122670000D02*
X151550000Y-120900000D01*
X130150000Y-122900000D02*
X112200000Y-122900000D01*
X132150000Y-120900000D02*
X130150000Y-122900000D01*
X151550000Y-120900000D02*
X132150000Y-120900000D01*
D19*
X103340000Y-112400000D02*
X103340000Y-111610000D01*
X103340000Y-111610000D02*
X108370000Y-106580000D01*
X108370000Y-106580000D02*
X108370000Y-104770000D01*
D20*
X115700000Y-107800000D02*
X111400000Y-107800000D01*
X111400000Y-107800000D02*
X108370000Y-104770000D01*
X153320000Y-123000000D02*
X153320000Y-122420000D01*
D22*
X125800000Y-120400000D02*
X127980000Y-120400000D01*
X127980000Y-120400000D02*
X133000000Y-115380000D01*
D23*
G36*
X164750000Y-112705627D02*
X164666169Y-112284181D01*
X164283349Y-111711249D01*
X163710417Y-111328429D01*
X163034598Y-111194000D01*
X162965402Y-111194000D01*
X162289583Y-111328429D01*
X161716651Y-111711249D01*
X161333831Y-112284181D01*
X161199402Y-112960000D01*
X161333831Y-113635819D01*
X161504613Y-113891413D01*
X161341398Y-114054628D01*
X161226000Y-114333225D01*
X161226000Y-115306500D01*
X161415500Y-115496000D01*
X162996000Y-115496000D01*
X162996000Y-115476000D01*
X163004000Y-115476000D01*
X163004000Y-115496000D01*
X163024000Y-115496000D01*
X163024000Y-115504000D01*
X163004000Y-115504000D01*
X163004000Y-117084500D01*
X163193500Y-117274000D01*
X164166776Y-117274000D01*
X164445373Y-117158601D01*
X164658602Y-116945372D01*
X164750000Y-116724716D01*
X164750000Y-129750000D01*
X100250000Y-129750000D01*
X100250000Y-126236275D01*
X102209382Y-126236275D01*
X102289669Y-126552463D01*
X102925454Y-126843845D01*
X103624350Y-126869743D01*
X104279956Y-126626213D01*
X104390331Y-126552463D01*
X104470618Y-126236275D01*
X103340000Y-125105657D01*
X102209382Y-126236275D01*
X100250000Y-126236275D01*
X100250000Y-125384350D01*
X101570257Y-125384350D01*
X101813787Y-126039956D01*
X101887537Y-126150331D01*
X102203725Y-126230618D01*
X103334343Y-125100000D01*
X103345657Y-125100000D01*
X104476275Y-126230618D01*
X104523866Y-126218534D01*
X104887410Y-126582713D01*
X105530376Y-126849696D01*
X106226569Y-126850304D01*
X106870001Y-126584443D01*
X107150057Y-126304875D01*
X107427410Y-126582713D01*
X108070376Y-126849696D01*
X108766569Y-126850304D01*
X109410001Y-126584443D01*
X109690057Y-126304875D01*
X109967410Y-126582713D01*
X110610376Y-126849696D01*
X111306569Y-126850304D01*
X111950001Y-126584443D01*
X112230057Y-126304875D01*
X112507410Y-126582713D01*
X113150376Y-126849696D01*
X113846569Y-126850304D01*
X114490001Y-126584443D01*
X114770057Y-126304875D01*
X115047410Y-126582713D01*
X115690376Y-126849696D01*
X116386569Y-126850304D01*
X117030001Y-126584443D01*
X117310057Y-126304875D01*
X117587410Y-126582713D01*
X118230376Y-126849696D01*
X118926569Y-126850304D01*
X119570001Y-126584443D01*
X119850057Y-126304875D01*
X120127410Y-126582713D01*
X120770376Y-126849696D01*
X121466569Y-126850304D01*
X122110001Y-126584443D01*
X122390057Y-126304875D01*
X122667410Y-126582713D01*
X123310376Y-126849696D01*
X124006569Y-126850304D01*
X124650001Y-126584443D01*
X124930057Y-126304875D01*
X125207410Y-126582713D01*
X125850376Y-126849696D01*
X126546569Y-126850304D01*
X127190001Y-126584443D01*
X127424853Y-126350000D01*
X141500000Y-126350000D01*
X141978354Y-126254849D01*
X142383883Y-125983883D01*
X143497721Y-124870046D01*
X143753159Y-124819236D01*
X144256016Y-124483239D01*
X144437734Y-124211277D01*
X144601156Y-124454501D01*
X145107475Y-124790935D01*
X145452325Y-124888188D01*
X145696000Y-124718494D01*
X145696000Y-123004000D01*
X145676000Y-123004000D01*
X145676000Y-122996000D01*
X145696000Y-122996000D01*
X145696000Y-122976000D01*
X145704000Y-122976000D01*
X145704000Y-122996000D01*
X145724000Y-122996000D01*
X145724000Y-123004000D01*
X145704000Y-123004000D01*
X145704000Y-124718494D01*
X145947675Y-124888188D01*
X146292525Y-124790935D01*
X146798844Y-124454501D01*
X146962266Y-124211277D01*
X147143984Y-124483239D01*
X147646841Y-124819236D01*
X148240000Y-124937223D01*
X148833159Y-124819236D01*
X149336016Y-124483239D01*
X149517734Y-124211277D01*
X149681156Y-124454501D01*
X150187475Y-124790935D01*
X150532325Y-124888188D01*
X150776000Y-124718494D01*
X150776000Y-123004000D01*
X150756000Y-123004000D01*
X150756000Y-122996000D01*
X150776000Y-122996000D01*
X150776000Y-122976000D01*
X150784000Y-122976000D01*
X150784000Y-122996000D01*
X150804000Y-122996000D01*
X150804000Y-123004000D01*
X150784000Y-123004000D01*
X150784000Y-124718494D01*
X151027675Y-124888188D01*
X151372525Y-124790935D01*
X151878844Y-124454501D01*
X152042266Y-124211277D01*
X152223984Y-124483239D01*
X152726841Y-124819236D01*
X153320000Y-124937223D01*
X153913159Y-124819236D01*
X154416016Y-124483239D01*
X154752013Y-123980382D01*
X154870000Y-123387223D01*
X154870000Y-122612777D01*
X154752013Y-122019618D01*
X154416016Y-121516761D01*
X153913159Y-121180764D01*
X153520406Y-121102640D01*
X152433883Y-120016117D01*
X152028354Y-119745151D01*
X151550000Y-119650000D01*
X132150000Y-119650000D01*
X131671646Y-119745151D01*
X131266116Y-120016117D01*
X129632234Y-121650000D01*
X126048075Y-121650000D01*
X126507143Y-121460316D01*
X126517477Y-121450000D01*
X127980000Y-121450000D01*
X128381818Y-121370074D01*
X128722462Y-121142462D01*
X132622742Y-117242182D01*
X133000000Y-117317223D01*
X133593159Y-117199236D01*
X134096016Y-116863239D01*
X134270000Y-116602853D01*
X134443984Y-116863239D01*
X134946841Y-117199236D01*
X135540000Y-117317223D01*
X136133159Y-117199236D01*
X136636016Y-116863239D01*
X136810000Y-116602853D01*
X136983984Y-116863239D01*
X137486841Y-117199236D01*
X138080000Y-117317223D01*
X138673159Y-117199236D01*
X139176016Y-116863239D01*
X139350000Y-116602853D01*
X139523984Y-116863239D01*
X140026841Y-117199236D01*
X140620000Y-117317223D01*
X141213159Y-117199236D01*
X141716016Y-116863239D01*
X141890000Y-116602853D01*
X142063984Y-116863239D01*
X142566841Y-117199236D01*
X143160000Y-117317223D01*
X143753159Y-117199236D01*
X144256016Y-116863239D01*
X144430000Y-116602853D01*
X144603984Y-116863239D01*
X145106841Y-117199236D01*
X145700000Y-117317223D01*
X146293159Y-117199236D01*
X146796016Y-116863239D01*
X146970000Y-116602853D01*
X147143984Y-116863239D01*
X147646841Y-117199236D01*
X148240000Y-117317223D01*
X148833159Y-117199236D01*
X149336016Y-116863239D01*
X149510000Y-116602853D01*
X149683984Y-116863239D01*
X150186841Y-117199236D01*
X150780000Y-117317223D01*
X151373159Y-117199236D01*
X151876016Y-116863239D01*
X152057734Y-116591277D01*
X152221156Y-116834501D01*
X152727475Y-117170935D01*
X153072325Y-117268188D01*
X153316000Y-117098494D01*
X153316000Y-115384000D01*
X153324000Y-115384000D01*
X153324000Y-117098494D01*
X153567675Y-117268188D01*
X153912525Y-117170935D01*
X154418844Y-116834501D01*
X154757874Y-116329916D01*
X154878000Y-115734000D01*
X154878000Y-115693500D01*
X161226000Y-115693500D01*
X161226000Y-116666775D01*
X161341398Y-116945372D01*
X161554627Y-117158601D01*
X161833224Y-117274000D01*
X162806500Y-117274000D01*
X162996000Y-117084500D01*
X162996000Y-115504000D01*
X161415500Y-115504000D01*
X161226000Y-115693500D01*
X154878000Y-115693500D01*
X154878000Y-115384000D01*
X153324000Y-115384000D01*
X153316000Y-115384000D01*
X153296000Y-115384000D01*
X153296000Y-115376000D01*
X153316000Y-115376000D01*
X153316000Y-113661506D01*
X153324000Y-113661506D01*
X153324000Y-115376000D01*
X154878000Y-115376000D01*
X154878000Y-115026000D01*
X154757874Y-114430084D01*
X154418844Y-113925499D01*
X153912525Y-113589065D01*
X153567675Y-113491812D01*
X153324000Y-113661506D01*
X153316000Y-113661506D01*
X153072325Y-113491812D01*
X152727475Y-113589065D01*
X152221156Y-113925499D01*
X152057734Y-114168723D01*
X151876016Y-113896761D01*
X151373159Y-113560764D01*
X150780000Y-113442777D01*
X150186841Y-113560764D01*
X149683984Y-113896761D01*
X149510000Y-114157147D01*
X149336016Y-113896761D01*
X148833159Y-113560764D01*
X148240000Y-113442777D01*
X147646841Y-113560764D01*
X147143984Y-113896761D01*
X146970000Y-114157147D01*
X146796016Y-113896761D01*
X146293159Y-113560764D01*
X145700000Y-113442777D01*
X145106841Y-113560764D01*
X144603984Y-113896761D01*
X144430000Y-114157147D01*
X144256016Y-113896761D01*
X144239235Y-113885549D01*
X144566726Y-113666726D01*
X144924401Y-113131428D01*
X145050000Y-112500000D01*
X144924401Y-111868572D01*
X144566726Y-111333274D01*
X144031428Y-110975599D01*
X143400000Y-110850000D01*
X132200000Y-110850000D01*
X131568572Y-110975599D01*
X131128895Y-111269382D01*
X131033274Y-111333274D01*
X126216548Y-116150000D01*
X110200000Y-116150000D01*
X109568572Y-116275599D01*
X109033274Y-116633274D01*
X108675599Y-117168572D01*
X108550000Y-117800000D01*
X108675599Y-118431428D01*
X109033274Y-118966726D01*
X109568572Y-119324401D01*
X110200000Y-119450000D01*
X124982348Y-119450000D01*
X124740919Y-119691007D01*
X124550217Y-120150269D01*
X124549783Y-120647550D01*
X124739684Y-121107143D01*
X125091007Y-121459081D01*
X125550269Y-121649783D01*
X125798909Y-121650000D01*
X112201090Y-121650000D01*
X111952450Y-121649783D01*
X111492857Y-121839684D01*
X111140919Y-122191007D01*
X110950217Y-122650269D01*
X110949783Y-123147550D01*
X111033460Y-123350063D01*
X110613431Y-123349696D01*
X109969999Y-123615557D01*
X109689943Y-123895125D01*
X109412590Y-123617287D01*
X108769624Y-123350304D01*
X108073431Y-123349696D01*
X107429999Y-123615557D01*
X107149943Y-123895125D01*
X106872590Y-123617287D01*
X106229624Y-123350304D01*
X105533431Y-123349696D01*
X104889999Y-123615557D01*
X104523535Y-123981382D01*
X104476275Y-123969382D01*
X103345657Y-125100000D01*
X103334343Y-125100000D01*
X102203725Y-123969382D01*
X101887537Y-124049669D01*
X101596155Y-124685454D01*
X101570257Y-125384350D01*
X100250000Y-125384350D01*
X100250000Y-123963725D01*
X102209382Y-123963725D01*
X103340000Y-125094343D01*
X104470618Y-123963725D01*
X104390331Y-123647537D01*
X103754546Y-123356155D01*
X103055650Y-123330257D01*
X102400044Y-123573787D01*
X102289669Y-123647537D01*
X102209382Y-123963725D01*
X100250000Y-123963725D01*
X100250000Y-112746569D01*
X101589696Y-112746569D01*
X101855557Y-113390001D01*
X102347410Y-113882713D01*
X102990376Y-114149696D01*
X103686569Y-114150304D01*
X104330001Y-113884443D01*
X104678777Y-113536275D01*
X104749382Y-113536275D01*
X104829669Y-113852463D01*
X105465454Y-114143845D01*
X106164350Y-114169743D01*
X106819956Y-113926213D01*
X106930331Y-113852463D01*
X107010618Y-113536275D01*
X105880000Y-112405657D01*
X104749382Y-113536275D01*
X104678777Y-113536275D01*
X104696465Y-113518618D01*
X104743725Y-113530618D01*
X105874343Y-112400000D01*
X105885657Y-112400000D01*
X107016275Y-113530618D01*
X107063866Y-113518534D01*
X107427410Y-113882713D01*
X108070376Y-114149696D01*
X108766569Y-114150304D01*
X109410001Y-113884443D01*
X109690057Y-113604875D01*
X109967410Y-113882713D01*
X110610376Y-114149696D01*
X111306569Y-114150304D01*
X111950001Y-113884443D01*
X112230057Y-113604875D01*
X112507410Y-113882713D01*
X113150376Y-114149696D01*
X113846569Y-114150304D01*
X114490001Y-113884443D01*
X114770057Y-113604875D01*
X115047410Y-113882713D01*
X115690376Y-114149696D01*
X116386569Y-114150304D01*
X117030001Y-113884443D01*
X117310057Y-113604875D01*
X117587410Y-113882713D01*
X118230376Y-114149696D01*
X118926569Y-114150304D01*
X119570001Y-113884443D01*
X119850057Y-113604875D01*
X120127410Y-113882713D01*
X120770376Y-114149696D01*
X121466569Y-114150304D01*
X122110001Y-113884443D01*
X122390057Y-113604875D01*
X122667410Y-113882713D01*
X123310376Y-114149696D01*
X124006569Y-114150304D01*
X124650001Y-113884443D01*
X124930057Y-113604875D01*
X125207410Y-113882713D01*
X125850376Y-114149696D01*
X126546569Y-114150304D01*
X127190001Y-113884443D01*
X127682713Y-113392590D01*
X127949696Y-112749624D01*
X127950304Y-112053431D01*
X127684443Y-111409999D01*
X127192590Y-110917287D01*
X126549624Y-110650304D01*
X125853431Y-110649696D01*
X125209999Y-110915557D01*
X124929943Y-111195125D01*
X124652590Y-110917287D01*
X124009624Y-110650304D01*
X123313431Y-110649696D01*
X122669999Y-110915557D01*
X122389943Y-111195125D01*
X122112590Y-110917287D01*
X121469624Y-110650304D01*
X120773431Y-110649696D01*
X120129999Y-110915557D01*
X119849943Y-111195125D01*
X119572590Y-110917287D01*
X118929624Y-110650304D01*
X118233431Y-110649696D01*
X117589999Y-110915557D01*
X117309943Y-111195125D01*
X117032590Y-110917287D01*
X116389624Y-110650304D01*
X115693431Y-110649696D01*
X115049999Y-110915557D01*
X114769943Y-111195125D01*
X114492590Y-110917287D01*
X113849624Y-110650304D01*
X113153431Y-110649696D01*
X112509999Y-110915557D01*
X112229943Y-111195125D01*
X111952590Y-110917287D01*
X111309624Y-110650304D01*
X110613431Y-110649696D01*
X109969999Y-110915557D01*
X109689943Y-111195125D01*
X109412590Y-110917287D01*
X108769624Y-110650304D01*
X108073431Y-110649696D01*
X107429999Y-110915557D01*
X107063535Y-111281382D01*
X107016275Y-111269382D01*
X105885657Y-112400000D01*
X105874343Y-112400000D01*
X105860201Y-112385858D01*
X105865858Y-112380201D01*
X105880000Y-112394343D01*
X107010618Y-111263725D01*
X106930331Y-110947537D01*
X106522723Y-110760729D01*
X109536726Y-107746726D01*
X109553642Y-107721409D01*
X110516116Y-108683883D01*
X110778319Y-108859081D01*
X110921646Y-108954849D01*
X111400000Y-109050000D01*
X115698909Y-109050000D01*
X115947550Y-109050217D01*
X116407143Y-108860316D01*
X116759081Y-108508993D01*
X116949783Y-108049731D01*
X116950217Y-107552450D01*
X116760316Y-107092857D01*
X116408993Y-106740919D01*
X115949731Y-106550217D01*
X115452450Y-106549783D01*
X115451925Y-106550000D01*
X113366624Y-106550000D01*
X113424684Y-106410176D01*
X113450000Y-106415212D01*
X114067498Y-106292384D01*
X114590988Y-105942600D01*
X114720000Y-105749519D01*
X114849012Y-105942600D01*
X115372502Y-106292384D01*
X115990000Y-106415212D01*
X116607498Y-106292384D01*
X117130988Y-105942600D01*
X117263820Y-105743803D01*
X117580087Y-106084249D01*
X118155336Y-106347724D01*
X118272376Y-106371005D01*
X118526000Y-106202094D01*
X118526000Y-104774000D01*
X118506000Y-104774000D01*
X118506000Y-104766000D01*
X118526000Y-104766000D01*
X118526000Y-104746000D01*
X118534000Y-104746000D01*
X118534000Y-104766000D01*
X118554000Y-104766000D01*
X118554000Y-104774000D01*
X118534000Y-104774000D01*
X118534000Y-106202094D01*
X118787624Y-106371005D01*
X118904664Y-106347724D01*
X119479913Y-106084249D01*
X119796180Y-105743803D01*
X119929012Y-105942600D01*
X120452502Y-106292384D01*
X121070000Y-106415212D01*
X121687498Y-106292384D01*
X122210988Y-105942600D01*
X122340000Y-105749519D01*
X122469012Y-105942600D01*
X122992502Y-106292384D01*
X123610000Y-106415212D01*
X124227498Y-106292384D01*
X124750988Y-105942600D01*
X124880000Y-105749519D01*
X125009012Y-105942600D01*
X125532502Y-106292384D01*
X126150000Y-106415212D01*
X126767498Y-106292384D01*
X127290988Y-105942600D01*
X127420000Y-105749519D01*
X127549012Y-105942600D01*
X128072502Y-106292384D01*
X128690000Y-106415212D01*
X129307498Y-106292384D01*
X129830988Y-105942600D01*
X129960000Y-105749519D01*
X130089012Y-105942600D01*
X130612502Y-106292384D01*
X131230000Y-106415212D01*
X131847498Y-106292384D01*
X132370988Y-105942600D01*
X132500000Y-105749519D01*
X132629012Y-105942600D01*
X133152502Y-106292384D01*
X133770000Y-106415212D01*
X134387498Y-106292384D01*
X134910988Y-105942600D01*
X135040000Y-105749519D01*
X135169012Y-105942600D01*
X135692502Y-106292384D01*
X136310000Y-106415212D01*
X136927498Y-106292384D01*
X137450988Y-105942600D01*
X137583820Y-105743803D01*
X137900087Y-106084249D01*
X138475336Y-106347724D01*
X138592376Y-106371005D01*
X138846000Y-106202094D01*
X138846000Y-104774000D01*
X138826000Y-104774000D01*
X138826000Y-104766000D01*
X138846000Y-104766000D01*
X138846000Y-104746000D01*
X138854000Y-104746000D01*
X138854000Y-104766000D01*
X138874000Y-104766000D01*
X138874000Y-104774000D01*
X138854000Y-104774000D01*
X138854000Y-106202094D01*
X139107624Y-106371005D01*
X139224664Y-106347724D01*
X139799913Y-106084249D01*
X140116180Y-105743803D01*
X140249012Y-105942600D01*
X140772502Y-106292384D01*
X141390000Y-106415212D01*
X142007498Y-106292384D01*
X142530988Y-105942600D01*
X142660000Y-105749519D01*
X142789012Y-105942600D01*
X143312502Y-106292384D01*
X143930000Y-106415212D01*
X144547498Y-106292384D01*
X145070988Y-105942600D01*
X145200000Y-105749519D01*
X145329012Y-105942600D01*
X145852502Y-106292384D01*
X146470000Y-106415212D01*
X147087498Y-106292384D01*
X147610988Y-105942600D01*
X147740000Y-105749519D01*
X147869012Y-105942600D01*
X148392502Y-106292384D01*
X149010000Y-106415212D01*
X149627498Y-106292384D01*
X150150988Y-105942600D01*
X150280000Y-105749519D01*
X150409012Y-105942600D01*
X150932502Y-106292384D01*
X151550000Y-106415212D01*
X152167498Y-106292384D01*
X152690988Y-105942600D01*
X152820000Y-105749519D01*
X152949012Y-105942600D01*
X153472502Y-106292384D01*
X154090000Y-106415212D01*
X154707498Y-106292384D01*
X155230988Y-105942600D01*
X155363820Y-105743803D01*
X155680087Y-106084249D01*
X156255336Y-106347724D01*
X156372376Y-106371005D01*
X156626000Y-106202094D01*
X156626000Y-104774000D01*
X156634000Y-104774000D01*
X156634000Y-106202094D01*
X156887624Y-106371005D01*
X157004664Y-106347724D01*
X157579913Y-106084249D01*
X158010547Y-105620692D01*
X158231005Y-105027624D01*
X158062095Y-104774000D01*
X156634000Y-104774000D01*
X156626000Y-104774000D01*
X156606000Y-104774000D01*
X156606000Y-104766000D01*
X156626000Y-104766000D01*
X156626000Y-104746000D01*
X156634000Y-104746000D01*
X156634000Y-104766000D01*
X158062095Y-104766000D01*
X158231005Y-104512376D01*
X158038721Y-103995099D01*
X158999567Y-103995099D01*
X159379367Y-104914286D01*
X160082015Y-105618161D01*
X161000538Y-105999565D01*
X161995099Y-106000433D01*
X162914286Y-105620633D01*
X163618161Y-104917985D01*
X163999565Y-103999462D01*
X164000433Y-103004901D01*
X163620633Y-102085714D01*
X162917985Y-101381839D01*
X161999462Y-101000435D01*
X161004901Y-100999567D01*
X160085714Y-101379367D01*
X159381839Y-102082015D01*
X159000435Y-103000538D01*
X158999567Y-103995099D01*
X158038721Y-103995099D01*
X158010547Y-103919308D01*
X157622627Y-103501731D01*
X157770988Y-103402600D01*
X158120772Y-102879110D01*
X158243600Y-102261612D01*
X158243600Y-102198388D01*
X158120772Y-101580890D01*
X157770988Y-101057400D01*
X157247498Y-100707616D01*
X156630000Y-100584788D01*
X156012502Y-100707616D01*
X155489012Y-101057400D01*
X155360000Y-101250481D01*
X155230988Y-101057400D01*
X154707498Y-100707616D01*
X154090000Y-100584788D01*
X153472502Y-100707616D01*
X152949012Y-101057400D01*
X152820000Y-101250481D01*
X152690988Y-101057400D01*
X152167498Y-100707616D01*
X151550000Y-100584788D01*
X150932502Y-100707616D01*
X150409012Y-101057400D01*
X150276180Y-101256197D01*
X149959913Y-100915751D01*
X149384664Y-100652276D01*
X149267624Y-100628995D01*
X149014000Y-100797906D01*
X149014000Y-102226000D01*
X149034000Y-102226000D01*
X149034000Y-102234000D01*
X149014000Y-102234000D01*
X149014000Y-102254000D01*
X149006000Y-102254000D01*
X149006000Y-102234000D01*
X148986000Y-102234000D01*
X148986000Y-102226000D01*
X149006000Y-102226000D01*
X149006000Y-100797906D01*
X148752376Y-100628995D01*
X148635336Y-100652276D01*
X148060087Y-100915751D01*
X147743820Y-101256197D01*
X147610988Y-101057400D01*
X147087498Y-100707616D01*
X146470000Y-100584788D01*
X145852502Y-100707616D01*
X145329012Y-101057400D01*
X145196180Y-101256197D01*
X144879913Y-100915751D01*
X144304664Y-100652276D01*
X144187624Y-100628995D01*
X143934000Y-100797906D01*
X143934000Y-102226000D01*
X143954000Y-102226000D01*
X143954000Y-102234000D01*
X143934000Y-102234000D01*
X143934000Y-102254000D01*
X143926000Y-102254000D01*
X143926000Y-102234000D01*
X143906000Y-102234000D01*
X143906000Y-102226000D01*
X143926000Y-102226000D01*
X143926000Y-100797906D01*
X143672376Y-100628995D01*
X143555336Y-100652276D01*
X142980087Y-100915751D01*
X142663820Y-101256197D01*
X142530988Y-101057400D01*
X142007498Y-100707616D01*
X141390000Y-100584788D01*
X140772502Y-100707616D01*
X140249012Y-101057400D01*
X140120000Y-101250481D01*
X139990988Y-101057400D01*
X139467498Y-100707616D01*
X138850000Y-100584788D01*
X138232502Y-100707616D01*
X137709012Y-101057400D01*
X137580000Y-101250481D01*
X137450988Y-101057400D01*
X136927498Y-100707616D01*
X136310000Y-100584788D01*
X135692502Y-100707616D01*
X135169012Y-101057400D01*
X135040000Y-101250481D01*
X134910988Y-101057400D01*
X134387498Y-100707616D01*
X133770000Y-100584788D01*
X133152502Y-100707616D01*
X132629012Y-101057400D01*
X132496180Y-101256197D01*
X132179913Y-100915751D01*
X131604664Y-100652276D01*
X131487624Y-100628995D01*
X131234000Y-100797906D01*
X131234000Y-102226000D01*
X131254000Y-102226000D01*
X131254000Y-102234000D01*
X131234000Y-102234000D01*
X131234000Y-102254000D01*
X131226000Y-102254000D01*
X131226000Y-102234000D01*
X131206000Y-102234000D01*
X131206000Y-102226000D01*
X131226000Y-102226000D01*
X131226000Y-100797906D01*
X130972376Y-100628995D01*
X130855336Y-100652276D01*
X130280087Y-100915751D01*
X129963820Y-101256197D01*
X129830988Y-101057400D01*
X129307498Y-100707616D01*
X128690000Y-100584788D01*
X128072502Y-100707616D01*
X127549012Y-101057400D01*
X127420000Y-101250481D01*
X127290988Y-101057400D01*
X126767498Y-100707616D01*
X126150000Y-100584788D01*
X125532502Y-100707616D01*
X125009012Y-101057400D01*
X124876180Y-101256197D01*
X124559913Y-100915751D01*
X123984664Y-100652276D01*
X123867624Y-100628995D01*
X123614000Y-100797906D01*
X123614000Y-102226000D01*
X123634000Y-102226000D01*
X123634000Y-102234000D01*
X123614000Y-102234000D01*
X123614000Y-102254000D01*
X123606000Y-102254000D01*
X123606000Y-102234000D01*
X123586000Y-102234000D01*
X123586000Y-102226000D01*
X123606000Y-102226000D01*
X123606000Y-100797906D01*
X123352376Y-100628995D01*
X123235336Y-100652276D01*
X122660087Y-100915751D01*
X122343820Y-101256197D01*
X122210988Y-101057400D01*
X121687498Y-100707616D01*
X121070000Y-100584788D01*
X120452502Y-100707616D01*
X119929012Y-101057400D01*
X119800000Y-101250481D01*
X119670988Y-101057400D01*
X119147498Y-100707616D01*
X118530000Y-100584788D01*
X117912502Y-100707616D01*
X117389012Y-101057400D01*
X117260000Y-101250481D01*
X117130988Y-101057400D01*
X116607498Y-100707616D01*
X115990000Y-100584788D01*
X115372502Y-100707616D01*
X114849012Y-101057400D01*
X114716180Y-101256197D01*
X114399913Y-100915751D01*
X113824664Y-100652276D01*
X113707624Y-100628995D01*
X113454000Y-100797906D01*
X113454000Y-102226000D01*
X113474000Y-102226000D01*
X113474000Y-102234000D01*
X113454000Y-102234000D01*
X113454000Y-102254000D01*
X113446000Y-102254000D01*
X113446000Y-102234000D01*
X113426000Y-102234000D01*
X113426000Y-102226000D01*
X113446000Y-102226000D01*
X113446000Y-100797906D01*
X113192376Y-100628995D01*
X113075336Y-100652276D01*
X112500087Y-100915751D01*
X112183820Y-101256197D01*
X112050988Y-101057400D01*
X111527498Y-100707616D01*
X110910000Y-100584788D01*
X110292502Y-100707616D01*
X109769012Y-101057400D01*
X109640000Y-101250481D01*
X109510988Y-101057400D01*
X108987498Y-100707616D01*
X108370000Y-100584788D01*
X107752502Y-100707616D01*
X107229012Y-101057400D01*
X106879228Y-101580890D01*
X106756400Y-102198388D01*
X106756400Y-102261612D01*
X106879228Y-102879110D01*
X107131377Y-103256479D01*
X106973202Y-103358262D01*
X106801954Y-103608892D01*
X106741707Y-103906400D01*
X106741707Y-104660872D01*
X106720000Y-104770000D01*
X106720000Y-105896548D01*
X102173274Y-110443274D01*
X101815599Y-110978572D01*
X101690000Y-111610000D01*
X101690000Y-111810282D01*
X101590304Y-112050376D01*
X101589696Y-112746569D01*
X100250000Y-112746569D01*
X100250000Y-103995099D01*
X100999567Y-103995099D01*
X101379367Y-104914286D01*
X102082015Y-105618161D01*
X103000538Y-105999565D01*
X103995099Y-106000433D01*
X104914286Y-105620633D01*
X105618161Y-104917985D01*
X105999565Y-103999462D01*
X106000433Y-103004901D01*
X105620633Y-102085714D01*
X104917985Y-101381839D01*
X103999462Y-101000435D01*
X103004901Y-100999567D01*
X102085714Y-101379367D01*
X101381839Y-102082015D01*
X101000435Y-103000538D01*
X100999567Y-103995099D01*
X100250000Y-103995099D01*
X100250000Y-100250000D01*
X164750000Y-100250000D01*
X164750000Y-112705627D01*
X164750000Y-112705627D01*
G37*
X164750000Y-112705627D02*
X164666169Y-112284181D01*
X164283349Y-111711249D01*
X163710417Y-111328429D01*
X163034598Y-111194000D01*
X162965402Y-111194000D01*
X162289583Y-111328429D01*
X161716651Y-111711249D01*
X161333831Y-112284181D01*
X161199402Y-112960000D01*
X161333831Y-113635819D01*
X161504613Y-113891413D01*
X161341398Y-114054628D01*
X161226000Y-114333225D01*
X161226000Y-115306500D01*
X161415500Y-115496000D01*
X162996000Y-115496000D01*
X162996000Y-115476000D01*
X163004000Y-115476000D01*
X163004000Y-115496000D01*
X163024000Y-115496000D01*
X163024000Y-115504000D01*
X163004000Y-115504000D01*
X163004000Y-117084500D01*
X163193500Y-117274000D01*
X164166776Y-117274000D01*
X164445373Y-117158601D01*
X164658602Y-116945372D01*
X164750000Y-116724716D01*
X164750000Y-129750000D01*
X100250000Y-129750000D01*
X100250000Y-126236275D01*
X102209382Y-126236275D01*
X102289669Y-126552463D01*
X102925454Y-126843845D01*
X103624350Y-126869743D01*
X104279956Y-126626213D01*
X104390331Y-126552463D01*
X104470618Y-126236275D01*
X103340000Y-125105657D01*
X102209382Y-126236275D01*
X100250000Y-126236275D01*
X100250000Y-125384350D01*
X101570257Y-125384350D01*
X101813787Y-126039956D01*
X101887537Y-126150331D01*
X102203725Y-126230618D01*
X103334343Y-125100000D01*
X103345657Y-125100000D01*
X104476275Y-126230618D01*
X104523866Y-126218534D01*
X104887410Y-126582713D01*
X105530376Y-126849696D01*
X106226569Y-126850304D01*
X106870001Y-126584443D01*
X107150057Y-126304875D01*
X107427410Y-126582713D01*
X108070376Y-126849696D01*
X108766569Y-126850304D01*
X109410001Y-126584443D01*
X109690057Y-126304875D01*
X109967410Y-126582713D01*
X110610376Y-126849696D01*
X111306569Y-126850304D01*
X111950001Y-126584443D01*
X112230057Y-126304875D01*
X112507410Y-126582713D01*
X113150376Y-126849696D01*
X113846569Y-126850304D01*
X114490001Y-126584443D01*
X114770057Y-126304875D01*
X115047410Y-126582713D01*
X115690376Y-126849696D01*
X116386569Y-126850304D01*
X117030001Y-126584443D01*
X117310057Y-126304875D01*
X117587410Y-126582713D01*
X118230376Y-126849696D01*
X118926569Y-126850304D01*
X119570001Y-126584443D01*
X119850057Y-126304875D01*
X120127410Y-126582713D01*
X120770376Y-126849696D01*
X121466569Y-126850304D01*
X122110001Y-126584443D01*
X122390057Y-126304875D01*
X122667410Y-126582713D01*
X123310376Y-126849696D01*
X124006569Y-126850304D01*
X124650001Y-126584443D01*
X124930057Y-126304875D01*
X125207410Y-126582713D01*
X125850376Y-126849696D01*
X126546569Y-126850304D01*
X127190001Y-126584443D01*
X127424853Y-126350000D01*
X141500000Y-126350000D01*
X141978354Y-126254849D01*
X142383883Y-125983883D01*
X143497721Y-124870046D01*
X143753159Y-124819236D01*
X144256016Y-124483239D01*
X144437734Y-124211277D01*
X144601156Y-124454501D01*
X145107475Y-124790935D01*
X145452325Y-124888188D01*
X145696000Y-124718494D01*
X145696000Y-123004000D01*
X145676000Y-123004000D01*
X145676000Y-122996000D01*
X145696000Y-122996000D01*
X145696000Y-122976000D01*
X145704000Y-122976000D01*
X145704000Y-122996000D01*
X145724000Y-122996000D01*
X145724000Y-123004000D01*
X145704000Y-123004000D01*
X145704000Y-124718494D01*
X145947675Y-124888188D01*
X146292525Y-124790935D01*
X146798844Y-124454501D01*
X146962266Y-124211277D01*
X147143984Y-124483239D01*
X147646841Y-124819236D01*
X148240000Y-124937223D01*
X148833159Y-124819236D01*
X149336016Y-124483239D01*
X149517734Y-124211277D01*
X149681156Y-124454501D01*
X150187475Y-124790935D01*
X150532325Y-124888188D01*
X150776000Y-124718494D01*
X150776000Y-123004000D01*
X150756000Y-123004000D01*
X150756000Y-122996000D01*
X150776000Y-122996000D01*
X150776000Y-122976000D01*
X150784000Y-122976000D01*
X150784000Y-122996000D01*
X150804000Y-122996000D01*
X150804000Y-123004000D01*
X150784000Y-123004000D01*
X150784000Y-124718494D01*
X151027675Y-124888188D01*
X151372525Y-124790935D01*
X151878844Y-124454501D01*
X152042266Y-124211277D01*
X152223984Y-124483239D01*
X152726841Y-124819236D01*
X153320000Y-124937223D01*
X153913159Y-124819236D01*
X154416016Y-124483239D01*
X154752013Y-123980382D01*
X154870000Y-123387223D01*
X154870000Y-122612777D01*
X154752013Y-122019618D01*
X154416016Y-121516761D01*
X153913159Y-121180764D01*
X153520406Y-121102640D01*
X152433883Y-120016117D01*
X152028354Y-119745151D01*
X151550000Y-119650000D01*
X132150000Y-119650000D01*
X131671646Y-119745151D01*
X131266116Y-120016117D01*
X129632234Y-121650000D01*
X126048075Y-121650000D01*
X126507143Y-121460316D01*
X126517477Y-121450000D01*
X127980000Y-121450000D01*
X128381818Y-121370074D01*
X128722462Y-121142462D01*
X132622742Y-117242182D01*
X133000000Y-117317223D01*
X133593159Y-117199236D01*
X134096016Y-116863239D01*
X134270000Y-116602853D01*
X134443984Y-116863239D01*
X134946841Y-117199236D01*
X135540000Y-117317223D01*
X136133159Y-117199236D01*
X136636016Y-116863239D01*
X136810000Y-116602853D01*
X136983984Y-116863239D01*
X137486841Y-117199236D01*
X138080000Y-117317223D01*
X138673159Y-117199236D01*
X139176016Y-116863239D01*
X139350000Y-116602853D01*
X139523984Y-116863239D01*
X140026841Y-117199236D01*
X140620000Y-117317223D01*
X141213159Y-117199236D01*
X141716016Y-116863239D01*
X141890000Y-116602853D01*
X142063984Y-116863239D01*
X142566841Y-117199236D01*
X143160000Y-117317223D01*
X143753159Y-117199236D01*
X144256016Y-116863239D01*
X144430000Y-116602853D01*
X144603984Y-116863239D01*
X145106841Y-117199236D01*
X145700000Y-117317223D01*
X146293159Y-117199236D01*
X146796016Y-116863239D01*
X146970000Y-116602853D01*
X147143984Y-116863239D01*
X147646841Y-117199236D01*
X148240000Y-117317223D01*
X148833159Y-117199236D01*
X149336016Y-116863239D01*
X149510000Y-116602853D01*
X149683984Y-116863239D01*
X150186841Y-117199236D01*
X150780000Y-117317223D01*
X151373159Y-117199236D01*
X151876016Y-116863239D01*
X152057734Y-116591277D01*
X152221156Y-116834501D01*
X152727475Y-117170935D01*
X153072325Y-117268188D01*
X153316000Y-117098494D01*
X153316000Y-115384000D01*
X153324000Y-115384000D01*
X153324000Y-117098494D01*
X153567675Y-117268188D01*
X153912525Y-117170935D01*
X154418844Y-116834501D01*
X154757874Y-116329916D01*
X154878000Y-115734000D01*
X154878000Y-115693500D01*
X161226000Y-115693500D01*
X161226000Y-116666775D01*
X161341398Y-116945372D01*
X161554627Y-117158601D01*
X161833224Y-117274000D01*
X162806500Y-117274000D01*
X162996000Y-117084500D01*
X162996000Y-115504000D01*
X161415500Y-115504000D01*
X161226000Y-115693500D01*
X154878000Y-115693500D01*
X154878000Y-115384000D01*
X153324000Y-115384000D01*
X153316000Y-115384000D01*
X153296000Y-115384000D01*
X153296000Y-115376000D01*
X153316000Y-115376000D01*
X153316000Y-113661506D01*
X153324000Y-113661506D01*
X153324000Y-115376000D01*
X154878000Y-115376000D01*
X154878000Y-115026000D01*
X154757874Y-114430084D01*
X154418844Y-113925499D01*
X153912525Y-113589065D01*
X153567675Y-113491812D01*
X153324000Y-113661506D01*
X153316000Y-113661506D01*
X153072325Y-113491812D01*
X152727475Y-113589065D01*
X152221156Y-113925499D01*
X152057734Y-114168723D01*
X151876016Y-113896761D01*
X151373159Y-113560764D01*
X150780000Y-113442777D01*
X150186841Y-113560764D01*
X149683984Y-113896761D01*
X149510000Y-114157147D01*
X149336016Y-113896761D01*
X148833159Y-113560764D01*
X148240000Y-113442777D01*
X147646841Y-113560764D01*
X147143984Y-113896761D01*
X146970000Y-114157147D01*
X146796016Y-113896761D01*
X146293159Y-113560764D01*
X145700000Y-113442777D01*
X145106841Y-113560764D01*
X144603984Y-113896761D01*
X144430000Y-114157147D01*
X144256016Y-113896761D01*
X144239235Y-113885549D01*
X144566726Y-113666726D01*
X144924401Y-113131428D01*
X145050000Y-112500000D01*
X144924401Y-111868572D01*
X144566726Y-111333274D01*
X144031428Y-110975599D01*
X143400000Y-110850000D01*
X132200000Y-110850000D01*
X131568572Y-110975599D01*
X131128895Y-111269382D01*
X131033274Y-111333274D01*
X126216548Y-116150000D01*
X110200000Y-116150000D01*
X109568572Y-116275599D01*
X109033274Y-116633274D01*
X108675599Y-117168572D01*
X108550000Y-117800000D01*
X108675599Y-118431428D01*
X109033274Y-118966726D01*
X109568572Y-119324401D01*
X110200000Y-119450000D01*
X124982348Y-119450000D01*
X124740919Y-119691007D01*
X124550217Y-120150269D01*
X124549783Y-120647550D01*
X124739684Y-121107143D01*
X125091007Y-121459081D01*
X125550269Y-121649783D01*
X125798909Y-121650000D01*
X112201090Y-121650000D01*
X111952450Y-121649783D01*
X111492857Y-121839684D01*
X111140919Y-122191007D01*
X110950217Y-122650269D01*
X110949783Y-123147550D01*
X111033460Y-123350063D01*
X110613431Y-123349696D01*
X109969999Y-123615557D01*
X109689943Y-123895125D01*
X109412590Y-123617287D01*
X108769624Y-123350304D01*
X108073431Y-123349696D01*
X107429999Y-123615557D01*
X107149943Y-123895125D01*
X106872590Y-123617287D01*
X106229624Y-123350304D01*
X105533431Y-123349696D01*
X104889999Y-123615557D01*
X104523535Y-123981382D01*
X104476275Y-123969382D01*
X103345657Y-125100000D01*
X103334343Y-125100000D01*
X102203725Y-123969382D01*
X101887537Y-124049669D01*
X101596155Y-124685454D01*
X101570257Y-125384350D01*
X100250000Y-125384350D01*
X100250000Y-123963725D01*
X102209382Y-123963725D01*
X103340000Y-125094343D01*
X104470618Y-123963725D01*
X104390331Y-123647537D01*
X103754546Y-123356155D01*
X103055650Y-123330257D01*
X102400044Y-123573787D01*
X102289669Y-123647537D01*
X102209382Y-123963725D01*
X100250000Y-123963725D01*
X100250000Y-112746569D01*
X101589696Y-112746569D01*
X101855557Y-113390001D01*
X102347410Y-113882713D01*
X102990376Y-114149696D01*
X103686569Y-114150304D01*
X104330001Y-113884443D01*
X104678777Y-113536275D01*
X104749382Y-113536275D01*
X104829669Y-113852463D01*
X105465454Y-114143845D01*
X106164350Y-114169743D01*
X106819956Y-113926213D01*
X106930331Y-113852463D01*
X107010618Y-113536275D01*
X105880000Y-112405657D01*
X104749382Y-113536275D01*
X104678777Y-113536275D01*
X104696465Y-113518618D01*
X104743725Y-113530618D01*
X105874343Y-112400000D01*
X105885657Y-112400000D01*
X107016275Y-113530618D01*
X107063866Y-113518534D01*
X107427410Y-113882713D01*
X108070376Y-114149696D01*
X108766569Y-114150304D01*
X109410001Y-113884443D01*
X109690057Y-113604875D01*
X109967410Y-113882713D01*
X110610376Y-114149696D01*
X111306569Y-114150304D01*
X111950001Y-113884443D01*
X112230057Y-113604875D01*
X112507410Y-113882713D01*
X113150376Y-114149696D01*
X113846569Y-114150304D01*
X114490001Y-113884443D01*
X114770057Y-113604875D01*
X115047410Y-113882713D01*
X115690376Y-114149696D01*
X116386569Y-114150304D01*
X117030001Y-113884443D01*
X117310057Y-113604875D01*
X117587410Y-113882713D01*
X118230376Y-114149696D01*
X118926569Y-114150304D01*
X119570001Y-113884443D01*
X119850057Y-113604875D01*
X120127410Y-113882713D01*
X120770376Y-114149696D01*
X121466569Y-114150304D01*
X122110001Y-113884443D01*
X122390057Y-113604875D01*
X122667410Y-113882713D01*
X123310376Y-114149696D01*
X124006569Y-114150304D01*
X124650001Y-113884443D01*
X124930057Y-113604875D01*
X125207410Y-113882713D01*
X125850376Y-114149696D01*
X126546569Y-114150304D01*
X127190001Y-113884443D01*
X127682713Y-113392590D01*
X127949696Y-112749624D01*
X127950304Y-112053431D01*
X127684443Y-111409999D01*
X127192590Y-110917287D01*
X126549624Y-110650304D01*
X125853431Y-110649696D01*
X125209999Y-110915557D01*
X124929943Y-111195125D01*
X124652590Y-110917287D01*
X124009624Y-110650304D01*
X123313431Y-110649696D01*
X122669999Y-110915557D01*
X122389943Y-111195125D01*
X122112590Y-110917287D01*
X121469624Y-110650304D01*
X120773431Y-110649696D01*
X120129999Y-110915557D01*
X119849943Y-111195125D01*
X119572590Y-110917287D01*
X118929624Y-110650304D01*
X118233431Y-110649696D01*
X117589999Y-110915557D01*
X117309943Y-111195125D01*
X117032590Y-110917287D01*
X116389624Y-110650304D01*
X115693431Y-110649696D01*
X115049999Y-110915557D01*
X114769943Y-111195125D01*
X114492590Y-110917287D01*
X113849624Y-110650304D01*
X113153431Y-110649696D01*
X112509999Y-110915557D01*
X112229943Y-111195125D01*
X111952590Y-110917287D01*
X111309624Y-110650304D01*
X110613431Y-110649696D01*
X109969999Y-110915557D01*
X109689943Y-111195125D01*
X109412590Y-110917287D01*
X108769624Y-110650304D01*
X108073431Y-110649696D01*
X107429999Y-110915557D01*
X107063535Y-111281382D01*
X107016275Y-111269382D01*
X105885657Y-112400000D01*
X105874343Y-112400000D01*
X105860201Y-112385858D01*
X105865858Y-112380201D01*
X105880000Y-112394343D01*
X107010618Y-111263725D01*
X106930331Y-110947537D01*
X106522723Y-110760729D01*
X109536726Y-107746726D01*
X109553642Y-107721409D01*
X110516116Y-108683883D01*
X110778319Y-108859081D01*
X110921646Y-108954849D01*
X111400000Y-109050000D01*
X115698909Y-109050000D01*
X115947550Y-109050217D01*
X116407143Y-108860316D01*
X116759081Y-108508993D01*
X116949783Y-108049731D01*
X116950217Y-107552450D01*
X116760316Y-107092857D01*
X116408993Y-106740919D01*
X115949731Y-106550217D01*
X115452450Y-106549783D01*
X115451925Y-106550000D01*
X113366624Y-106550000D01*
X113424684Y-106410176D01*
X113450000Y-106415212D01*
X114067498Y-106292384D01*
X114590988Y-105942600D01*
X114720000Y-105749519D01*
X114849012Y-105942600D01*
X115372502Y-106292384D01*
X115990000Y-106415212D01*
X116607498Y-106292384D01*
X117130988Y-105942600D01*
X117263820Y-105743803D01*
X117580087Y-106084249D01*
X118155336Y-106347724D01*
X118272376Y-106371005D01*
X118526000Y-106202094D01*
X118526000Y-104774000D01*
X118506000Y-104774000D01*
X118506000Y-104766000D01*
X118526000Y-104766000D01*
X118526000Y-104746000D01*
X118534000Y-104746000D01*
X118534000Y-104766000D01*
X118554000Y-104766000D01*
X118554000Y-104774000D01*
X118534000Y-104774000D01*
X118534000Y-106202094D01*
X118787624Y-106371005D01*
X118904664Y-106347724D01*
X119479913Y-106084249D01*
X119796180Y-105743803D01*
X119929012Y-105942600D01*
X120452502Y-106292384D01*
X121070000Y-106415212D01*
X121687498Y-106292384D01*
X122210988Y-105942600D01*
X122340000Y-105749519D01*
X122469012Y-105942600D01*
X122992502Y-106292384D01*
X123610000Y-106415212D01*
X124227498Y-106292384D01*
X124750988Y-105942600D01*
X124880000Y-105749519D01*
X125009012Y-105942600D01*
X125532502Y-106292384D01*
X126150000Y-106415212D01*
X126767498Y-106292384D01*
X127290988Y-105942600D01*
X127420000Y-105749519D01*
X127549012Y-105942600D01*
X128072502Y-106292384D01*
X128690000Y-106415212D01*
X129307498Y-106292384D01*
X129830988Y-105942600D01*
X129960000Y-105749519D01*
X130089012Y-105942600D01*
X130612502Y-106292384D01*
X131230000Y-106415212D01*
X131847498Y-106292384D01*
X132370988Y-105942600D01*
X132500000Y-105749519D01*
X132629012Y-105942600D01*
X133152502Y-106292384D01*
X133770000Y-106415212D01*
X134387498Y-106292384D01*
X134910988Y-105942600D01*
X135040000Y-105749519D01*
X135169012Y-105942600D01*
X135692502Y-106292384D01*
X136310000Y-106415212D01*
X136927498Y-106292384D01*
X137450988Y-105942600D01*
X137583820Y-105743803D01*
X137900087Y-106084249D01*
X138475336Y-106347724D01*
X138592376Y-106371005D01*
X138846000Y-106202094D01*
X138846000Y-104774000D01*
X138826000Y-104774000D01*
X138826000Y-104766000D01*
X138846000Y-104766000D01*
X138846000Y-104746000D01*
X138854000Y-104746000D01*
X138854000Y-104766000D01*
X138874000Y-104766000D01*
X138874000Y-104774000D01*
X138854000Y-104774000D01*
X138854000Y-106202094D01*
X139107624Y-106371005D01*
X139224664Y-106347724D01*
X139799913Y-106084249D01*
X140116180Y-105743803D01*
X140249012Y-105942600D01*
X140772502Y-106292384D01*
X141390000Y-106415212D01*
X142007498Y-106292384D01*
X142530988Y-105942600D01*
X142660000Y-105749519D01*
X142789012Y-105942600D01*
X143312502Y-106292384D01*
X143930000Y-106415212D01*
X144547498Y-106292384D01*
X145070988Y-105942600D01*
X145200000Y-105749519D01*
X145329012Y-105942600D01*
X145852502Y-106292384D01*
X146470000Y-106415212D01*
X147087498Y-106292384D01*
X147610988Y-105942600D01*
X147740000Y-105749519D01*
X147869012Y-105942600D01*
X148392502Y-106292384D01*
X149010000Y-106415212D01*
X149627498Y-106292384D01*
X150150988Y-105942600D01*
X150280000Y-105749519D01*
X150409012Y-105942600D01*
X150932502Y-106292384D01*
X151550000Y-106415212D01*
X152167498Y-106292384D01*
X152690988Y-105942600D01*
X152820000Y-105749519D01*
X152949012Y-105942600D01*
X153472502Y-106292384D01*
X154090000Y-106415212D01*
X154707498Y-106292384D01*
X155230988Y-105942600D01*
X155363820Y-105743803D01*
X155680087Y-106084249D01*
X156255336Y-106347724D01*
X156372376Y-106371005D01*
X156626000Y-106202094D01*
X156626000Y-104774000D01*
X156634000Y-104774000D01*
X156634000Y-106202094D01*
X156887624Y-106371005D01*
X157004664Y-106347724D01*
X157579913Y-106084249D01*
X158010547Y-105620692D01*
X158231005Y-105027624D01*
X158062095Y-104774000D01*
X156634000Y-104774000D01*
X156626000Y-104774000D01*
X156606000Y-104774000D01*
X156606000Y-104766000D01*
X156626000Y-104766000D01*
X156626000Y-104746000D01*
X156634000Y-104746000D01*
X156634000Y-104766000D01*
X158062095Y-104766000D01*
X158231005Y-104512376D01*
X158038721Y-103995099D01*
X158999567Y-103995099D01*
X159379367Y-104914286D01*
X160082015Y-105618161D01*
X161000538Y-105999565D01*
X161995099Y-106000433D01*
X162914286Y-105620633D01*
X163618161Y-104917985D01*
X163999565Y-103999462D01*
X164000433Y-103004901D01*
X163620633Y-102085714D01*
X162917985Y-101381839D01*
X161999462Y-101000435D01*
X161004901Y-100999567D01*
X160085714Y-101379367D01*
X159381839Y-102082015D01*
X159000435Y-103000538D01*
X158999567Y-103995099D01*
X158038721Y-103995099D01*
X158010547Y-103919308D01*
X157622627Y-103501731D01*
X157770988Y-103402600D01*
X158120772Y-102879110D01*
X158243600Y-102261612D01*
X158243600Y-102198388D01*
X158120772Y-101580890D01*
X157770988Y-101057400D01*
X157247498Y-100707616D01*
X156630000Y-100584788D01*
X156012502Y-100707616D01*
X155489012Y-101057400D01*
X155360000Y-101250481D01*
X155230988Y-101057400D01*
X154707498Y-100707616D01*
X154090000Y-100584788D01*
X153472502Y-100707616D01*
X152949012Y-101057400D01*
X152820000Y-101250481D01*
X152690988Y-101057400D01*
X152167498Y-100707616D01*
X151550000Y-100584788D01*
X150932502Y-100707616D01*
X150409012Y-101057400D01*
X150276180Y-101256197D01*
X149959913Y-100915751D01*
X149384664Y-100652276D01*
X149267624Y-100628995D01*
X149014000Y-100797906D01*
X149014000Y-102226000D01*
X149034000Y-102226000D01*
X149034000Y-102234000D01*
X149014000Y-102234000D01*
X149014000Y-102254000D01*
X149006000Y-102254000D01*
X149006000Y-102234000D01*
X148986000Y-102234000D01*
X148986000Y-102226000D01*
X149006000Y-102226000D01*
X149006000Y-100797906D01*
X148752376Y-100628995D01*
X148635336Y-100652276D01*
X148060087Y-100915751D01*
X147743820Y-101256197D01*
X147610988Y-101057400D01*
X147087498Y-100707616D01*
X146470000Y-100584788D01*
X145852502Y-100707616D01*
X145329012Y-101057400D01*
X145196180Y-101256197D01*
X144879913Y-100915751D01*
X144304664Y-100652276D01*
X144187624Y-100628995D01*
X143934000Y-100797906D01*
X143934000Y-102226000D01*
X143954000Y-102226000D01*
X143954000Y-102234000D01*
X143934000Y-102234000D01*
X143934000Y-102254000D01*
X143926000Y-102254000D01*
X143926000Y-102234000D01*
X143906000Y-102234000D01*
X143906000Y-102226000D01*
X143926000Y-102226000D01*
X143926000Y-100797906D01*
X143672376Y-100628995D01*
X143555336Y-100652276D01*
X142980087Y-100915751D01*
X142663820Y-101256197D01*
X142530988Y-101057400D01*
X142007498Y-100707616D01*
X141390000Y-100584788D01*
X140772502Y-100707616D01*
X140249012Y-101057400D01*
X140120000Y-101250481D01*
X139990988Y-101057400D01*
X139467498Y-100707616D01*
X138850000Y-100584788D01*
X138232502Y-100707616D01*
X137709012Y-101057400D01*
X137580000Y-101250481D01*
X137450988Y-101057400D01*
X136927498Y-100707616D01*
X136310000Y-100584788D01*
X135692502Y-100707616D01*
X135169012Y-101057400D01*
X135040000Y-101250481D01*
X134910988Y-101057400D01*
X134387498Y-100707616D01*
X133770000Y-100584788D01*
X133152502Y-100707616D01*
X132629012Y-101057400D01*
X132496180Y-101256197D01*
X132179913Y-100915751D01*
X131604664Y-100652276D01*
X131487624Y-100628995D01*
X131234000Y-100797906D01*
X131234000Y-102226000D01*
X131254000Y-102226000D01*
X131254000Y-102234000D01*
X131234000Y-102234000D01*
X131234000Y-102254000D01*
X131226000Y-102254000D01*
X131226000Y-102234000D01*
X131206000Y-102234000D01*
X131206000Y-102226000D01*
X131226000Y-102226000D01*
X131226000Y-100797906D01*
X130972376Y-100628995D01*
X130855336Y-100652276D01*
X130280087Y-100915751D01*
X129963820Y-101256197D01*
X129830988Y-101057400D01*
X129307498Y-100707616D01*
X128690000Y-100584788D01*
X128072502Y-100707616D01*
X127549012Y-101057400D01*
X127420000Y-101250481D01*
X127290988Y-101057400D01*
X126767498Y-100707616D01*
X126150000Y-100584788D01*
X125532502Y-100707616D01*
X125009012Y-101057400D01*
X124876180Y-101256197D01*
X124559913Y-100915751D01*
X123984664Y-100652276D01*
X123867624Y-100628995D01*
X123614000Y-100797906D01*
X123614000Y-102226000D01*
X123634000Y-102226000D01*
X123634000Y-102234000D01*
X123614000Y-102234000D01*
X123614000Y-102254000D01*
X123606000Y-102254000D01*
X123606000Y-102234000D01*
X123586000Y-102234000D01*
X123586000Y-102226000D01*
X123606000Y-102226000D01*
X123606000Y-100797906D01*
X123352376Y-100628995D01*
X123235336Y-100652276D01*
X122660087Y-100915751D01*
X122343820Y-101256197D01*
X122210988Y-101057400D01*
X121687498Y-100707616D01*
X121070000Y-100584788D01*
X120452502Y-100707616D01*
X119929012Y-101057400D01*
X119800000Y-101250481D01*
X119670988Y-101057400D01*
X119147498Y-100707616D01*
X118530000Y-100584788D01*
X117912502Y-100707616D01*
X117389012Y-101057400D01*
X117260000Y-101250481D01*
X117130988Y-101057400D01*
X116607498Y-100707616D01*
X115990000Y-100584788D01*
X115372502Y-100707616D01*
X114849012Y-101057400D01*
X114716180Y-101256197D01*
X114399913Y-100915751D01*
X113824664Y-100652276D01*
X113707624Y-100628995D01*
X113454000Y-100797906D01*
X113454000Y-102226000D01*
X113474000Y-102226000D01*
X113474000Y-102234000D01*
X113454000Y-102234000D01*
X113454000Y-102254000D01*
X113446000Y-102254000D01*
X113446000Y-102234000D01*
X113426000Y-102234000D01*
X113426000Y-102226000D01*
X113446000Y-102226000D01*
X113446000Y-100797906D01*
X113192376Y-100628995D01*
X113075336Y-100652276D01*
X112500087Y-100915751D01*
X112183820Y-101256197D01*
X112050988Y-101057400D01*
X111527498Y-100707616D01*
X110910000Y-100584788D01*
X110292502Y-100707616D01*
X109769012Y-101057400D01*
X109640000Y-101250481D01*
X109510988Y-101057400D01*
X108987498Y-100707616D01*
X108370000Y-100584788D01*
X107752502Y-100707616D01*
X107229012Y-101057400D01*
X106879228Y-101580890D01*
X106756400Y-102198388D01*
X106756400Y-102261612D01*
X106879228Y-102879110D01*
X107131377Y-103256479D01*
X106973202Y-103358262D01*
X106801954Y-103608892D01*
X106741707Y-103906400D01*
X106741707Y-104660872D01*
X106720000Y-104770000D01*
X106720000Y-105896548D01*
X102173274Y-110443274D01*
X101815599Y-110978572D01*
X101690000Y-111610000D01*
X101690000Y-111810282D01*
X101590304Y-112050376D01*
X101589696Y-112746569D01*
X100250000Y-112746569D01*
X100250000Y-103995099D01*
X100999567Y-103995099D01*
X101379367Y-104914286D01*
X102082015Y-105618161D01*
X103000538Y-105999565D01*
X103995099Y-106000433D01*
X104914286Y-105620633D01*
X105618161Y-104917985D01*
X105999565Y-103999462D01*
X106000433Y-103004901D01*
X105620633Y-102085714D01*
X104917985Y-101381839D01*
X103999462Y-101000435D01*
X103004901Y-100999567D01*
X102085714Y-101379367D01*
X101381839Y-102082015D01*
X101000435Y-103000538D01*
X100999567Y-103995099D01*
X100250000Y-103995099D01*
X100250000Y-100250000D01*
X164750000Y-100250000D01*
X164750000Y-112705627D01*
G36*
X138084000Y-122996000D02*
X138104000Y-122996000D01*
X138104000Y-123004000D01*
X138084000Y-123004000D01*
X138084000Y-123024000D01*
X138076000Y-123024000D01*
X138076000Y-123004000D01*
X138056000Y-123004000D01*
X138056000Y-122996000D01*
X138076000Y-122996000D01*
X138076000Y-122976000D01*
X138084000Y-122976000D01*
X138084000Y-122996000D01*
X138084000Y-122996000D01*
G37*
X138084000Y-122996000D02*
X138104000Y-122996000D01*
X138104000Y-123004000D01*
X138084000Y-123004000D01*
X138084000Y-123024000D01*
X138076000Y-123024000D01*
X138076000Y-123004000D01*
X138056000Y-123004000D01*
X138056000Y-122996000D01*
X138076000Y-122996000D01*
X138076000Y-122976000D01*
X138084000Y-122976000D01*
X138084000Y-122996000D01*
G36*
X137709012Y-103402600D02*
X137857373Y-103501731D01*
X137583820Y-103796197D01*
X137450988Y-103597400D01*
X137305218Y-103500000D01*
X137450988Y-103402600D01*
X137580000Y-103209519D01*
X137709012Y-103402600D01*
X137709012Y-103402600D01*
G37*
X137709012Y-103402600D02*
X137857373Y-103501731D01*
X137583820Y-103796197D01*
X137450988Y-103597400D01*
X137305218Y-103500000D01*
X137450988Y-103402600D01*
X137580000Y-103209519D01*
X137709012Y-103402600D01*
G36*
X132629012Y-103402600D02*
X132774782Y-103500000D01*
X132629012Y-103597400D01*
X132500000Y-103790481D01*
X132370988Y-103597400D01*
X132222627Y-103498269D01*
X132496180Y-103203803D01*
X132629012Y-103402600D01*
X132629012Y-103402600D01*
G37*
X132629012Y-103402600D02*
X132774782Y-103500000D01*
X132629012Y-103597400D01*
X132500000Y-103790481D01*
X132370988Y-103597400D01*
X132222627Y-103498269D01*
X132496180Y-103203803D01*
X132629012Y-103402600D01*
G36*
X130237373Y-103498269D02*
X130089012Y-103597400D01*
X129960000Y-103790481D01*
X129830988Y-103597400D01*
X129685218Y-103500000D01*
X129830988Y-103402600D01*
X129963820Y-103203803D01*
X130237373Y-103498269D01*
X130237373Y-103498269D01*
G37*
X130237373Y-103498269D02*
X130089012Y-103597400D01*
X129960000Y-103790481D01*
X129830988Y-103597400D01*
X129685218Y-103500000D01*
X129830988Y-103402600D01*
X129963820Y-103203803D01*
X130237373Y-103498269D01*
G36*
X125009012Y-103402600D02*
X125154782Y-103500000D01*
X125009012Y-103597400D01*
X124880000Y-103790481D01*
X124750988Y-103597400D01*
X124602627Y-103498269D01*
X124876180Y-103203803D01*
X125009012Y-103402600D01*
X125009012Y-103402600D01*
G37*
X125009012Y-103402600D02*
X125154782Y-103500000D01*
X125009012Y-103597400D01*
X124880000Y-103790481D01*
X124750988Y-103597400D01*
X124602627Y-103498269D01*
X124876180Y-103203803D01*
X125009012Y-103402600D01*
M02*
