G04 #@! TF.FileFunction,Copper,L2,Bot,Signal*
%FSLAX46Y46*%
G04 Gerber Fmt 4.6, Leading zero omitted, Abs format (unit mm)*
G04 Created by KiCad (PCBNEW 4.0.5) date 03/21/17 11:14:39*
%MOMM*%
%LPD*%
G01*
G04 APERTURE LIST*
%ADD10C,0.100000*%
%ADD11R,1.700000X1.700000*%
%ADD12O,1.700000X1.700000*%
%ADD13C,2.100000*%
%ADD14R,2.100000X2.100000*%
%ADD15C,1.998980*%
%ADD16O,1.998980X1.998980*%
%ADD17R,1.998980X1.998980*%
%ADD18C,2.340000*%
%ADD19R,4.191000X1.270000*%
%ADD20C,0.600000*%
%ADD21C,0.500000*%
%ADD22C,0.250000*%
%ADD23C,0.254000*%
G04 APERTURE END LIST*
D10*
D11*
X122618500Y-36068000D03*
D12*
X122618500Y-33528000D03*
X125158500Y-36068000D03*
X125158500Y-33528000D03*
X127698500Y-36068000D03*
X127698500Y-33528000D03*
X130238500Y-36068000D03*
X130238500Y-33528000D03*
X132778500Y-36068000D03*
X132778500Y-33528000D03*
X135318500Y-36068000D03*
X135318500Y-33528000D03*
X137858500Y-36068000D03*
X137858500Y-33528000D03*
X140398500Y-36068000D03*
X140398500Y-33528000D03*
X142938500Y-36068000D03*
X142938500Y-33528000D03*
X145478500Y-36068000D03*
X145478500Y-33528000D03*
X148018500Y-36068000D03*
X148018500Y-33528000D03*
X150558500Y-36068000D03*
X150558500Y-33528000D03*
X153098500Y-36068000D03*
X153098500Y-33528000D03*
X155638500Y-36068000D03*
X155638500Y-33528000D03*
X158178500Y-36068000D03*
X158178500Y-33528000D03*
X160718500Y-36068000D03*
X160718500Y-33528000D03*
X163258500Y-36068000D03*
X163258500Y-33528000D03*
X165798500Y-36068000D03*
X165798500Y-33528000D03*
X168338500Y-36068000D03*
X168338500Y-33528000D03*
X170878500Y-36068000D03*
X170878500Y-33528000D03*
D13*
X148717000Y-44069000D03*
X148717000Y-54869000D03*
D14*
X159517000Y-54869000D03*
D13*
X159517000Y-44069000D03*
D15*
X135366760Y-59436000D03*
X125206760Y-59436000D03*
D16*
X141033500Y-56642000D03*
D17*
X138493500Y-56642000D03*
D18*
X116141500Y-48561000D03*
X118641500Y-46061000D03*
X116141500Y-43561000D03*
D19*
X176720500Y-47231300D03*
X176720500Y-42938700D03*
D20*
X133477000Y-49657000D03*
X128460500Y-48006000D03*
X127317500Y-39497000D03*
X164147500Y-41529000D03*
X169989500Y-53784500D03*
X152273000Y-54864000D03*
X139382500Y-42227500D03*
X123888500Y-49593500D03*
X173672500Y-39814500D03*
X167005000Y-55880000D03*
X133985000Y-45148500D03*
X137287000Y-40068500D03*
X136271000Y-38862000D03*
X135572500Y-56324500D03*
X129222500Y-41084500D03*
X124269500Y-39116000D03*
X152527000Y-42608500D03*
X151765000Y-48831500D03*
X158178500Y-48831500D03*
X119507000Y-54165500D03*
X117221000Y-53276500D03*
X133096000Y-51625500D03*
X176720500Y-42938700D03*
X176720500Y-47231300D03*
X129476500Y-45021500D03*
X129095500Y-51054000D03*
X129476500Y-48450500D03*
X129730500Y-47688500D03*
X128270000Y-49784000D03*
X125031500Y-50546000D03*
X134874000Y-47117000D03*
X170370500Y-40386000D03*
X134429500Y-48133000D03*
X141732000Y-39560500D03*
X139192000Y-48387000D03*
X144716500Y-44132500D03*
X145351500Y-42291000D03*
X139128500Y-47561500D03*
X146177000Y-42926000D03*
X146177000Y-41148000D03*
X149669500Y-40513000D03*
X139255500Y-49720500D03*
X139128500Y-46736000D03*
X148336000Y-40195500D03*
X151130000Y-39370000D03*
X139128500Y-45910500D03*
X162687000Y-38608000D03*
X138938000Y-45085000D03*
X127698500Y-45656500D03*
X122428000Y-49085500D03*
D21*
X118641500Y-46061000D02*
X118641500Y-40045000D01*
X118641500Y-40045000D02*
X122618500Y-36068000D01*
X132905500Y-56974740D02*
X135366760Y-59436000D01*
X132905500Y-51816000D02*
X132905500Y-56974740D01*
X133096000Y-51625500D02*
X132905500Y-51816000D01*
D22*
X158178500Y-33528000D02*
X158305500Y-33528000D01*
X158305500Y-33528000D02*
X159448500Y-34671000D01*
X159448500Y-34671000D02*
X159448500Y-36957000D01*
X163258500Y-33528000D02*
X163385500Y-33528000D01*
X163385500Y-33528000D02*
X164528500Y-34671000D01*
X164528500Y-34671000D02*
X164528500Y-36893500D01*
X145478500Y-33528000D02*
X145732500Y-33528000D01*
X145732500Y-33528000D02*
X146748500Y-34544000D01*
X146748500Y-34544000D02*
X146748500Y-36893500D01*
X137858500Y-33528000D02*
X137922000Y-33528000D01*
X137922000Y-33528000D02*
X139128500Y-34734500D01*
X139128500Y-34734500D02*
X139128500Y-36893500D01*
X127698500Y-33528000D02*
X128016000Y-33528000D01*
X128016000Y-33528000D02*
X128968500Y-34480500D01*
X128968500Y-34480500D02*
X128968500Y-36830000D01*
D21*
X125793500Y-49784000D02*
X128270000Y-49784000D01*
X125031500Y-50546000D02*
X125793500Y-49784000D01*
X134874000Y-47117000D02*
X134556500Y-46799500D01*
X134556500Y-46799500D02*
X133858000Y-46799500D01*
X128016000Y-59436000D02*
X125206760Y-59436000D01*
X132334000Y-46799500D02*
X133858000Y-46799500D01*
X130492500Y-48641000D02*
X132334000Y-46799500D01*
X130492500Y-56959500D02*
X130492500Y-48641000D01*
X128016000Y-59436000D02*
X130492500Y-56959500D01*
X170243500Y-40132000D02*
X170243500Y-40259000D01*
X170243500Y-40259000D02*
X170370500Y-40386000D01*
X159517000Y-44069000D02*
X159517000Y-40571500D01*
X159956500Y-40132000D02*
X170243500Y-40132000D01*
X170243500Y-40132000D02*
X170307000Y-40132000D01*
X159517000Y-40571500D02*
X159956500Y-40132000D01*
X134429500Y-53149500D02*
X134429500Y-48133000D01*
X135318500Y-54038500D02*
X134429500Y-53149500D01*
X140716000Y-54038500D02*
X135318500Y-54038500D01*
X141033500Y-56642000D02*
X141033500Y-54356000D01*
X141033500Y-54356000D02*
X140716000Y-54038500D01*
X148717000Y-44069000D02*
X148717000Y-47752000D01*
X142430500Y-54038500D02*
X140716000Y-54038500D01*
X148717000Y-47752000D02*
X142430500Y-54038500D01*
D22*
X141668500Y-34861500D02*
X141668500Y-39243000D01*
X141668500Y-39243000D02*
X141732000Y-39560500D01*
X140398500Y-33528000D02*
X141668500Y-34861500D01*
D21*
X139192000Y-48387000D02*
X140462000Y-48387000D01*
X140462000Y-48387000D02*
X144716500Y-44132500D01*
X140081000Y-47561500D02*
X145351500Y-42291000D01*
X139128500Y-47561500D02*
X140081000Y-47561500D01*
X146177000Y-41148000D02*
X146177000Y-42926000D01*
X140462000Y-49720500D02*
X149669500Y-40513000D01*
X139255500Y-49720500D02*
X140462000Y-49720500D01*
X139128500Y-46736000D02*
X139509500Y-46736000D01*
X146050000Y-40195500D02*
X148336000Y-40195500D01*
X139509500Y-46736000D02*
X146050000Y-40195500D01*
X139192000Y-45910500D02*
X145732500Y-39370000D01*
X145732500Y-39370000D02*
X151130000Y-39370000D01*
X139128500Y-45910500D02*
X139192000Y-45910500D01*
X145415000Y-38608000D02*
X162687000Y-38608000D01*
X138938000Y-45085000D02*
X145415000Y-38608000D01*
X122428000Y-49085500D02*
X125857000Y-45656500D01*
X125857000Y-45656500D02*
X127698500Y-45656500D01*
D23*
G36*
X178550500Y-41668700D02*
X177006250Y-41668700D01*
X176847500Y-41827450D01*
X176847500Y-42811700D01*
X176867500Y-42811700D01*
X176867500Y-43065700D01*
X176847500Y-43065700D01*
X176847500Y-44049950D01*
X177006250Y-44208700D01*
X178550500Y-44208700D01*
X178550500Y-45961300D01*
X177006250Y-45961300D01*
X176847500Y-46120050D01*
X176847500Y-47104300D01*
X176867500Y-47104300D01*
X176867500Y-47358300D01*
X176847500Y-47358300D01*
X176847500Y-48342550D01*
X177006250Y-48501300D01*
X178550500Y-48501300D01*
X178550500Y-60694500D01*
X136419600Y-60694500D01*
X136751606Y-60363073D01*
X137000966Y-59762547D01*
X137001534Y-59112306D01*
X136753222Y-58511345D01*
X136293833Y-58051154D01*
X135693307Y-57801794D01*
X135043066Y-57801226D01*
X135000962Y-57818623D01*
X133790500Y-56608160D01*
X133790500Y-53755520D01*
X133803710Y-53775290D01*
X134692708Y-54664287D01*
X134692710Y-54664290D01*
X134979825Y-54856133D01*
X135036016Y-54867310D01*
X135318500Y-54923501D01*
X135318505Y-54923500D01*
X140148500Y-54923500D01*
X140148500Y-55283929D01*
X140056423Y-55345453D01*
X139957080Y-55191069D01*
X139744880Y-55046079D01*
X139492990Y-54995070D01*
X137494010Y-54995070D01*
X137258693Y-55039348D01*
X137042569Y-55178420D01*
X136897579Y-55390620D01*
X136846570Y-55642510D01*
X136846570Y-57641490D01*
X136890848Y-57876807D01*
X137029920Y-58092931D01*
X137242120Y-58237921D01*
X137494010Y-58288930D01*
X139492990Y-58288930D01*
X139728307Y-58244652D01*
X139944431Y-58105580D01*
X140057890Y-57939527D01*
X140375986Y-58152072D01*
X141001478Y-58276490D01*
X141065522Y-58276490D01*
X141091538Y-58271315D01*
X173632630Y-58271315D01*
X173956980Y-59056300D01*
X174557041Y-59657409D01*
X175341459Y-59983128D01*
X176190815Y-59983870D01*
X176975800Y-59659520D01*
X177576909Y-59059459D01*
X177902628Y-58275041D01*
X177903370Y-57425685D01*
X177579020Y-56640700D01*
X176978959Y-56039591D01*
X176194541Y-55713872D01*
X175345185Y-55713130D01*
X174560200Y-56037480D01*
X173959091Y-56637541D01*
X173633372Y-57421959D01*
X173632630Y-58271315D01*
X141091538Y-58271315D01*
X141691014Y-58152072D01*
X142221281Y-57797759D01*
X142575594Y-57267492D01*
X142700012Y-56642000D01*
X142583789Y-56057703D01*
X147707902Y-56057703D01*
X147812687Y-56329745D01*
X148440526Y-56564619D01*
X149110456Y-56541349D01*
X149621313Y-56329745D01*
X149726098Y-56057703D01*
X148717000Y-55048605D01*
X147707902Y-56057703D01*
X142583789Y-56057703D01*
X142575594Y-56016508D01*
X142221281Y-55486241D01*
X141918500Y-55283929D01*
X141918500Y-54923500D01*
X142430495Y-54923500D01*
X142430500Y-54923501D01*
X142712984Y-54867310D01*
X142769175Y-54856133D01*
X143056290Y-54664290D01*
X143128053Y-54592526D01*
X147021381Y-54592526D01*
X147044651Y-55262456D01*
X147256255Y-55773313D01*
X147528297Y-55878098D01*
X148537395Y-54869000D01*
X148896605Y-54869000D01*
X149905703Y-55878098D01*
X150177745Y-55773313D01*
X150409148Y-55154750D01*
X157832000Y-55154750D01*
X157832000Y-56045310D01*
X157928673Y-56278699D01*
X158107302Y-56457327D01*
X158340691Y-56554000D01*
X159231250Y-56554000D01*
X159390000Y-56395250D01*
X159390000Y-54996000D01*
X159644000Y-54996000D01*
X159644000Y-56395250D01*
X159802750Y-56554000D01*
X160693309Y-56554000D01*
X160926698Y-56457327D01*
X161105327Y-56278699D01*
X161202000Y-56045310D01*
X161202000Y-55154750D01*
X161043250Y-54996000D01*
X159644000Y-54996000D01*
X159390000Y-54996000D01*
X157990750Y-54996000D01*
X157832000Y-55154750D01*
X150409148Y-55154750D01*
X150412619Y-55145474D01*
X150389349Y-54475544D01*
X150177745Y-53964687D01*
X149905703Y-53859902D01*
X148896605Y-54869000D01*
X148537395Y-54869000D01*
X147528297Y-53859902D01*
X147256255Y-53964687D01*
X147021381Y-54592526D01*
X143128053Y-54592526D01*
X144040282Y-53680297D01*
X147707902Y-53680297D01*
X148717000Y-54689395D01*
X149713705Y-53692690D01*
X157832000Y-53692690D01*
X157832000Y-54583250D01*
X157990750Y-54742000D01*
X159390000Y-54742000D01*
X159390000Y-53342750D01*
X159644000Y-53342750D01*
X159644000Y-54742000D01*
X161043250Y-54742000D01*
X161202000Y-54583250D01*
X161202000Y-53692690D01*
X161105327Y-53459301D01*
X160926698Y-53280673D01*
X160693309Y-53184000D01*
X159802750Y-53184000D01*
X159644000Y-53342750D01*
X159390000Y-53342750D01*
X159231250Y-53184000D01*
X158340691Y-53184000D01*
X158107302Y-53280673D01*
X157928673Y-53459301D01*
X157832000Y-53692690D01*
X149713705Y-53692690D01*
X149726098Y-53680297D01*
X149621313Y-53408255D01*
X148993474Y-53173381D01*
X148323544Y-53196651D01*
X147812687Y-53408255D01*
X147707902Y-53680297D01*
X144040282Y-53680297D01*
X149342787Y-48377792D01*
X149342790Y-48377790D01*
X149506353Y-48133000D01*
X149534634Y-48090674D01*
X149602001Y-47752000D01*
X149602000Y-47751995D01*
X149602000Y-47517050D01*
X173990000Y-47517050D01*
X173990000Y-47992609D01*
X174086673Y-48225998D01*
X174265301Y-48404627D01*
X174498690Y-48501300D01*
X176434750Y-48501300D01*
X176593500Y-48342550D01*
X176593500Y-47358300D01*
X174148750Y-47358300D01*
X173990000Y-47517050D01*
X149602000Y-47517050D01*
X149602000Y-46469991D01*
X173990000Y-46469991D01*
X173990000Y-46945550D01*
X174148750Y-47104300D01*
X176593500Y-47104300D01*
X176593500Y-46120050D01*
X176434750Y-45961300D01*
X174498690Y-45961300D01*
X174265301Y-46057973D01*
X174086673Y-46236602D01*
X173990000Y-46469991D01*
X149602000Y-46469991D01*
X149602000Y-45526498D01*
X149670229Y-45498306D01*
X150144640Y-45024722D01*
X150401707Y-44405638D01*
X150402292Y-43735303D01*
X150146306Y-43115771D01*
X149672722Y-42641360D01*
X149053638Y-42384293D01*
X149049789Y-42384290D01*
X150078334Y-41355745D01*
X150198443Y-41306117D01*
X150461692Y-41043327D01*
X150604338Y-40699799D01*
X150604662Y-40327833D01*
X150574568Y-40255000D01*
X150823178Y-40255000D01*
X150943201Y-40304838D01*
X151315167Y-40305162D01*
X151658943Y-40163117D01*
X151922192Y-39900327D01*
X152064838Y-39556799D01*
X152064894Y-39493000D01*
X159350480Y-39493000D01*
X159330710Y-39506210D01*
X159330708Y-39506213D01*
X158891210Y-39945710D01*
X158699367Y-40232825D01*
X158693365Y-40263000D01*
X158631999Y-40571500D01*
X158632000Y-40571505D01*
X158632000Y-42611502D01*
X158563771Y-42639694D01*
X158089360Y-43113278D01*
X157832293Y-43732362D01*
X157831708Y-44402697D01*
X158087694Y-45022229D01*
X158561278Y-45496640D01*
X159180362Y-45753707D01*
X159850697Y-45754292D01*
X160470229Y-45498306D01*
X160944640Y-45024722D01*
X161201707Y-44405638D01*
X161202292Y-43735303D01*
X160991212Y-43224450D01*
X173990000Y-43224450D01*
X173990000Y-43700009D01*
X174086673Y-43933398D01*
X174265301Y-44112027D01*
X174498690Y-44208700D01*
X176434750Y-44208700D01*
X176593500Y-44049950D01*
X176593500Y-43065700D01*
X174148750Y-43065700D01*
X173990000Y-43224450D01*
X160991212Y-43224450D01*
X160946306Y-43115771D01*
X160472722Y-42641360D01*
X160402000Y-42611994D01*
X160402000Y-42177391D01*
X173990000Y-42177391D01*
X173990000Y-42652950D01*
X174148750Y-42811700D01*
X176593500Y-42811700D01*
X176593500Y-41827450D01*
X176434750Y-41668700D01*
X174498690Y-41668700D01*
X174265301Y-41765373D01*
X174086673Y-41944002D01*
X173990000Y-42177391D01*
X160402000Y-42177391D01*
X160402000Y-41017000D01*
X169679262Y-41017000D01*
X169840173Y-41178192D01*
X170183701Y-41320838D01*
X170555667Y-41321162D01*
X170899443Y-41179117D01*
X171162692Y-40916327D01*
X171305338Y-40572799D01*
X171305662Y-40200833D01*
X171163617Y-39857057D01*
X171130764Y-39824146D01*
X171124633Y-39793325D01*
X170932790Y-39506210D01*
X170645675Y-39314367D01*
X170307000Y-39247000D01*
X163370329Y-39247000D01*
X163479192Y-39138327D01*
X163621838Y-38794799D01*
X163622162Y-38422833D01*
X163480117Y-38079057D01*
X163217327Y-37815808D01*
X162873799Y-37673162D01*
X162501833Y-37672838D01*
X162380431Y-37723000D01*
X145415005Y-37723000D01*
X145415000Y-37722999D01*
X145076325Y-37790367D01*
X144789210Y-37982210D01*
X144789208Y-37982213D01*
X138529164Y-44242256D01*
X138409057Y-44291883D01*
X138145808Y-44554673D01*
X138003162Y-44898201D01*
X138002838Y-45270167D01*
X138144883Y-45613943D01*
X138211519Y-45680696D01*
X138193662Y-45723701D01*
X138193338Y-46095667D01*
X138287429Y-46323386D01*
X138193662Y-46549201D01*
X138193338Y-46921167D01*
X138287429Y-47148886D01*
X138193662Y-47374701D01*
X138193338Y-47746667D01*
X138319101Y-48051037D01*
X138257162Y-48200201D01*
X138256838Y-48572167D01*
X138398883Y-48915943D01*
X138568154Y-49085510D01*
X138463308Y-49190173D01*
X138320662Y-49533701D01*
X138320338Y-49905667D01*
X138462383Y-50249443D01*
X138725173Y-50512692D01*
X139068701Y-50655338D01*
X139440667Y-50655662D01*
X139562069Y-50605500D01*
X140461995Y-50605500D01*
X140462000Y-50605501D01*
X140761125Y-50546000D01*
X140800675Y-50538133D01*
X141087790Y-50346290D01*
X147031708Y-44402371D01*
X147031708Y-44402697D01*
X147287694Y-45022229D01*
X147761278Y-45496640D01*
X147832000Y-45526006D01*
X147832000Y-47385421D01*
X142063920Y-53153500D01*
X140716005Y-53153500D01*
X140716000Y-53153499D01*
X140715995Y-53153500D01*
X135685079Y-53153500D01*
X135314500Y-52782920D01*
X135314500Y-48439822D01*
X135364338Y-48319799D01*
X135364662Y-47947833D01*
X135356933Y-47929128D01*
X135402943Y-47910117D01*
X135666192Y-47647327D01*
X135808838Y-47303799D01*
X135809162Y-46931833D01*
X135667117Y-46588057D01*
X135404327Y-46324808D01*
X135283014Y-46274434D01*
X135182290Y-46173710D01*
X134895175Y-45981867D01*
X134835521Y-45970001D01*
X134556500Y-45914499D01*
X134556495Y-45914500D01*
X132334005Y-45914500D01*
X132334000Y-45914499D01*
X131995325Y-45981867D01*
X131708210Y-46173710D01*
X131708208Y-46173713D01*
X129866710Y-48015210D01*
X129674867Y-48302325D01*
X129674867Y-48302326D01*
X129607499Y-48641000D01*
X129607500Y-48641005D01*
X129607500Y-56592921D01*
X127649420Y-58551000D01*
X126609607Y-58551000D01*
X126593222Y-58511345D01*
X126133833Y-58051154D01*
X125533307Y-57801794D01*
X124883066Y-57801226D01*
X124282105Y-58049538D01*
X123821914Y-58508927D01*
X123572554Y-59109453D01*
X123571986Y-59759694D01*
X123820298Y-60360655D01*
X124153561Y-60694500D01*
X114946500Y-60694500D01*
X114946500Y-58271315D01*
X115593630Y-58271315D01*
X115917980Y-59056300D01*
X116518041Y-59657409D01*
X117302459Y-59983128D01*
X118151815Y-59983870D01*
X118936800Y-59659520D01*
X119537909Y-59059459D01*
X119863628Y-58275041D01*
X119864370Y-57425685D01*
X119540020Y-56640700D01*
X118939959Y-56039591D01*
X118155541Y-55713872D01*
X117306185Y-55713130D01*
X116521200Y-56037480D01*
X115920091Y-56637541D01*
X115594372Y-57421959D01*
X115593630Y-58271315D01*
X114946500Y-58271315D01*
X114946500Y-50731167D01*
X124096338Y-50731167D01*
X124238383Y-51074943D01*
X124501173Y-51338192D01*
X124844701Y-51480838D01*
X125216667Y-51481162D01*
X125560443Y-51339117D01*
X125823692Y-51076327D01*
X125874066Y-50955014D01*
X126160079Y-50669000D01*
X127963178Y-50669000D01*
X128083201Y-50718838D01*
X128455167Y-50719162D01*
X128798943Y-50577117D01*
X129062192Y-50314327D01*
X129204838Y-49970799D01*
X129205162Y-49598833D01*
X129063117Y-49255057D01*
X128800327Y-48991808D01*
X128662053Y-48934391D01*
X128989443Y-48799117D01*
X129252692Y-48536327D01*
X129395338Y-48192799D01*
X129395662Y-47820833D01*
X129253617Y-47477057D01*
X128990827Y-47213808D01*
X128647299Y-47071162D01*
X128275333Y-47070838D01*
X127931557Y-47212883D01*
X127668308Y-47475673D01*
X127525662Y-47819201D01*
X127525338Y-48191167D01*
X127667383Y-48534943D01*
X127930173Y-48798192D01*
X128068447Y-48855609D01*
X127963431Y-48899000D01*
X125793505Y-48899000D01*
X125793500Y-48898999D01*
X125511016Y-48955190D01*
X125454825Y-48966367D01*
X125167710Y-49158210D01*
X125167708Y-49158213D01*
X124622665Y-49703256D01*
X124502557Y-49752883D01*
X124239308Y-50015673D01*
X124096662Y-50359201D01*
X124096338Y-50731167D01*
X114946500Y-50731167D01*
X114946500Y-49918798D01*
X115117715Y-50090312D01*
X115780888Y-50365686D01*
X116498962Y-50366313D01*
X117162615Y-50092097D01*
X117670812Y-49584785D01*
X117801245Y-49270667D01*
X121492838Y-49270667D01*
X121634883Y-49614443D01*
X121897673Y-49877692D01*
X122241201Y-50020338D01*
X122613167Y-50020662D01*
X122956943Y-49878617D01*
X123220192Y-49615827D01*
X123270566Y-49494514D01*
X126223579Y-46541500D01*
X127391678Y-46541500D01*
X127511701Y-46591338D01*
X127883667Y-46591662D01*
X128227443Y-46449617D01*
X128490692Y-46186827D01*
X128633338Y-45843299D01*
X128633662Y-45471333D01*
X128491617Y-45127557D01*
X128228827Y-44864308D01*
X127885299Y-44721662D01*
X127513333Y-44721338D01*
X127391931Y-44771500D01*
X125857000Y-44771500D01*
X125518325Y-44838867D01*
X125231210Y-45030710D01*
X125231208Y-45030713D01*
X122019164Y-48242756D01*
X121899057Y-48292383D01*
X121635808Y-48555173D01*
X121493162Y-48898701D01*
X121492838Y-49270667D01*
X117801245Y-49270667D01*
X117946186Y-48921612D01*
X117946813Y-48203538D01*
X117709115Y-47628265D01*
X118280888Y-47865686D01*
X118998962Y-47866313D01*
X119662615Y-47592097D01*
X120170812Y-47084785D01*
X120446186Y-46421612D01*
X120446813Y-45703538D01*
X120172597Y-45039885D01*
X119665285Y-44531688D01*
X119526500Y-44474059D01*
X119526500Y-40411580D01*
X120255912Y-39682167D01*
X126382338Y-39682167D01*
X126524383Y-40025943D01*
X126787173Y-40289192D01*
X127130701Y-40431838D01*
X127502667Y-40432162D01*
X127846443Y-40290117D01*
X128109692Y-40027327D01*
X128252338Y-39683799D01*
X128252662Y-39311833D01*
X128110617Y-38968057D01*
X127847827Y-38704808D01*
X127504299Y-38562162D01*
X127132333Y-38561838D01*
X126788557Y-38703883D01*
X126525308Y-38966673D01*
X126382662Y-39310201D01*
X126382338Y-39682167D01*
X120255912Y-39682167D01*
X122372639Y-37565440D01*
X123468500Y-37565440D01*
X123703817Y-37521162D01*
X123919941Y-37382090D01*
X124064931Y-37169890D01*
X124078586Y-37102459D01*
X124108446Y-37147147D01*
X124590215Y-37469054D01*
X125158500Y-37582093D01*
X125726785Y-37469054D01*
X126208554Y-37147147D01*
X126428500Y-36817974D01*
X126648446Y-37147147D01*
X127130215Y-37469054D01*
X127698500Y-37582093D01*
X128266785Y-37469054D01*
X128748554Y-37147147D01*
X128968500Y-36817974D01*
X129188446Y-37147147D01*
X129670215Y-37469054D01*
X130238500Y-37582093D01*
X130806785Y-37469054D01*
X131288554Y-37147147D01*
X131516202Y-36806447D01*
X131583317Y-36949358D01*
X132011576Y-37339645D01*
X132421610Y-37509476D01*
X132651500Y-37388155D01*
X132651500Y-36195000D01*
X132631500Y-36195000D01*
X132631500Y-35941000D01*
X132651500Y-35941000D01*
X132651500Y-35921000D01*
X132905500Y-35921000D01*
X132905500Y-35941000D01*
X132925500Y-35941000D01*
X132925500Y-36195000D01*
X132905500Y-36195000D01*
X132905500Y-37388155D01*
X133135390Y-37509476D01*
X133545424Y-37339645D01*
X133973683Y-36949358D01*
X134040798Y-36806447D01*
X134268446Y-37147147D01*
X134750215Y-37469054D01*
X135318500Y-37582093D01*
X135886785Y-37469054D01*
X136368554Y-37147147D01*
X136588500Y-36817974D01*
X136808446Y-37147147D01*
X137290215Y-37469054D01*
X137858500Y-37582093D01*
X138426785Y-37469054D01*
X138908554Y-37147147D01*
X139128500Y-36817974D01*
X139348446Y-37147147D01*
X139830215Y-37469054D01*
X140398500Y-37582093D01*
X140908500Y-37480648D01*
X140908500Y-39105571D01*
X140797162Y-39373701D01*
X140796838Y-39745667D01*
X140938883Y-40089443D01*
X141201673Y-40352692D01*
X141545201Y-40495338D01*
X141917167Y-40495662D01*
X142260943Y-40353617D01*
X142524192Y-40090827D01*
X142666838Y-39747299D01*
X142667162Y-39375333D01*
X142525117Y-39031557D01*
X142428500Y-38934771D01*
X142428500Y-37480648D01*
X142938500Y-37582093D01*
X143506785Y-37469054D01*
X143988554Y-37147147D01*
X144208500Y-36817974D01*
X144428446Y-37147147D01*
X144910215Y-37469054D01*
X145478500Y-37582093D01*
X146046785Y-37469054D01*
X146528554Y-37147147D01*
X146748500Y-36817974D01*
X146968446Y-37147147D01*
X147450215Y-37469054D01*
X148018500Y-37582093D01*
X148586785Y-37469054D01*
X149068554Y-37147147D01*
X149288500Y-36817974D01*
X149508446Y-37147147D01*
X149990215Y-37469054D01*
X150558500Y-37582093D01*
X151126785Y-37469054D01*
X151608554Y-37147147D01*
X151836202Y-36806447D01*
X151903317Y-36949358D01*
X152331576Y-37339645D01*
X152741610Y-37509476D01*
X152971500Y-37388155D01*
X152971500Y-36195000D01*
X152951500Y-36195000D01*
X152951500Y-35941000D01*
X152971500Y-35941000D01*
X152971500Y-35921000D01*
X153225500Y-35921000D01*
X153225500Y-35941000D01*
X153245500Y-35941000D01*
X153245500Y-36195000D01*
X153225500Y-36195000D01*
X153225500Y-37388155D01*
X153455390Y-37509476D01*
X153865424Y-37339645D01*
X154293683Y-36949358D01*
X154360798Y-36806447D01*
X154588446Y-37147147D01*
X155070215Y-37469054D01*
X155638500Y-37582093D01*
X156206785Y-37469054D01*
X156688554Y-37147147D01*
X156908500Y-36817974D01*
X157128446Y-37147147D01*
X157610215Y-37469054D01*
X158178500Y-37582093D01*
X158746785Y-37469054D01*
X159228554Y-37147147D01*
X159448500Y-36817974D01*
X159668446Y-37147147D01*
X160150215Y-37469054D01*
X160718500Y-37582093D01*
X161286785Y-37469054D01*
X161768554Y-37147147D01*
X161988500Y-36817974D01*
X162208446Y-37147147D01*
X162690215Y-37469054D01*
X163258500Y-37582093D01*
X163826785Y-37469054D01*
X164308554Y-37147147D01*
X164528500Y-36817974D01*
X164748446Y-37147147D01*
X165230215Y-37469054D01*
X165798500Y-37582093D01*
X166366785Y-37469054D01*
X166848554Y-37147147D01*
X167068500Y-36817974D01*
X167288446Y-37147147D01*
X167770215Y-37469054D01*
X168338500Y-37582093D01*
X168906785Y-37469054D01*
X169388554Y-37147147D01*
X169616202Y-36806447D01*
X169683317Y-36949358D01*
X170111576Y-37339645D01*
X170521610Y-37509476D01*
X170751500Y-37388155D01*
X170751500Y-36195000D01*
X171005500Y-36195000D01*
X171005500Y-37388155D01*
X171235390Y-37509476D01*
X171645424Y-37339645D01*
X172073683Y-36949358D01*
X172319986Y-36424892D01*
X172199319Y-36195000D01*
X171005500Y-36195000D01*
X170751500Y-36195000D01*
X170731500Y-36195000D01*
X170731500Y-35941000D01*
X170751500Y-35941000D01*
X170751500Y-35921000D01*
X171005500Y-35921000D01*
X171005500Y-35941000D01*
X172199319Y-35941000D01*
X172319986Y-35711108D01*
X172089732Y-35220815D01*
X173632630Y-35220815D01*
X173956980Y-36005800D01*
X174557041Y-36606909D01*
X175341459Y-36932628D01*
X176190815Y-36933370D01*
X176975800Y-36609020D01*
X177576909Y-36008959D01*
X177902628Y-35224541D01*
X177903370Y-34375185D01*
X177579020Y-33590200D01*
X176978959Y-32989091D01*
X176194541Y-32663372D01*
X175345185Y-32662630D01*
X174560200Y-32986980D01*
X173959091Y-33587041D01*
X173633372Y-34371459D01*
X173632630Y-35220815D01*
X172089732Y-35220815D01*
X172073683Y-35186642D01*
X171645424Y-34796355D01*
X171645399Y-34796345D01*
X171928554Y-34607147D01*
X172250461Y-34125378D01*
X172363500Y-33557093D01*
X172363500Y-33498907D01*
X172250461Y-32930622D01*
X171928554Y-32448853D01*
X171446785Y-32126946D01*
X171205744Y-32079000D01*
X178550500Y-32079000D01*
X178550500Y-41668700D01*
X178550500Y-41668700D01*
G37*
X178550500Y-41668700D02*
X177006250Y-41668700D01*
X176847500Y-41827450D01*
X176847500Y-42811700D01*
X176867500Y-42811700D01*
X176867500Y-43065700D01*
X176847500Y-43065700D01*
X176847500Y-44049950D01*
X177006250Y-44208700D01*
X178550500Y-44208700D01*
X178550500Y-45961300D01*
X177006250Y-45961300D01*
X176847500Y-46120050D01*
X176847500Y-47104300D01*
X176867500Y-47104300D01*
X176867500Y-47358300D01*
X176847500Y-47358300D01*
X176847500Y-48342550D01*
X177006250Y-48501300D01*
X178550500Y-48501300D01*
X178550500Y-60694500D01*
X136419600Y-60694500D01*
X136751606Y-60363073D01*
X137000966Y-59762547D01*
X137001534Y-59112306D01*
X136753222Y-58511345D01*
X136293833Y-58051154D01*
X135693307Y-57801794D01*
X135043066Y-57801226D01*
X135000962Y-57818623D01*
X133790500Y-56608160D01*
X133790500Y-53755520D01*
X133803710Y-53775290D01*
X134692708Y-54664287D01*
X134692710Y-54664290D01*
X134979825Y-54856133D01*
X135036016Y-54867310D01*
X135318500Y-54923501D01*
X135318505Y-54923500D01*
X140148500Y-54923500D01*
X140148500Y-55283929D01*
X140056423Y-55345453D01*
X139957080Y-55191069D01*
X139744880Y-55046079D01*
X139492990Y-54995070D01*
X137494010Y-54995070D01*
X137258693Y-55039348D01*
X137042569Y-55178420D01*
X136897579Y-55390620D01*
X136846570Y-55642510D01*
X136846570Y-57641490D01*
X136890848Y-57876807D01*
X137029920Y-58092931D01*
X137242120Y-58237921D01*
X137494010Y-58288930D01*
X139492990Y-58288930D01*
X139728307Y-58244652D01*
X139944431Y-58105580D01*
X140057890Y-57939527D01*
X140375986Y-58152072D01*
X141001478Y-58276490D01*
X141065522Y-58276490D01*
X141091538Y-58271315D01*
X173632630Y-58271315D01*
X173956980Y-59056300D01*
X174557041Y-59657409D01*
X175341459Y-59983128D01*
X176190815Y-59983870D01*
X176975800Y-59659520D01*
X177576909Y-59059459D01*
X177902628Y-58275041D01*
X177903370Y-57425685D01*
X177579020Y-56640700D01*
X176978959Y-56039591D01*
X176194541Y-55713872D01*
X175345185Y-55713130D01*
X174560200Y-56037480D01*
X173959091Y-56637541D01*
X173633372Y-57421959D01*
X173632630Y-58271315D01*
X141091538Y-58271315D01*
X141691014Y-58152072D01*
X142221281Y-57797759D01*
X142575594Y-57267492D01*
X142700012Y-56642000D01*
X142583789Y-56057703D01*
X147707902Y-56057703D01*
X147812687Y-56329745D01*
X148440526Y-56564619D01*
X149110456Y-56541349D01*
X149621313Y-56329745D01*
X149726098Y-56057703D01*
X148717000Y-55048605D01*
X147707902Y-56057703D01*
X142583789Y-56057703D01*
X142575594Y-56016508D01*
X142221281Y-55486241D01*
X141918500Y-55283929D01*
X141918500Y-54923500D01*
X142430495Y-54923500D01*
X142430500Y-54923501D01*
X142712984Y-54867310D01*
X142769175Y-54856133D01*
X143056290Y-54664290D01*
X143128053Y-54592526D01*
X147021381Y-54592526D01*
X147044651Y-55262456D01*
X147256255Y-55773313D01*
X147528297Y-55878098D01*
X148537395Y-54869000D01*
X148896605Y-54869000D01*
X149905703Y-55878098D01*
X150177745Y-55773313D01*
X150409148Y-55154750D01*
X157832000Y-55154750D01*
X157832000Y-56045310D01*
X157928673Y-56278699D01*
X158107302Y-56457327D01*
X158340691Y-56554000D01*
X159231250Y-56554000D01*
X159390000Y-56395250D01*
X159390000Y-54996000D01*
X159644000Y-54996000D01*
X159644000Y-56395250D01*
X159802750Y-56554000D01*
X160693309Y-56554000D01*
X160926698Y-56457327D01*
X161105327Y-56278699D01*
X161202000Y-56045310D01*
X161202000Y-55154750D01*
X161043250Y-54996000D01*
X159644000Y-54996000D01*
X159390000Y-54996000D01*
X157990750Y-54996000D01*
X157832000Y-55154750D01*
X150409148Y-55154750D01*
X150412619Y-55145474D01*
X150389349Y-54475544D01*
X150177745Y-53964687D01*
X149905703Y-53859902D01*
X148896605Y-54869000D01*
X148537395Y-54869000D01*
X147528297Y-53859902D01*
X147256255Y-53964687D01*
X147021381Y-54592526D01*
X143128053Y-54592526D01*
X144040282Y-53680297D01*
X147707902Y-53680297D01*
X148717000Y-54689395D01*
X149713705Y-53692690D01*
X157832000Y-53692690D01*
X157832000Y-54583250D01*
X157990750Y-54742000D01*
X159390000Y-54742000D01*
X159390000Y-53342750D01*
X159644000Y-53342750D01*
X159644000Y-54742000D01*
X161043250Y-54742000D01*
X161202000Y-54583250D01*
X161202000Y-53692690D01*
X161105327Y-53459301D01*
X160926698Y-53280673D01*
X160693309Y-53184000D01*
X159802750Y-53184000D01*
X159644000Y-53342750D01*
X159390000Y-53342750D01*
X159231250Y-53184000D01*
X158340691Y-53184000D01*
X158107302Y-53280673D01*
X157928673Y-53459301D01*
X157832000Y-53692690D01*
X149713705Y-53692690D01*
X149726098Y-53680297D01*
X149621313Y-53408255D01*
X148993474Y-53173381D01*
X148323544Y-53196651D01*
X147812687Y-53408255D01*
X147707902Y-53680297D01*
X144040282Y-53680297D01*
X149342787Y-48377792D01*
X149342790Y-48377790D01*
X149506353Y-48133000D01*
X149534634Y-48090674D01*
X149602001Y-47752000D01*
X149602000Y-47751995D01*
X149602000Y-47517050D01*
X173990000Y-47517050D01*
X173990000Y-47992609D01*
X174086673Y-48225998D01*
X174265301Y-48404627D01*
X174498690Y-48501300D01*
X176434750Y-48501300D01*
X176593500Y-48342550D01*
X176593500Y-47358300D01*
X174148750Y-47358300D01*
X173990000Y-47517050D01*
X149602000Y-47517050D01*
X149602000Y-46469991D01*
X173990000Y-46469991D01*
X173990000Y-46945550D01*
X174148750Y-47104300D01*
X176593500Y-47104300D01*
X176593500Y-46120050D01*
X176434750Y-45961300D01*
X174498690Y-45961300D01*
X174265301Y-46057973D01*
X174086673Y-46236602D01*
X173990000Y-46469991D01*
X149602000Y-46469991D01*
X149602000Y-45526498D01*
X149670229Y-45498306D01*
X150144640Y-45024722D01*
X150401707Y-44405638D01*
X150402292Y-43735303D01*
X150146306Y-43115771D01*
X149672722Y-42641360D01*
X149053638Y-42384293D01*
X149049789Y-42384290D01*
X150078334Y-41355745D01*
X150198443Y-41306117D01*
X150461692Y-41043327D01*
X150604338Y-40699799D01*
X150604662Y-40327833D01*
X150574568Y-40255000D01*
X150823178Y-40255000D01*
X150943201Y-40304838D01*
X151315167Y-40305162D01*
X151658943Y-40163117D01*
X151922192Y-39900327D01*
X152064838Y-39556799D01*
X152064894Y-39493000D01*
X159350480Y-39493000D01*
X159330710Y-39506210D01*
X159330708Y-39506213D01*
X158891210Y-39945710D01*
X158699367Y-40232825D01*
X158693365Y-40263000D01*
X158631999Y-40571500D01*
X158632000Y-40571505D01*
X158632000Y-42611502D01*
X158563771Y-42639694D01*
X158089360Y-43113278D01*
X157832293Y-43732362D01*
X157831708Y-44402697D01*
X158087694Y-45022229D01*
X158561278Y-45496640D01*
X159180362Y-45753707D01*
X159850697Y-45754292D01*
X160470229Y-45498306D01*
X160944640Y-45024722D01*
X161201707Y-44405638D01*
X161202292Y-43735303D01*
X160991212Y-43224450D01*
X173990000Y-43224450D01*
X173990000Y-43700009D01*
X174086673Y-43933398D01*
X174265301Y-44112027D01*
X174498690Y-44208700D01*
X176434750Y-44208700D01*
X176593500Y-44049950D01*
X176593500Y-43065700D01*
X174148750Y-43065700D01*
X173990000Y-43224450D01*
X160991212Y-43224450D01*
X160946306Y-43115771D01*
X160472722Y-42641360D01*
X160402000Y-42611994D01*
X160402000Y-42177391D01*
X173990000Y-42177391D01*
X173990000Y-42652950D01*
X174148750Y-42811700D01*
X176593500Y-42811700D01*
X176593500Y-41827450D01*
X176434750Y-41668700D01*
X174498690Y-41668700D01*
X174265301Y-41765373D01*
X174086673Y-41944002D01*
X173990000Y-42177391D01*
X160402000Y-42177391D01*
X160402000Y-41017000D01*
X169679262Y-41017000D01*
X169840173Y-41178192D01*
X170183701Y-41320838D01*
X170555667Y-41321162D01*
X170899443Y-41179117D01*
X171162692Y-40916327D01*
X171305338Y-40572799D01*
X171305662Y-40200833D01*
X171163617Y-39857057D01*
X171130764Y-39824146D01*
X171124633Y-39793325D01*
X170932790Y-39506210D01*
X170645675Y-39314367D01*
X170307000Y-39247000D01*
X163370329Y-39247000D01*
X163479192Y-39138327D01*
X163621838Y-38794799D01*
X163622162Y-38422833D01*
X163480117Y-38079057D01*
X163217327Y-37815808D01*
X162873799Y-37673162D01*
X162501833Y-37672838D01*
X162380431Y-37723000D01*
X145415005Y-37723000D01*
X145415000Y-37722999D01*
X145076325Y-37790367D01*
X144789210Y-37982210D01*
X144789208Y-37982213D01*
X138529164Y-44242256D01*
X138409057Y-44291883D01*
X138145808Y-44554673D01*
X138003162Y-44898201D01*
X138002838Y-45270167D01*
X138144883Y-45613943D01*
X138211519Y-45680696D01*
X138193662Y-45723701D01*
X138193338Y-46095667D01*
X138287429Y-46323386D01*
X138193662Y-46549201D01*
X138193338Y-46921167D01*
X138287429Y-47148886D01*
X138193662Y-47374701D01*
X138193338Y-47746667D01*
X138319101Y-48051037D01*
X138257162Y-48200201D01*
X138256838Y-48572167D01*
X138398883Y-48915943D01*
X138568154Y-49085510D01*
X138463308Y-49190173D01*
X138320662Y-49533701D01*
X138320338Y-49905667D01*
X138462383Y-50249443D01*
X138725173Y-50512692D01*
X139068701Y-50655338D01*
X139440667Y-50655662D01*
X139562069Y-50605500D01*
X140461995Y-50605500D01*
X140462000Y-50605501D01*
X140761125Y-50546000D01*
X140800675Y-50538133D01*
X141087790Y-50346290D01*
X147031708Y-44402371D01*
X147031708Y-44402697D01*
X147287694Y-45022229D01*
X147761278Y-45496640D01*
X147832000Y-45526006D01*
X147832000Y-47385421D01*
X142063920Y-53153500D01*
X140716005Y-53153500D01*
X140716000Y-53153499D01*
X140715995Y-53153500D01*
X135685079Y-53153500D01*
X135314500Y-52782920D01*
X135314500Y-48439822D01*
X135364338Y-48319799D01*
X135364662Y-47947833D01*
X135356933Y-47929128D01*
X135402943Y-47910117D01*
X135666192Y-47647327D01*
X135808838Y-47303799D01*
X135809162Y-46931833D01*
X135667117Y-46588057D01*
X135404327Y-46324808D01*
X135283014Y-46274434D01*
X135182290Y-46173710D01*
X134895175Y-45981867D01*
X134835521Y-45970001D01*
X134556500Y-45914499D01*
X134556495Y-45914500D01*
X132334005Y-45914500D01*
X132334000Y-45914499D01*
X131995325Y-45981867D01*
X131708210Y-46173710D01*
X131708208Y-46173713D01*
X129866710Y-48015210D01*
X129674867Y-48302325D01*
X129674867Y-48302326D01*
X129607499Y-48641000D01*
X129607500Y-48641005D01*
X129607500Y-56592921D01*
X127649420Y-58551000D01*
X126609607Y-58551000D01*
X126593222Y-58511345D01*
X126133833Y-58051154D01*
X125533307Y-57801794D01*
X124883066Y-57801226D01*
X124282105Y-58049538D01*
X123821914Y-58508927D01*
X123572554Y-59109453D01*
X123571986Y-59759694D01*
X123820298Y-60360655D01*
X124153561Y-60694500D01*
X114946500Y-60694500D01*
X114946500Y-58271315D01*
X115593630Y-58271315D01*
X115917980Y-59056300D01*
X116518041Y-59657409D01*
X117302459Y-59983128D01*
X118151815Y-59983870D01*
X118936800Y-59659520D01*
X119537909Y-59059459D01*
X119863628Y-58275041D01*
X119864370Y-57425685D01*
X119540020Y-56640700D01*
X118939959Y-56039591D01*
X118155541Y-55713872D01*
X117306185Y-55713130D01*
X116521200Y-56037480D01*
X115920091Y-56637541D01*
X115594372Y-57421959D01*
X115593630Y-58271315D01*
X114946500Y-58271315D01*
X114946500Y-50731167D01*
X124096338Y-50731167D01*
X124238383Y-51074943D01*
X124501173Y-51338192D01*
X124844701Y-51480838D01*
X125216667Y-51481162D01*
X125560443Y-51339117D01*
X125823692Y-51076327D01*
X125874066Y-50955014D01*
X126160079Y-50669000D01*
X127963178Y-50669000D01*
X128083201Y-50718838D01*
X128455167Y-50719162D01*
X128798943Y-50577117D01*
X129062192Y-50314327D01*
X129204838Y-49970799D01*
X129205162Y-49598833D01*
X129063117Y-49255057D01*
X128800327Y-48991808D01*
X128662053Y-48934391D01*
X128989443Y-48799117D01*
X129252692Y-48536327D01*
X129395338Y-48192799D01*
X129395662Y-47820833D01*
X129253617Y-47477057D01*
X128990827Y-47213808D01*
X128647299Y-47071162D01*
X128275333Y-47070838D01*
X127931557Y-47212883D01*
X127668308Y-47475673D01*
X127525662Y-47819201D01*
X127525338Y-48191167D01*
X127667383Y-48534943D01*
X127930173Y-48798192D01*
X128068447Y-48855609D01*
X127963431Y-48899000D01*
X125793505Y-48899000D01*
X125793500Y-48898999D01*
X125511016Y-48955190D01*
X125454825Y-48966367D01*
X125167710Y-49158210D01*
X125167708Y-49158213D01*
X124622665Y-49703256D01*
X124502557Y-49752883D01*
X124239308Y-50015673D01*
X124096662Y-50359201D01*
X124096338Y-50731167D01*
X114946500Y-50731167D01*
X114946500Y-49918798D01*
X115117715Y-50090312D01*
X115780888Y-50365686D01*
X116498962Y-50366313D01*
X117162615Y-50092097D01*
X117670812Y-49584785D01*
X117801245Y-49270667D01*
X121492838Y-49270667D01*
X121634883Y-49614443D01*
X121897673Y-49877692D01*
X122241201Y-50020338D01*
X122613167Y-50020662D01*
X122956943Y-49878617D01*
X123220192Y-49615827D01*
X123270566Y-49494514D01*
X126223579Y-46541500D01*
X127391678Y-46541500D01*
X127511701Y-46591338D01*
X127883667Y-46591662D01*
X128227443Y-46449617D01*
X128490692Y-46186827D01*
X128633338Y-45843299D01*
X128633662Y-45471333D01*
X128491617Y-45127557D01*
X128228827Y-44864308D01*
X127885299Y-44721662D01*
X127513333Y-44721338D01*
X127391931Y-44771500D01*
X125857000Y-44771500D01*
X125518325Y-44838867D01*
X125231210Y-45030710D01*
X125231208Y-45030713D01*
X122019164Y-48242756D01*
X121899057Y-48292383D01*
X121635808Y-48555173D01*
X121493162Y-48898701D01*
X121492838Y-49270667D01*
X117801245Y-49270667D01*
X117946186Y-48921612D01*
X117946813Y-48203538D01*
X117709115Y-47628265D01*
X118280888Y-47865686D01*
X118998962Y-47866313D01*
X119662615Y-47592097D01*
X120170812Y-47084785D01*
X120446186Y-46421612D01*
X120446813Y-45703538D01*
X120172597Y-45039885D01*
X119665285Y-44531688D01*
X119526500Y-44474059D01*
X119526500Y-40411580D01*
X120255912Y-39682167D01*
X126382338Y-39682167D01*
X126524383Y-40025943D01*
X126787173Y-40289192D01*
X127130701Y-40431838D01*
X127502667Y-40432162D01*
X127846443Y-40290117D01*
X128109692Y-40027327D01*
X128252338Y-39683799D01*
X128252662Y-39311833D01*
X128110617Y-38968057D01*
X127847827Y-38704808D01*
X127504299Y-38562162D01*
X127132333Y-38561838D01*
X126788557Y-38703883D01*
X126525308Y-38966673D01*
X126382662Y-39310201D01*
X126382338Y-39682167D01*
X120255912Y-39682167D01*
X122372639Y-37565440D01*
X123468500Y-37565440D01*
X123703817Y-37521162D01*
X123919941Y-37382090D01*
X124064931Y-37169890D01*
X124078586Y-37102459D01*
X124108446Y-37147147D01*
X124590215Y-37469054D01*
X125158500Y-37582093D01*
X125726785Y-37469054D01*
X126208554Y-37147147D01*
X126428500Y-36817974D01*
X126648446Y-37147147D01*
X127130215Y-37469054D01*
X127698500Y-37582093D01*
X128266785Y-37469054D01*
X128748554Y-37147147D01*
X128968500Y-36817974D01*
X129188446Y-37147147D01*
X129670215Y-37469054D01*
X130238500Y-37582093D01*
X130806785Y-37469054D01*
X131288554Y-37147147D01*
X131516202Y-36806447D01*
X131583317Y-36949358D01*
X132011576Y-37339645D01*
X132421610Y-37509476D01*
X132651500Y-37388155D01*
X132651500Y-36195000D01*
X132631500Y-36195000D01*
X132631500Y-35941000D01*
X132651500Y-35941000D01*
X132651500Y-35921000D01*
X132905500Y-35921000D01*
X132905500Y-35941000D01*
X132925500Y-35941000D01*
X132925500Y-36195000D01*
X132905500Y-36195000D01*
X132905500Y-37388155D01*
X133135390Y-37509476D01*
X133545424Y-37339645D01*
X133973683Y-36949358D01*
X134040798Y-36806447D01*
X134268446Y-37147147D01*
X134750215Y-37469054D01*
X135318500Y-37582093D01*
X135886785Y-37469054D01*
X136368554Y-37147147D01*
X136588500Y-36817974D01*
X136808446Y-37147147D01*
X137290215Y-37469054D01*
X137858500Y-37582093D01*
X138426785Y-37469054D01*
X138908554Y-37147147D01*
X139128500Y-36817974D01*
X139348446Y-37147147D01*
X139830215Y-37469054D01*
X140398500Y-37582093D01*
X140908500Y-37480648D01*
X140908500Y-39105571D01*
X140797162Y-39373701D01*
X140796838Y-39745667D01*
X140938883Y-40089443D01*
X141201673Y-40352692D01*
X141545201Y-40495338D01*
X141917167Y-40495662D01*
X142260943Y-40353617D01*
X142524192Y-40090827D01*
X142666838Y-39747299D01*
X142667162Y-39375333D01*
X142525117Y-39031557D01*
X142428500Y-38934771D01*
X142428500Y-37480648D01*
X142938500Y-37582093D01*
X143506785Y-37469054D01*
X143988554Y-37147147D01*
X144208500Y-36817974D01*
X144428446Y-37147147D01*
X144910215Y-37469054D01*
X145478500Y-37582093D01*
X146046785Y-37469054D01*
X146528554Y-37147147D01*
X146748500Y-36817974D01*
X146968446Y-37147147D01*
X147450215Y-37469054D01*
X148018500Y-37582093D01*
X148586785Y-37469054D01*
X149068554Y-37147147D01*
X149288500Y-36817974D01*
X149508446Y-37147147D01*
X149990215Y-37469054D01*
X150558500Y-37582093D01*
X151126785Y-37469054D01*
X151608554Y-37147147D01*
X151836202Y-36806447D01*
X151903317Y-36949358D01*
X152331576Y-37339645D01*
X152741610Y-37509476D01*
X152971500Y-37388155D01*
X152971500Y-36195000D01*
X152951500Y-36195000D01*
X152951500Y-35941000D01*
X152971500Y-35941000D01*
X152971500Y-35921000D01*
X153225500Y-35921000D01*
X153225500Y-35941000D01*
X153245500Y-35941000D01*
X153245500Y-36195000D01*
X153225500Y-36195000D01*
X153225500Y-37388155D01*
X153455390Y-37509476D01*
X153865424Y-37339645D01*
X154293683Y-36949358D01*
X154360798Y-36806447D01*
X154588446Y-37147147D01*
X155070215Y-37469054D01*
X155638500Y-37582093D01*
X156206785Y-37469054D01*
X156688554Y-37147147D01*
X156908500Y-36817974D01*
X157128446Y-37147147D01*
X157610215Y-37469054D01*
X158178500Y-37582093D01*
X158746785Y-37469054D01*
X159228554Y-37147147D01*
X159448500Y-36817974D01*
X159668446Y-37147147D01*
X160150215Y-37469054D01*
X160718500Y-37582093D01*
X161286785Y-37469054D01*
X161768554Y-37147147D01*
X161988500Y-36817974D01*
X162208446Y-37147147D01*
X162690215Y-37469054D01*
X163258500Y-37582093D01*
X163826785Y-37469054D01*
X164308554Y-37147147D01*
X164528500Y-36817974D01*
X164748446Y-37147147D01*
X165230215Y-37469054D01*
X165798500Y-37582093D01*
X166366785Y-37469054D01*
X166848554Y-37147147D01*
X167068500Y-36817974D01*
X167288446Y-37147147D01*
X167770215Y-37469054D01*
X168338500Y-37582093D01*
X168906785Y-37469054D01*
X169388554Y-37147147D01*
X169616202Y-36806447D01*
X169683317Y-36949358D01*
X170111576Y-37339645D01*
X170521610Y-37509476D01*
X170751500Y-37388155D01*
X170751500Y-36195000D01*
X171005500Y-36195000D01*
X171005500Y-37388155D01*
X171235390Y-37509476D01*
X171645424Y-37339645D01*
X172073683Y-36949358D01*
X172319986Y-36424892D01*
X172199319Y-36195000D01*
X171005500Y-36195000D01*
X170751500Y-36195000D01*
X170731500Y-36195000D01*
X170731500Y-35941000D01*
X170751500Y-35941000D01*
X170751500Y-35921000D01*
X171005500Y-35921000D01*
X171005500Y-35941000D01*
X172199319Y-35941000D01*
X172319986Y-35711108D01*
X172089732Y-35220815D01*
X173632630Y-35220815D01*
X173956980Y-36005800D01*
X174557041Y-36606909D01*
X175341459Y-36932628D01*
X176190815Y-36933370D01*
X176975800Y-36609020D01*
X177576909Y-36008959D01*
X177902628Y-35224541D01*
X177903370Y-34375185D01*
X177579020Y-33590200D01*
X176978959Y-32989091D01*
X176194541Y-32663372D01*
X175345185Y-32662630D01*
X174560200Y-32986980D01*
X173959091Y-33587041D01*
X173633372Y-34371459D01*
X173632630Y-35220815D01*
X172089732Y-35220815D01*
X172073683Y-35186642D01*
X171645424Y-34796355D01*
X171645399Y-34796345D01*
X171928554Y-34607147D01*
X172250461Y-34125378D01*
X172363500Y-33557093D01*
X172363500Y-33498907D01*
X172250461Y-32930622D01*
X171928554Y-32448853D01*
X171446785Y-32126946D01*
X171205744Y-32079000D01*
X178550500Y-32079000D01*
X178550500Y-41668700D01*
G36*
X129188446Y-34607147D02*
X129474078Y-34798000D01*
X129188446Y-34988853D01*
X128968500Y-35318026D01*
X128748554Y-34988853D01*
X128465399Y-34799655D01*
X128465424Y-34799645D01*
X128893683Y-34409358D01*
X128960798Y-34266447D01*
X129188446Y-34607147D01*
X129188446Y-34607147D01*
G37*
X129188446Y-34607147D02*
X129474078Y-34798000D01*
X129188446Y-34988853D01*
X128968500Y-35318026D01*
X128748554Y-34988853D01*
X128465399Y-34799655D01*
X128465424Y-34799645D01*
X128893683Y-34409358D01*
X128960798Y-34266447D01*
X129188446Y-34607147D01*
G36*
X139348446Y-34607147D02*
X139634078Y-34798000D01*
X139348446Y-34988853D01*
X139128500Y-35318026D01*
X138908554Y-34988853D01*
X138625399Y-34799655D01*
X138625424Y-34799645D01*
X139053683Y-34409358D01*
X139120798Y-34266447D01*
X139348446Y-34607147D01*
X139348446Y-34607147D01*
G37*
X139348446Y-34607147D02*
X139634078Y-34798000D01*
X139348446Y-34988853D01*
X139128500Y-35318026D01*
X138908554Y-34988853D01*
X138625399Y-34799655D01*
X138625424Y-34799645D01*
X139053683Y-34409358D01*
X139120798Y-34266447D01*
X139348446Y-34607147D01*
G36*
X159668446Y-34607147D02*
X159954078Y-34798000D01*
X159668446Y-34988853D01*
X159448500Y-35318026D01*
X159228554Y-34988853D01*
X158945399Y-34799655D01*
X158945424Y-34799645D01*
X159373683Y-34409358D01*
X159440798Y-34266447D01*
X159668446Y-34607147D01*
X159668446Y-34607147D01*
G37*
X159668446Y-34607147D02*
X159954078Y-34798000D01*
X159668446Y-34988853D01*
X159448500Y-35318026D01*
X159228554Y-34988853D01*
X158945399Y-34799655D01*
X158945424Y-34799645D01*
X159373683Y-34409358D01*
X159440798Y-34266447D01*
X159668446Y-34607147D01*
G36*
X164748446Y-34607147D02*
X165034078Y-34798000D01*
X164748446Y-34988853D01*
X164528500Y-35318026D01*
X164308554Y-34988853D01*
X164025399Y-34799655D01*
X164025424Y-34799645D01*
X164453683Y-34409358D01*
X164520798Y-34266447D01*
X164748446Y-34607147D01*
X164748446Y-34607147D01*
G37*
X164748446Y-34607147D02*
X165034078Y-34798000D01*
X164748446Y-34988853D01*
X164528500Y-35318026D01*
X164308554Y-34988853D01*
X164025399Y-34799655D01*
X164025424Y-34799645D01*
X164453683Y-34409358D01*
X164520798Y-34266447D01*
X164748446Y-34607147D01*
G36*
X146968446Y-34607147D02*
X147254078Y-34798000D01*
X146968446Y-34988853D01*
X146748500Y-35318026D01*
X146528554Y-34988853D01*
X146245399Y-34799655D01*
X146245424Y-34799645D01*
X146673683Y-34409358D01*
X146740798Y-34266447D01*
X146968446Y-34607147D01*
X146968446Y-34607147D01*
G37*
X146968446Y-34607147D02*
X147254078Y-34798000D01*
X146968446Y-34988853D01*
X146748500Y-35318026D01*
X146528554Y-34988853D01*
X146245399Y-34799655D01*
X146245424Y-34799645D01*
X146673683Y-34409358D01*
X146740798Y-34266447D01*
X146968446Y-34607147D01*
G36*
X145605500Y-33401000D02*
X145625500Y-33401000D01*
X145625500Y-33655000D01*
X145605500Y-33655000D01*
X145605500Y-33675000D01*
X145351500Y-33675000D01*
X145351500Y-33655000D01*
X145331500Y-33655000D01*
X145331500Y-33401000D01*
X145351500Y-33401000D01*
X145351500Y-33381000D01*
X145605500Y-33381000D01*
X145605500Y-33401000D01*
X145605500Y-33401000D01*
G37*
X145605500Y-33401000D02*
X145625500Y-33401000D01*
X145625500Y-33655000D01*
X145605500Y-33655000D01*
X145605500Y-33675000D01*
X145351500Y-33675000D01*
X145351500Y-33655000D01*
X145331500Y-33655000D01*
X145331500Y-33401000D01*
X145351500Y-33401000D01*
X145351500Y-33381000D01*
X145605500Y-33381000D01*
X145605500Y-33401000D01*
G36*
X127825500Y-33401000D02*
X127845500Y-33401000D01*
X127845500Y-33655000D01*
X127825500Y-33655000D01*
X127825500Y-33675000D01*
X127571500Y-33675000D01*
X127571500Y-33655000D01*
X127551500Y-33655000D01*
X127551500Y-33401000D01*
X127571500Y-33401000D01*
X127571500Y-33381000D01*
X127825500Y-33381000D01*
X127825500Y-33401000D01*
X127825500Y-33401000D01*
G37*
X127825500Y-33401000D02*
X127845500Y-33401000D01*
X127845500Y-33655000D01*
X127825500Y-33655000D01*
X127825500Y-33675000D01*
X127571500Y-33675000D01*
X127571500Y-33655000D01*
X127551500Y-33655000D01*
X127551500Y-33401000D01*
X127571500Y-33401000D01*
X127571500Y-33381000D01*
X127825500Y-33381000D01*
X127825500Y-33401000D01*
G36*
X137985500Y-33401000D02*
X138005500Y-33401000D01*
X138005500Y-33655000D01*
X137985500Y-33655000D01*
X137985500Y-33675000D01*
X137731500Y-33675000D01*
X137731500Y-33655000D01*
X137711500Y-33655000D01*
X137711500Y-33401000D01*
X137731500Y-33401000D01*
X137731500Y-33381000D01*
X137985500Y-33381000D01*
X137985500Y-33401000D01*
X137985500Y-33401000D01*
G37*
X137985500Y-33401000D02*
X138005500Y-33401000D01*
X138005500Y-33655000D01*
X137985500Y-33655000D01*
X137985500Y-33675000D01*
X137731500Y-33675000D01*
X137731500Y-33655000D01*
X137711500Y-33655000D01*
X137711500Y-33401000D01*
X137731500Y-33401000D01*
X137731500Y-33381000D01*
X137985500Y-33381000D01*
X137985500Y-33401000D01*
G36*
X158305500Y-33401000D02*
X158325500Y-33401000D01*
X158325500Y-33655000D01*
X158305500Y-33655000D01*
X158305500Y-33675000D01*
X158051500Y-33675000D01*
X158051500Y-33655000D01*
X158031500Y-33655000D01*
X158031500Y-33401000D01*
X158051500Y-33401000D01*
X158051500Y-33381000D01*
X158305500Y-33381000D01*
X158305500Y-33401000D01*
X158305500Y-33401000D01*
G37*
X158305500Y-33401000D02*
X158325500Y-33401000D01*
X158325500Y-33655000D01*
X158305500Y-33655000D01*
X158305500Y-33675000D01*
X158051500Y-33675000D01*
X158051500Y-33655000D01*
X158031500Y-33655000D01*
X158031500Y-33401000D01*
X158051500Y-33401000D01*
X158051500Y-33381000D01*
X158305500Y-33381000D01*
X158305500Y-33401000D01*
G36*
X163385500Y-33401000D02*
X163405500Y-33401000D01*
X163405500Y-33655000D01*
X163385500Y-33655000D01*
X163385500Y-33675000D01*
X163131500Y-33675000D01*
X163131500Y-33655000D01*
X163111500Y-33655000D01*
X163111500Y-33401000D01*
X163131500Y-33401000D01*
X163131500Y-33381000D01*
X163385500Y-33381000D01*
X163385500Y-33401000D01*
X163385500Y-33401000D01*
G37*
X163385500Y-33401000D02*
X163405500Y-33401000D01*
X163405500Y-33655000D01*
X163385500Y-33655000D01*
X163385500Y-33675000D01*
X163131500Y-33675000D01*
X163131500Y-33655000D01*
X163111500Y-33655000D01*
X163111500Y-33401000D01*
X163131500Y-33401000D01*
X163131500Y-33381000D01*
X163385500Y-33381000D01*
X163385500Y-33401000D01*
M02*
