M48
;DRILL file {KiCad 4.0.5} date 03/21/17 11:14:44
;FORMAT={3:3/ absolute / metric / suppress trailing zeros}
FMAT,2
METRIC,LZ
T1C0.400
T2C1.000
T3C1.001
T4C1.097
T5C1.200
T6C1.300
T7C3.000
%
G90
G05
M71
T1
X117221Y-053277
X119507Y-054165
X122428Y-049085
X123889Y-049594
X124269Y-039116
X125032Y-050546
X127318Y-039497
X127698Y-045657
X12827Y-049784
X128461Y-048006
X129096Y-051054
X129223Y-041085
X129476Y-045022
X129476Y-048451
X129731Y-047689
X133096Y-051626
X133477Y-049657
X133985Y-045149
X13443Y-048133
X134874Y-047117
X135573Y-056325
X136271Y-038862
X137287Y-040069
X138938Y-045085
X139129Y-045911
X139129Y-046736
X139129Y-047562
X139192Y-048387
X139256Y-049721
X139382Y-042228
X141732Y-039561
X144717Y-044133
X145351Y-042291
X146177Y-041148
X146177Y-042926
X148336Y-040195
X14967Y-040513
X15113Y-03937
X151765Y-048832
X152273Y-054864
X152527Y-042608
X158179Y-048832
X162687Y-038608
X164148Y-041529
X167005Y-05588
X16999Y-053784
X170371Y-040386
X173673Y-039815
X176721Y-042939
X176721Y-047231
T2
X122618Y-033528
X122618Y-036068
X125158Y-033528
X125158Y-036068
X127698Y-033528
X127698Y-036068
X130238Y-033528
X130238Y-036068
X132779Y-033528
X132779Y-036068
X135319Y-033528
X135319Y-036068
X137859Y-033528
X137859Y-036068
X140399Y-033528
X140399Y-036068
X142939Y-033528
X142939Y-036068
X145479Y-033528
X145479Y-036068
X148019Y-033528
X148019Y-036068
X150559Y-033528
X150559Y-036068
X153099Y-033528
X153099Y-036068
X155639Y-033528
X155639Y-036068
X158179Y-033528
X158179Y-036068
X160719Y-033528
X160719Y-036068
X163259Y-033528
X163259Y-036068
X165799Y-033528
X165799Y-036068
X168339Y-033528
X168339Y-036068
X170879Y-033528
X170879Y-036068
T3
X125207Y-059436
X135367Y-059436
T4
X138494Y-056642
X141034Y-056642
T5
X148717Y-044069
X148717Y-054869
X159517Y-044069
X159517Y-054869
T6
X116142Y-043561
X116142Y-048561
X118642Y-046061
T7
X117729Y-034798
X117729Y-057848
X175768Y-034798
X175768Y-057848
T0
M30
