G04 #@! TF.FileFunction,Legend,Top*
%FSLAX46Y46*%
G04 Gerber Fmt 4.6, Leading zero omitted, Abs format (unit mm)*
G04 Created by KiCad (PCBNEW 4.0.5) date 03/21/17 11:14:39*
%MOMM*%
%LPD*%
G01*
G04 APERTURE LIST*
%ADD10C,0.100000*%
%ADD11C,0.120000*%
%ADD12C,0.152400*%
%ADD13C,0.150000*%
%ADD14R,2.100000X2.100000*%
%ADD15O,2.100000X2.100000*%
%ADD16R,2.152600X0.908000*%
%ADD17R,1.900000X3.600000*%
%ADD18R,2.000000X1.400000*%
%ADD19R,1.400000X2.000000*%
%ADD20R,3.600000X1.900000*%
%ADD21R,1.300000X1.600000*%
%ADD22C,2.500000*%
%ADD23R,2.500000X2.500000*%
%ADD24C,2.398980*%
%ADD25O,2.398980X2.398980*%
%ADD26R,2.398980X2.398980*%
%ADD27R,1.300000X2.100000*%
%ADD28C,2.740000*%
%ADD29R,4.591000X1.670000*%
%ADD30R,4.083000X1.670000*%
%ADD31C,3.400000*%
G04 APERTURE END LIST*
D10*
D11*
X123888500Y-37458000D02*
X172268500Y-37458000D01*
X172268500Y-37458000D02*
X172268500Y-32138000D01*
X172268500Y-32138000D02*
X121228500Y-32138000D01*
X121228500Y-32138000D02*
X121228500Y-34798000D01*
X121228500Y-34798000D02*
X123888500Y-34798000D01*
X123888500Y-34798000D02*
X123888500Y-37458000D01*
X122618500Y-37458000D02*
X121228500Y-37458000D01*
X121228500Y-37458000D02*
X121228500Y-36068000D01*
D12*
X132500627Y-52082700D02*
X136231373Y-52082700D01*
X136231373Y-44183300D02*
X132500627Y-44183300D01*
X134061200Y-44183300D02*
G75*
G03X134670800Y-44183300I304800J0D01*
G01*
X131729600Y-44088000D02*
G75*
G03X131729600Y-44088000I-76200J0D01*
G01*
D11*
X126843500Y-41312000D02*
X126843500Y-46812000D01*
X124743500Y-41312000D02*
X124743500Y-46812000D01*
X126843500Y-41312000D02*
X124743500Y-41312000D01*
X124337000Y-45704000D02*
X124337000Y-43704000D01*
X122297000Y-43704000D02*
X122297000Y-45704000D01*
X125079000Y-56130000D02*
X123079000Y-56130000D01*
X123079000Y-58170000D02*
X125079000Y-58170000D01*
X131111500Y-55431500D02*
X129111500Y-55431500D01*
X129111500Y-57471500D02*
X131111500Y-57471500D01*
X126338500Y-52798000D02*
X131838500Y-52798000D01*
X126338500Y-54898000D02*
X131838500Y-54898000D01*
X126338500Y-52798000D02*
X126338500Y-54898000D01*
X166660000Y-42053000D02*
X166660000Y-44053000D01*
X166660000Y-44053000D02*
X170560000Y-44053000D01*
X166660000Y-42053000D02*
X170560000Y-42053000D01*
X166660000Y-47641000D02*
X166660000Y-49641000D01*
X166660000Y-49641000D02*
X170560000Y-49641000D01*
X166660000Y-47641000D02*
X170560000Y-47641000D01*
D13*
X162117000Y-41469000D02*
X162117000Y-55269000D01*
X162117000Y-55269000D02*
X159917000Y-57469000D01*
X159917000Y-57469000D02*
X146117000Y-57469000D01*
X146117000Y-41469000D02*
X162117000Y-41469000D01*
X146117000Y-57469000D02*
X146117000Y-41469000D01*
X133080760Y-59436000D02*
X133842760Y-59436000D01*
X127619760Y-59436000D02*
X126730760Y-59436000D01*
X133080760Y-58166000D02*
X133080760Y-60833000D01*
X133080760Y-60833000D02*
X127619760Y-60833000D01*
X127619760Y-60833000D02*
X127619760Y-58166000D01*
X127619760Y-58166000D02*
X133080760Y-58166000D01*
X142562580Y-59242960D02*
X136964420Y-59242960D01*
X137162540Y-59740800D02*
X137162540Y-59242960D01*
X142364460Y-59242960D02*
X142364460Y-59740800D01*
X139763500Y-59740800D02*
X139763500Y-59242960D01*
X136964420Y-53941980D02*
X142562580Y-53941980D01*
X136964420Y-59740800D02*
X142562580Y-59740800D01*
X142562580Y-59740800D02*
X142562580Y-53543200D01*
X142562580Y-53543200D02*
X136964420Y-53543200D01*
X136964420Y-53543200D02*
X136964420Y-59740800D01*
D11*
X169719500Y-46853500D02*
X167719500Y-46853500D01*
X167719500Y-44713500D02*
X169719500Y-44713500D01*
X124761500Y-54410000D02*
X122761500Y-54410000D01*
X122761500Y-52270000D02*
X124761500Y-52270000D01*
X116080500Y-41100000D02*
X121001500Y-41100000D01*
X116080500Y-51021000D02*
X121001500Y-51021000D01*
X121001500Y-41100000D02*
X121001500Y-51021000D01*
X116080500Y-49926000D02*
X116080500Y-51021000D01*
X116080500Y-41100000D02*
X116080500Y-42196000D01*
X116080500Y-44926000D02*
X116080500Y-47196000D01*
X117326500Y-44501000D02*
X121001500Y-44501000D01*
X117326500Y-47622000D02*
X121001500Y-47622000D01*
X116080500Y-44926000D02*
X116080500Y-47196000D01*
X121001500Y-44501000D02*
X121001500Y-47622000D01*
D13*
X121610381Y-39536595D02*
X120610381Y-39536595D01*
X120610381Y-39155642D01*
X120658000Y-39060404D01*
X120705619Y-39012785D01*
X120800857Y-38965166D01*
X120943714Y-38965166D01*
X121038952Y-39012785D01*
X121086571Y-39060404D01*
X121134190Y-39155642D01*
X121134190Y-39536595D01*
X120705619Y-38584214D02*
X120658000Y-38536595D01*
X120610381Y-38441357D01*
X120610381Y-38203261D01*
X120658000Y-38108023D01*
X120705619Y-38060404D01*
X120800857Y-38012785D01*
X120896095Y-38012785D01*
X121038952Y-38060404D01*
X121610381Y-38631833D01*
X121610381Y-38012785D01*
X141224095Y-46315381D02*
X141224095Y-47124905D01*
X141271714Y-47220143D01*
X141319333Y-47267762D01*
X141414571Y-47315381D01*
X141605048Y-47315381D01*
X141700286Y-47267762D01*
X141747905Y-47220143D01*
X141795524Y-47124905D01*
X141795524Y-46315381D01*
X142795524Y-47315381D02*
X142224095Y-47315381D01*
X142509809Y-47315381D02*
X142509809Y-46315381D01*
X142414571Y-46458238D01*
X142319333Y-46553476D01*
X142224095Y-46601095D01*
X129056476Y-43219667D02*
X129532667Y-43219667D01*
X128961238Y-43505381D02*
X129294571Y-42505381D01*
X129627905Y-43505381D01*
X129961238Y-43505381D02*
X129961238Y-42505381D01*
X130199333Y-42505381D01*
X130342191Y-42553000D01*
X130437429Y-42648238D01*
X130485048Y-42743476D01*
X130532667Y-42933952D01*
X130532667Y-43076810D01*
X130485048Y-43267286D01*
X130437429Y-43362524D01*
X130342191Y-43457762D01*
X130199333Y-43505381D01*
X129961238Y-43505381D01*
X131532667Y-43410143D02*
X131485048Y-43457762D01*
X131342191Y-43505381D01*
X131246953Y-43505381D01*
X131104095Y-43457762D01*
X131008857Y-43362524D01*
X130961238Y-43267286D01*
X130913619Y-43076810D01*
X130913619Y-42933952D01*
X130961238Y-42743476D01*
X131008857Y-42648238D01*
X131104095Y-42553000D01*
X131246953Y-42505381D01*
X131342191Y-42505381D01*
X131485048Y-42553000D01*
X131532667Y-42600619D01*
X132151714Y-42505381D02*
X132246953Y-42505381D01*
X132342191Y-42553000D01*
X132389810Y-42600619D01*
X132437429Y-42695857D01*
X132485048Y-42886333D01*
X132485048Y-43124429D01*
X132437429Y-43314905D01*
X132389810Y-43410143D01*
X132342191Y-43457762D01*
X132246953Y-43505381D01*
X132151714Y-43505381D01*
X132056476Y-43457762D01*
X132008857Y-43410143D01*
X131961238Y-43314905D01*
X131913619Y-43124429D01*
X131913619Y-42886333D01*
X131961238Y-42695857D01*
X132008857Y-42600619D01*
X132056476Y-42553000D01*
X132151714Y-42505381D01*
X133056476Y-42933952D02*
X132961238Y-42886333D01*
X132913619Y-42838714D01*
X132866000Y-42743476D01*
X132866000Y-42695857D01*
X132913619Y-42600619D01*
X132961238Y-42553000D01*
X133056476Y-42505381D01*
X133246953Y-42505381D01*
X133342191Y-42553000D01*
X133389810Y-42600619D01*
X133437429Y-42695857D01*
X133437429Y-42743476D01*
X133389810Y-42838714D01*
X133342191Y-42886333D01*
X133246953Y-42933952D01*
X133056476Y-42933952D01*
X132961238Y-42981571D01*
X132913619Y-43029190D01*
X132866000Y-43124429D01*
X132866000Y-43314905D01*
X132913619Y-43410143D01*
X132961238Y-43457762D01*
X133056476Y-43505381D01*
X133246953Y-43505381D01*
X133342191Y-43457762D01*
X133389810Y-43410143D01*
X133437429Y-43314905D01*
X133437429Y-43124429D01*
X133389810Y-43029190D01*
X133342191Y-42981571D01*
X133246953Y-42933952D01*
X133818381Y-42600619D02*
X133866000Y-42553000D01*
X133961238Y-42505381D01*
X134199334Y-42505381D01*
X134294572Y-42553000D01*
X134342191Y-42600619D01*
X134389810Y-42695857D01*
X134389810Y-42791095D01*
X134342191Y-42933952D01*
X133770762Y-43505381D01*
X134389810Y-43505381D01*
X135008857Y-42505381D02*
X135104096Y-42505381D01*
X135199334Y-42553000D01*
X135246953Y-42600619D01*
X135294572Y-42695857D01*
X135342191Y-42886333D01*
X135342191Y-43124429D01*
X135294572Y-43314905D01*
X135246953Y-43410143D01*
X135199334Y-43457762D01*
X135104096Y-43505381D01*
X135008857Y-43505381D01*
X134913619Y-43457762D01*
X134866000Y-43410143D01*
X134818381Y-43314905D01*
X134770762Y-43124429D01*
X134770762Y-42886333D01*
X134818381Y-42695857D01*
X134866000Y-42600619D01*
X134913619Y-42553000D01*
X135008857Y-42505381D01*
X135961238Y-42505381D02*
X136056477Y-42505381D01*
X136151715Y-42553000D01*
X136199334Y-42600619D01*
X136246953Y-42695857D01*
X136294572Y-42886333D01*
X136294572Y-43124429D01*
X136246953Y-43314905D01*
X136199334Y-43410143D01*
X136151715Y-43457762D01*
X136056477Y-43505381D01*
X135961238Y-43505381D01*
X135866000Y-43457762D01*
X135818381Y-43410143D01*
X135770762Y-43314905D01*
X135723143Y-43124429D01*
X135723143Y-42886333D01*
X135770762Y-42695857D01*
X135818381Y-42600619D01*
X135866000Y-42553000D01*
X135961238Y-42505381D01*
X137294572Y-43410143D02*
X137246953Y-43457762D01*
X137104096Y-43505381D01*
X137008858Y-43505381D01*
X136866000Y-43457762D01*
X136770762Y-43362524D01*
X136723143Y-43267286D01*
X136675524Y-43076810D01*
X136675524Y-42933952D01*
X136723143Y-42743476D01*
X136770762Y-42648238D01*
X136866000Y-42553000D01*
X137008858Y-42505381D01*
X137104096Y-42505381D01*
X137246953Y-42553000D01*
X137294572Y-42600619D01*
X137723143Y-43505381D02*
X137723143Y-42505381D01*
X138199333Y-43505381D02*
X138199333Y-42505381D01*
X138532667Y-43219667D01*
X138866000Y-42505381D01*
X138866000Y-43505381D01*
X139199333Y-42505381D02*
X139770762Y-42505381D01*
X139485047Y-43505381D02*
X139485047Y-42505381D01*
X126087143Y-40235166D02*
X126134762Y-40282785D01*
X126182381Y-40425642D01*
X126182381Y-40520880D01*
X126134762Y-40663738D01*
X126039524Y-40758976D01*
X125944286Y-40806595D01*
X125753810Y-40854214D01*
X125610952Y-40854214D01*
X125420476Y-40806595D01*
X125325238Y-40758976D01*
X125230000Y-40663738D01*
X125182381Y-40520880D01*
X125182381Y-40425642D01*
X125230000Y-40282785D01*
X125277619Y-40235166D01*
X126182381Y-39282785D02*
X126182381Y-39854214D01*
X126182381Y-39568500D02*
X125182381Y-39568500D01*
X125325238Y-39663738D01*
X125420476Y-39758976D01*
X125468095Y-39854214D01*
X123610643Y-41441666D02*
X123658262Y-41489285D01*
X123705881Y-41632142D01*
X123705881Y-41727380D01*
X123658262Y-41870238D01*
X123563024Y-41965476D01*
X123467786Y-42013095D01*
X123277310Y-42060714D01*
X123134452Y-42060714D01*
X122943976Y-42013095D01*
X122848738Y-41965476D01*
X122753500Y-41870238D01*
X122705881Y-41727380D01*
X122705881Y-41632142D01*
X122753500Y-41489285D01*
X122801119Y-41441666D01*
X122801119Y-41060714D02*
X122753500Y-41013095D01*
X122705881Y-40917857D01*
X122705881Y-40679761D01*
X122753500Y-40584523D01*
X122801119Y-40536904D01*
X122896357Y-40489285D01*
X122991595Y-40489285D01*
X123134452Y-40536904D01*
X123705881Y-41108333D01*
X123705881Y-40489285D01*
X123531334Y-55665643D02*
X123483715Y-55713262D01*
X123340858Y-55760881D01*
X123245620Y-55760881D01*
X123102762Y-55713262D01*
X123007524Y-55618024D01*
X122959905Y-55522786D01*
X122912286Y-55332310D01*
X122912286Y-55189452D01*
X122959905Y-54998976D01*
X123007524Y-54903738D01*
X123102762Y-54808500D01*
X123245620Y-54760881D01*
X123340858Y-54760881D01*
X123483715Y-54808500D01*
X123531334Y-54856119D01*
X123864667Y-54760881D02*
X124483715Y-54760881D01*
X124150381Y-55141833D01*
X124293239Y-55141833D01*
X124388477Y-55189452D01*
X124436096Y-55237071D01*
X124483715Y-55332310D01*
X124483715Y-55570405D01*
X124436096Y-55665643D01*
X124388477Y-55713262D01*
X124293239Y-55760881D01*
X124007524Y-55760881D01*
X123912286Y-55713262D01*
X123864667Y-55665643D01*
X133373834Y-56618143D02*
X133326215Y-56665762D01*
X133183358Y-56713381D01*
X133088120Y-56713381D01*
X132945262Y-56665762D01*
X132850024Y-56570524D01*
X132802405Y-56475286D01*
X132754786Y-56284810D01*
X132754786Y-56141952D01*
X132802405Y-55951476D01*
X132850024Y-55856238D01*
X132945262Y-55761000D01*
X133088120Y-55713381D01*
X133183358Y-55713381D01*
X133326215Y-55761000D01*
X133373834Y-55808619D01*
X134230977Y-56046714D02*
X134230977Y-56713381D01*
X133992881Y-55665762D02*
X133754786Y-56380048D01*
X134373834Y-56380048D01*
X128484334Y-52046143D02*
X128436715Y-52093762D01*
X128293858Y-52141381D01*
X128198620Y-52141381D01*
X128055762Y-52093762D01*
X127960524Y-51998524D01*
X127912905Y-51903286D01*
X127865286Y-51712810D01*
X127865286Y-51569952D01*
X127912905Y-51379476D01*
X127960524Y-51284238D01*
X128055762Y-51189000D01*
X128198620Y-51141381D01*
X128293858Y-51141381D01*
X128436715Y-51189000D01*
X128484334Y-51236619D01*
X129389096Y-51141381D02*
X128912905Y-51141381D01*
X128865286Y-51617571D01*
X128912905Y-51569952D01*
X129008143Y-51522333D01*
X129246239Y-51522333D01*
X129341477Y-51569952D01*
X129389096Y-51617571D01*
X129436715Y-51712810D01*
X129436715Y-51950905D01*
X129389096Y-52046143D01*
X129341477Y-52093762D01*
X129246239Y-52141381D01*
X129008143Y-52141381D01*
X128912905Y-52093762D01*
X128865286Y-52046143D01*
X164552405Y-43441881D02*
X164552405Y-42441881D01*
X164790500Y-42441881D01*
X164933358Y-42489500D01*
X165028596Y-42584738D01*
X165076215Y-42679976D01*
X165123834Y-42870452D01*
X165123834Y-43013310D01*
X165076215Y-43203786D01*
X165028596Y-43299024D01*
X164933358Y-43394262D01*
X164790500Y-43441881D01*
X164552405Y-43441881D01*
X166076215Y-43441881D02*
X165504786Y-43441881D01*
X165790500Y-43441881D02*
X165790500Y-42441881D01*
X165695262Y-42584738D01*
X165600024Y-42679976D01*
X165504786Y-42727595D01*
X164488905Y-49093381D02*
X164488905Y-48093381D01*
X164727000Y-48093381D01*
X164869858Y-48141000D01*
X164965096Y-48236238D01*
X165012715Y-48331476D01*
X165060334Y-48521952D01*
X165060334Y-48664810D01*
X165012715Y-48855286D01*
X164965096Y-48950524D01*
X164869858Y-49045762D01*
X164727000Y-49093381D01*
X164488905Y-49093381D01*
X165441286Y-48188619D02*
X165488905Y-48141000D01*
X165584143Y-48093381D01*
X165822239Y-48093381D01*
X165917477Y-48141000D01*
X165965096Y-48188619D01*
X166012715Y-48283857D01*
X166012715Y-48379095D01*
X165965096Y-48521952D01*
X165393667Y-49093381D01*
X166012715Y-49093381D01*
X147728905Y-40871381D02*
X147728905Y-39871381D01*
X147967000Y-39871381D01*
X148109858Y-39919000D01*
X148205096Y-40014238D01*
X148252715Y-40109476D01*
X148300334Y-40299952D01*
X148300334Y-40442810D01*
X148252715Y-40633286D01*
X148205096Y-40728524D01*
X148109858Y-40823762D01*
X147967000Y-40871381D01*
X147728905Y-40871381D01*
X148633667Y-39871381D02*
X149252715Y-39871381D01*
X148919381Y-40252333D01*
X149062239Y-40252333D01*
X149157477Y-40299952D01*
X149205096Y-40347571D01*
X149252715Y-40442810D01*
X149252715Y-40680905D01*
X149205096Y-40776143D01*
X149157477Y-40823762D01*
X149062239Y-40871381D01*
X148776524Y-40871381D01*
X148681286Y-40823762D01*
X148633667Y-40776143D01*
X122705834Y-59824881D02*
X122229643Y-59824881D01*
X122229643Y-58824881D01*
X123562977Y-59824881D02*
X122991548Y-59824881D01*
X123277262Y-59824881D02*
X123277262Y-58824881D01*
X123182024Y-58967738D01*
X123086786Y-59062976D01*
X122991548Y-59110595D01*
X139025405Y-52593501D02*
X139025405Y-51593501D01*
X139406358Y-51593501D01*
X139501596Y-51641120D01*
X139549215Y-51688739D01*
X139596834Y-51783977D01*
X139596834Y-51926834D01*
X139549215Y-52022072D01*
X139501596Y-52069691D01*
X139406358Y-52117310D01*
X139025405Y-52117310D01*
X140549215Y-52593501D02*
X139977786Y-52593501D01*
X140263500Y-52593501D02*
X140263500Y-51593501D01*
X140168262Y-51736358D01*
X140073024Y-51831596D01*
X139977786Y-51879215D01*
X164742834Y-46235881D02*
X164409500Y-45759690D01*
X164171405Y-46235881D02*
X164171405Y-45235881D01*
X164552358Y-45235881D01*
X164647596Y-45283500D01*
X164695215Y-45331119D01*
X164742834Y-45426357D01*
X164742834Y-45569214D01*
X164695215Y-45664452D01*
X164647596Y-45712071D01*
X164552358Y-45759690D01*
X164171405Y-45759690D01*
X165695215Y-46235881D02*
X165123786Y-46235881D01*
X165409500Y-46235881D02*
X165409500Y-45235881D01*
X165314262Y-45378738D01*
X165219024Y-45473976D01*
X165123786Y-45521595D01*
X123531334Y-51887381D02*
X123198000Y-51411190D01*
X122959905Y-51887381D02*
X122959905Y-50887381D01*
X123340858Y-50887381D01*
X123436096Y-50935000D01*
X123483715Y-50982619D01*
X123531334Y-51077857D01*
X123531334Y-51220714D01*
X123483715Y-51315952D01*
X123436096Y-51363571D01*
X123340858Y-51411190D01*
X122959905Y-51411190D01*
X123912286Y-50982619D02*
X123959905Y-50935000D01*
X124055143Y-50887381D01*
X124293239Y-50887381D01*
X124388477Y-50935000D01*
X124436096Y-50982619D01*
X124483715Y-51077857D01*
X124483715Y-51173095D01*
X124436096Y-51315952D01*
X123864667Y-51887381D01*
X124483715Y-51887381D01*
X115546262Y-40363381D02*
X115212928Y-39887190D01*
X114974833Y-40363381D02*
X114974833Y-39363381D01*
X115355786Y-39363381D01*
X115451024Y-39411000D01*
X115498643Y-39458619D01*
X115546262Y-39553857D01*
X115546262Y-39696714D01*
X115498643Y-39791952D01*
X115451024Y-39839571D01*
X115355786Y-39887190D01*
X114974833Y-39887190D01*
X115831976Y-39363381D02*
X116165309Y-40363381D01*
X116498643Y-39363381D01*
X117355786Y-40363381D02*
X116784357Y-40363381D01*
X117070071Y-40363381D02*
X117070071Y-39363381D01*
X116974833Y-39506238D01*
X116879595Y-39601476D01*
X116784357Y-39649095D01*
%LPC*%
D14*
X122618500Y-36068000D03*
D15*
X122618500Y-33528000D03*
X125158500Y-36068000D03*
X125158500Y-33528000D03*
X127698500Y-36068000D03*
X127698500Y-33528000D03*
X130238500Y-36068000D03*
X130238500Y-33528000D03*
X132778500Y-36068000D03*
X132778500Y-33528000D03*
X135318500Y-36068000D03*
X135318500Y-33528000D03*
X137858500Y-36068000D03*
X137858500Y-33528000D03*
X140398500Y-36068000D03*
X140398500Y-33528000D03*
X142938500Y-36068000D03*
X142938500Y-33528000D03*
X145478500Y-36068000D03*
X145478500Y-33528000D03*
X148018500Y-36068000D03*
X148018500Y-33528000D03*
X150558500Y-36068000D03*
X150558500Y-33528000D03*
X153098500Y-36068000D03*
X153098500Y-33528000D03*
X155638500Y-36068000D03*
X155638500Y-33528000D03*
X158178500Y-36068000D03*
X158178500Y-33528000D03*
X160718500Y-36068000D03*
X160718500Y-33528000D03*
X163258500Y-36068000D03*
X163258500Y-33528000D03*
X165798500Y-36068000D03*
X165798500Y-33528000D03*
X168338500Y-36068000D03*
X168338500Y-33528000D03*
X170878500Y-36068000D03*
X170878500Y-33528000D03*
D16*
X131521200Y-44558001D03*
X131521200Y-45208000D03*
X131521200Y-45857998D03*
X131521200Y-46507999D03*
X131521200Y-47157998D03*
X131521200Y-47807999D03*
X131521200Y-48457998D03*
X131521200Y-49107999D03*
X131521200Y-49757998D03*
X131521200Y-50407999D03*
X131521200Y-51057998D03*
X131521200Y-51707999D03*
X137210800Y-51707999D03*
X137210800Y-51058000D03*
X137210800Y-50407999D03*
X137210800Y-49758001D03*
X137210800Y-49107999D03*
X137210800Y-48458001D03*
X137210800Y-47808002D03*
X137210800Y-47158001D03*
X137210800Y-46508002D03*
X137210800Y-45858001D03*
X137210800Y-45208002D03*
X137210800Y-44558001D03*
D17*
X125793500Y-43212000D03*
X125793500Y-47212000D03*
D18*
X123317000Y-43204000D03*
X123317000Y-46204000D03*
D19*
X122579000Y-57150000D03*
X125579000Y-57150000D03*
X128611500Y-56451500D03*
X131611500Y-56451500D03*
D20*
X128238500Y-53848000D03*
X132238500Y-53848000D03*
D21*
X167260000Y-43053000D03*
X170560000Y-43053000D03*
X167260000Y-48641000D03*
X170560000Y-48641000D03*
D22*
X148717000Y-44069000D03*
X148717000Y-54869000D03*
D23*
X159517000Y-54869000D03*
D22*
X159517000Y-44069000D03*
D24*
X135366760Y-59436000D03*
X125206760Y-59436000D03*
D25*
X141033500Y-56642000D03*
D26*
X138493500Y-56642000D03*
D27*
X167269500Y-45783500D03*
X170169500Y-45783500D03*
X122311500Y-53340000D03*
X125211500Y-53340000D03*
D28*
X116141500Y-48561000D03*
X118641500Y-46061000D03*
X116141500Y-43561000D03*
D29*
X176720500Y-47231300D03*
X176720500Y-42938700D03*
D30*
X176974500Y-45085000D03*
D29*
X176720500Y-47231300D03*
X176720500Y-42938700D03*
D31*
X117729000Y-34798000D03*
X175768000Y-34798000D03*
X117729000Y-57848500D03*
X175768000Y-57848500D03*
M02*
